%TF.GenerationSoftware,KiCad,Pcbnew,7.0.6*%
%TF.CreationDate,2024-05-29T23:10:09-05:00*%
%TF.ProjectId,My_kikad,4d795f6b-696b-4616-942e-6b696361645f,V01*%
%TF.SameCoordinates,Original*%
%TF.FileFunction,Copper,L2,Bot*%
%TF.FilePolarity,Positive*%
%FSLAX46Y46*%
G04 Gerber Fmt 4.6, Leading zero omitted, Abs format (unit mm)*
G04 Created by KiCad (PCBNEW 7.0.6) date 2024-05-29 23:10:09*
%MOMM*%
%LPD*%
G01*
G04 APERTURE LIST*
%TA.AperFunction,ComponentPad*%
%ADD10C,1.600000*%
%TD*%
%TA.AperFunction,ComponentPad*%
%ADD11O,1.600000X1.600000*%
%TD*%
%TA.AperFunction,ComponentPad*%
%ADD12R,1.800000X1.800000*%
%TD*%
%TA.AperFunction,ComponentPad*%
%ADD13C,1.800000*%
%TD*%
%TA.AperFunction,ComponentPad*%
%ADD14C,1.524000*%
%TD*%
%TA.AperFunction,ComponentPad*%
%ADD15R,2.170000X2.170000*%
%TD*%
%TA.AperFunction,ComponentPad*%
%ADD16C,2.500000*%
%TD*%
%TA.AperFunction,ComponentPad*%
%ADD17R,1.600000X1.600000*%
%TD*%
%TA.AperFunction,ComponentPad*%
%ADD18R,1.900000X1.900000*%
%TD*%
%TA.AperFunction,ComponentPad*%
%ADD19C,1.900000*%
%TD*%
%TA.AperFunction,ComponentPad*%
%ADD20R,1.000000X1.500000*%
%TD*%
%TA.AperFunction,ComponentPad*%
%ADD21O,1.000000X1.500000*%
%TD*%
%TA.AperFunction,Conductor*%
%ADD22C,0.254000*%
%TD*%
G04 APERTURE END LIST*
D10*
%TO.P,R2,1*%
%TO.N,Net-(U1-DIS)*%
X163700000Y-102990000D03*
D11*
%TO.P,R2,2*%
%TO.N,Net-(U1-THRESH)*%
X163700000Y-110610000D03*
%TD*%
D12*
%TO.P,D2,1,K*%
%TO.N,Net-(D1-K)*%
X163100000Y-73240000D03*
D13*
%TO.P,D2,2,A*%
%TO.N,Net-(D2-A)*%
X163100000Y-70700000D03*
%TD*%
D10*
%TO.P,R3,1*%
%TO.N,Net-(U1-OUT)*%
X160600000Y-97200000D03*
D11*
%TO.P,R3,2*%
%TO.N,Net-(C2-Pad1)*%
X168220000Y-97200000D03*
%TD*%
D10*
%TO.P,R4,1*%
%TO.N,Net-(C2-Pad1)*%
X178300000Y-111000000D03*
D11*
%TO.P,R4,2*%
%TO.N,Net-(Q1-B)*%
X178300000Y-103380000D03*
%TD*%
D14*
%TO.P,7555,1,GND*%
%TO.N,GND*%
X151960000Y-123820000D03*
%TO.P,7555,2,~{TRIG}*%
%TO.N,Net-(U1-THRESH)*%
X154500000Y-123820000D03*
%TO.P,7555,3,OUT*%
%TO.N,Net-(U1-OUT)*%
X157040000Y-123820000D03*
%TO.P,7555,4,~{RST}*%
%TO.N,VCC*%
X159580000Y-123820000D03*
%TO.P,7555,5,CV*%
%TO.N,unconnected-(U1-CV-Pad5)*%
X159580000Y-116200000D03*
%TO.P,7555,6,THRESH*%
%TO.N,Net-(U1-THRESH)*%
X157040000Y-116200000D03*
%TO.P,7555,7,DIS*%
%TO.N,Net-(U1-DIS)*%
X154500000Y-116200000D03*
%TO.P,7555,8,VDD*%
%TO.N,VCC*%
X151960000Y-116200000D03*
%TD*%
D15*
%TO.P,BAT1,Neg*%
%TO.N,GND*%
X138400000Y-120375700D03*
D16*
%TO.P,BAT1,Pos*%
%TO.N,Net-(BAT1-PadPos)*%
X138400000Y-100375700D03*
%TD*%
D10*
%TO.P,R7,1*%
%TO.N,Net-(D2-A)*%
X173000000Y-103100000D03*
D11*
%TO.P,R7,2*%
%TO.N,VCC*%
X173000000Y-110720000D03*
%TD*%
D17*
%TO.P,C1,1*%
%TO.N,Net-(U1-THRESH)*%
X165400000Y-120100000D03*
D10*
%TO.P,C1,2*%
%TO.N,GND*%
X165400000Y-122100000D03*
%TD*%
D18*
%TO.P,S1,1*%
%TO.N,unconnected-(S1-Pad1)*%
X153600000Y-109400000D03*
D19*
%TO.P,S1,2*%
%TO.N,VCC*%
X153600000Y-106900000D03*
%TO.P,S1,3*%
%TO.N,Net-(BAT1-PadPos)*%
X153600000Y-104400000D03*
%TD*%
D10*
%TO.P,R1,1*%
%TO.N,VCC*%
X159100000Y-102890000D03*
D11*
%TO.P,R1,2*%
%TO.N,Net-(U1-DIS)*%
X159100000Y-110510000D03*
%TD*%
D10*
%TO.P,R5,1*%
%TO.N,GND*%
X169200000Y-116100000D03*
D11*
%TO.P,R5,2*%
%TO.N,Net-(C2-Pad1)*%
X176820000Y-116100000D03*
%TD*%
D12*
%TO.P,D1,1,K*%
%TO.N,Net-(D1-K)*%
X146700000Y-73240000D03*
D13*
%TO.P,D1,2,A*%
%TO.N,Net-(D1-A)*%
X146700000Y-70700000D03*
%TD*%
D17*
%TO.P,C2,1*%
%TO.N,Net-(C2-Pad1)*%
X176700000Y-120800000D03*
D10*
%TO.P,C2,2*%
%TO.N,GND*%
X176700000Y-123300000D03*
%TD*%
D20*
%TO.P,Q1,1,E*%
%TO.N,GND*%
X176060000Y-97500000D03*
D21*
%TO.P,Q1,2,B*%
%TO.N,Net-(Q1-B)*%
X177330000Y-97500000D03*
%TO.P,Q1,3,C*%
%TO.N,Net-(D1-K)*%
X178600000Y-97500000D03*
%TD*%
D10*
%TO.P,R6,1*%
%TO.N,Net-(D1-A)*%
X168300000Y-102900000D03*
D11*
%TO.P,R6,2*%
%TO.N,VCC*%
X168300000Y-110520000D03*
%TD*%
D22*
%TO.N,Net-(U1-THRESH)*%
X154500000Y-123820000D02*
X154500000Y-118740000D01*
X154500000Y-118740000D02*
X157040000Y-116200000D01*
%TO.N,Net-(D2-A)*%
X173000000Y-70700000D02*
X163100000Y-70700000D01*
X173000000Y-103100000D02*
X173000000Y-70700000D01*
%TO.N,Net-(U1-DIS)*%
X163700000Y-105910000D02*
X159100000Y-110510000D01*
X163700000Y-102990000D02*
X163700000Y-105910000D01*
%TO.N,Net-(U1-OUT)*%
X156400000Y-101400000D02*
X160600000Y-97200000D01*
X156400000Y-112200000D02*
X156400000Y-101400000D01*
X158300000Y-114100000D02*
X156400000Y-112200000D01*
X157040000Y-123820000D02*
X158300000Y-122560000D01*
X158300000Y-122560000D02*
X158300000Y-114100000D01*
%TD*%
%TA.AperFunction,Conductor*%
%TO.N,GND*%
G36*
X180789621Y-41422502D02*
G01*
X180836114Y-41476158D01*
X180847500Y-41528500D01*
X180847500Y-126873500D01*
X180827498Y-126941621D01*
X180773842Y-126988114D01*
X180721500Y-126999500D01*
X127126500Y-126999500D01*
X127058379Y-126979498D01*
X127011886Y-126925842D01*
X127000500Y-126873500D01*
X127000500Y-123820000D01*
X150693179Y-123820000D01*
X150712425Y-124039979D01*
X150769577Y-124253276D01*
X150769579Y-124253281D01*
X150862899Y-124453407D01*
X150908258Y-124518186D01*
X151575096Y-123851348D01*
X151575051Y-123851898D01*
X151606266Y-123975162D01*
X151675813Y-124081612D01*
X151776157Y-124159713D01*
X151896422Y-124201000D01*
X151932552Y-124201000D01*
X151261812Y-124871739D01*
X151261812Y-124871741D01*
X151326590Y-124917099D01*
X151326589Y-124917099D01*
X151526718Y-125010420D01*
X151526723Y-125010422D01*
X151740020Y-125067574D01*
X151959999Y-125086820D01*
X152179979Y-125067574D01*
X152393276Y-125010422D01*
X152393281Y-125010420D01*
X152593410Y-124917099D01*
X152593411Y-124917098D01*
X152658186Y-124871741D01*
X152658186Y-124871740D01*
X151987447Y-124201000D01*
X151991569Y-124201000D01*
X152085421Y-124185339D01*
X152197251Y-124124820D01*
X152283371Y-124031269D01*
X152334448Y-123914823D01*
X152340105Y-123846552D01*
X153011739Y-124518186D01*
X153011741Y-124518186D01*
X153057098Y-124453411D01*
X153057099Y-124453410D01*
X153150420Y-124253281D01*
X153150422Y-124253276D01*
X153207574Y-124039978D01*
X153226819Y-123819999D01*
X153478581Y-123819999D01*
X153498206Y-124019261D01*
X153498206Y-124019263D01*
X153556332Y-124210877D01*
X153556334Y-124210883D01*
X153650720Y-124387466D01*
X153650722Y-124387469D01*
X153777748Y-124542252D01*
X153932531Y-124669278D01*
X154109120Y-124763667D01*
X154300731Y-124821792D01*
X154300735Y-124821792D01*
X154300737Y-124821793D01*
X154499997Y-124841418D01*
X154500000Y-124841418D01*
X154500003Y-124841418D01*
X154699261Y-124821793D01*
X154699263Y-124821793D01*
X154699264Y-124821792D01*
X154699269Y-124821792D01*
X154890880Y-124763667D01*
X155067469Y-124669278D01*
X155222252Y-124542252D01*
X155349278Y-124387469D01*
X155443667Y-124210880D01*
X155501792Y-124019269D01*
X155506136Y-123975162D01*
X155521418Y-123820003D01*
X155521418Y-123819996D01*
X155501793Y-123620738D01*
X155501793Y-123620736D01*
X155501792Y-123620733D01*
X155501792Y-123620731D01*
X155443667Y-123429120D01*
X155349278Y-123252531D01*
X155222252Y-123097748D01*
X155067469Y-122970722D01*
X154962912Y-122914835D01*
X154948103Y-122906919D01*
X154897455Y-122857166D01*
X154881500Y-122795797D01*
X154881500Y-118950211D01*
X154901502Y-118882090D01*
X154918400Y-118861121D01*
X156585541Y-117193979D01*
X156647851Y-117159956D01*
X156711210Y-117162502D01*
X156840727Y-117201791D01*
X156840728Y-117201791D01*
X156840731Y-117201792D01*
X156840734Y-117201792D01*
X156840738Y-117201793D01*
X157039997Y-117221418D01*
X157040000Y-117221418D01*
X157040003Y-117221418D01*
X157239261Y-117201793D01*
X157239263Y-117201793D01*
X157239264Y-117201792D01*
X157239269Y-117201792D01*
X157430880Y-117143667D01*
X157607469Y-117049278D01*
X157712569Y-116963024D01*
X157777914Y-116935273D01*
X157847892Y-116947255D01*
X157900284Y-116995168D01*
X157918500Y-117060426D01*
X157918500Y-122349787D01*
X157898498Y-122417908D01*
X157881599Y-122438877D01*
X157672964Y-122647513D01*
X157494459Y-122826018D01*
X157432147Y-122860043D01*
X157368789Y-122857497D01*
X157239266Y-122818207D01*
X157239261Y-122818206D01*
X157040003Y-122798582D01*
X157039997Y-122798582D01*
X156840738Y-122818206D01*
X156840736Y-122818206D01*
X156649122Y-122876332D01*
X156649116Y-122876334D01*
X156472533Y-122970720D01*
X156317748Y-123097748D01*
X156190720Y-123252533D01*
X156096334Y-123429116D01*
X156096332Y-123429122D01*
X156038206Y-123620736D01*
X156038206Y-123620738D01*
X156018582Y-123819996D01*
X156018582Y-123820003D01*
X156038206Y-124019261D01*
X156038206Y-124019263D01*
X156096332Y-124210877D01*
X156096334Y-124210883D01*
X156190720Y-124387466D01*
X156190722Y-124387469D01*
X156317748Y-124542252D01*
X156472531Y-124669278D01*
X156649120Y-124763667D01*
X156840731Y-124821792D01*
X156840735Y-124821792D01*
X156840737Y-124821793D01*
X157039997Y-124841418D01*
X157040000Y-124841418D01*
X157040003Y-124841418D01*
X157239261Y-124821793D01*
X157239263Y-124821793D01*
X157239264Y-124821792D01*
X157239269Y-124821792D01*
X157430880Y-124763667D01*
X157607469Y-124669278D01*
X157762252Y-124542252D01*
X157889278Y-124387469D01*
X157983667Y-124210880D01*
X158041792Y-124019269D01*
X158046136Y-123975162D01*
X158061418Y-123820003D01*
X158558582Y-123820003D01*
X158578206Y-124019261D01*
X158578206Y-124019263D01*
X158636332Y-124210877D01*
X158636334Y-124210883D01*
X158730720Y-124387466D01*
X158730722Y-124387469D01*
X158857748Y-124542252D01*
X159012531Y-124669278D01*
X159189120Y-124763667D01*
X159380731Y-124821792D01*
X159380735Y-124821792D01*
X159380737Y-124821793D01*
X159579997Y-124841418D01*
X159580000Y-124841418D01*
X159580003Y-124841418D01*
X159779261Y-124821793D01*
X159779263Y-124821793D01*
X159779264Y-124821792D01*
X159779269Y-124821792D01*
X159970880Y-124763667D01*
X160147469Y-124669278D01*
X160302252Y-124542252D01*
X160429278Y-124387469D01*
X160523667Y-124210880D01*
X160581792Y-124019269D01*
X160586136Y-123975162D01*
X160601418Y-123820003D01*
X160601418Y-123819996D01*
X160581793Y-123620738D01*
X160581793Y-123620736D01*
X160581792Y-123620733D01*
X160581792Y-123620731D01*
X160523667Y-123429120D01*
X160429278Y-123252531D01*
X160302252Y-123097748D01*
X160147469Y-122970722D01*
X160147467Y-122970721D01*
X160147466Y-122970720D01*
X159970883Y-122876334D01*
X159970877Y-122876332D01*
X159805015Y-122826018D01*
X159779269Y-122818208D01*
X159779268Y-122818207D01*
X159779262Y-122818206D01*
X159580003Y-122798582D01*
X159579997Y-122798582D01*
X159380738Y-122818206D01*
X159380736Y-122818206D01*
X159189122Y-122876332D01*
X159189116Y-122876334D01*
X159012533Y-122970720D01*
X158857748Y-123097748D01*
X158730720Y-123252533D01*
X158636334Y-123429116D01*
X158636332Y-123429122D01*
X158578206Y-123620736D01*
X158578206Y-123620738D01*
X158558582Y-123819996D01*
X158558582Y-123820003D01*
X158061418Y-123820003D01*
X158061418Y-123819996D01*
X158041793Y-123620738D01*
X158041792Y-123620735D01*
X158041792Y-123620731D01*
X158002501Y-123491210D01*
X158001868Y-123420218D01*
X158033979Y-123365541D01*
X158532548Y-122866973D01*
X158552717Y-122850595D01*
X158561956Y-122844560D01*
X158584111Y-122816093D01*
X158589277Y-122810244D01*
X158592114Y-122807409D01*
X158605900Y-122788099D01*
X158640158Y-122744085D01*
X158640160Y-122744076D01*
X158643956Y-122737065D01*
X158647470Y-122729876D01*
X158647475Y-122729870D01*
X158656384Y-122699943D01*
X158663390Y-122676412D01*
X158681499Y-122623664D01*
X158682819Y-122615752D01*
X158683805Y-122607842D01*
X158681500Y-122552115D01*
X158681500Y-122100000D01*
X164095034Y-122100000D01*
X164114859Y-122326602D01*
X164173732Y-122546323D01*
X164173734Y-122546328D01*
X164269867Y-122752486D01*
X164320972Y-122825471D01*
X165002045Y-122144399D01*
X165014835Y-122225148D01*
X165072359Y-122338045D01*
X165161955Y-122427641D01*
X165274852Y-122485165D01*
X165355598Y-122497953D01*
X164674527Y-123179024D01*
X164674527Y-123179027D01*
X164747513Y-123230132D01*
X164953671Y-123326265D01*
X164953676Y-123326267D01*
X165173397Y-123385140D01*
X165400000Y-123404965D01*
X165626602Y-123385140D01*
X165846323Y-123326267D01*
X165846328Y-123326265D01*
X165902654Y-123300000D01*
X175395034Y-123300000D01*
X175414859Y-123526602D01*
X175473732Y-123746323D01*
X175473734Y-123746328D01*
X175569867Y-123952486D01*
X175620972Y-124025471D01*
X176302045Y-123344398D01*
X176314835Y-123425148D01*
X176372359Y-123538045D01*
X176461955Y-123627641D01*
X176574852Y-123685165D01*
X176655598Y-123697953D01*
X175974527Y-124379024D01*
X175974527Y-124379027D01*
X176047513Y-124430132D01*
X176253671Y-124526265D01*
X176253676Y-124526267D01*
X176473397Y-124585140D01*
X176700000Y-124604965D01*
X176926602Y-124585140D01*
X177146323Y-124526267D01*
X177146328Y-124526265D01*
X177352482Y-124430134D01*
X177425471Y-124379026D01*
X177425471Y-124379025D01*
X176744400Y-123697953D01*
X176825148Y-123685165D01*
X176938045Y-123627641D01*
X177027641Y-123538045D01*
X177085165Y-123425148D01*
X177097953Y-123344399D01*
X177779025Y-124025471D01*
X177779026Y-124025471D01*
X177830134Y-123952482D01*
X177926265Y-123746328D01*
X177926267Y-123746323D01*
X177985140Y-123526602D01*
X178004965Y-123300000D01*
X177985140Y-123073397D01*
X177926267Y-122853676D01*
X177926265Y-122853671D01*
X177830132Y-122647513D01*
X177779027Y-122574527D01*
X177779024Y-122574527D01*
X177097953Y-123255598D01*
X177085165Y-123174852D01*
X177027641Y-123061955D01*
X176938045Y-122972359D01*
X176825148Y-122914835D01*
X176744399Y-122902046D01*
X177425471Y-122220972D01*
X177425471Y-122220971D01*
X177352486Y-122169867D01*
X177191276Y-122094694D01*
X177137991Y-122047777D01*
X177118530Y-121979499D01*
X177139072Y-121911540D01*
X177193095Y-121865474D01*
X177244525Y-121854499D01*
X177525066Y-121854499D01*
X177525069Y-121854498D01*
X177525073Y-121854498D01*
X177574326Y-121844701D01*
X177599301Y-121839734D01*
X177683484Y-121783484D01*
X177739734Y-121699301D01*
X177754500Y-121625067D01*
X177754499Y-119974934D01*
X177754498Y-119974930D01*
X177754498Y-119974926D01*
X177739734Y-119900699D01*
X177683483Y-119816515D01*
X177599302Y-119760266D01*
X177525067Y-119745500D01*
X175874936Y-119745500D01*
X175874926Y-119745501D01*
X175800699Y-119760265D01*
X175716515Y-119816516D01*
X175660266Y-119900697D01*
X175645500Y-119974930D01*
X175645500Y-121625063D01*
X175645501Y-121625073D01*
X175660265Y-121699300D01*
X175716516Y-121783484D01*
X175800697Y-121839733D01*
X175800699Y-121839734D01*
X175874933Y-121854500D01*
X176155474Y-121854499D01*
X176223592Y-121874501D01*
X176270085Y-121928156D01*
X176280190Y-121998430D01*
X176250697Y-122063011D01*
X176208723Y-122094693D01*
X176047518Y-122169865D01*
X176047516Y-122169866D01*
X175974526Y-122220973D01*
X176655599Y-122902046D01*
X176574852Y-122914835D01*
X176461955Y-122972359D01*
X176372359Y-123061955D01*
X176314835Y-123174852D01*
X176302046Y-123255599D01*
X175620973Y-122574526D01*
X175569867Y-122647515D01*
X175473734Y-122853672D01*
X175473732Y-122853676D01*
X175414859Y-123073397D01*
X175395034Y-123300000D01*
X165902654Y-123300000D01*
X166052482Y-123230134D01*
X166125471Y-123179026D01*
X166125471Y-123179025D01*
X165444400Y-122497953D01*
X165525148Y-122485165D01*
X165638045Y-122427641D01*
X165727641Y-122338045D01*
X165785165Y-122225148D01*
X165797953Y-122144400D01*
X166479024Y-122825471D01*
X166479026Y-122825471D01*
X166530134Y-122752482D01*
X166626265Y-122546328D01*
X166626267Y-122546323D01*
X166685140Y-122326602D01*
X166704965Y-122100000D01*
X166685140Y-121873397D01*
X166626267Y-121653676D01*
X166626265Y-121653671D01*
X166530133Y-121447516D01*
X166399664Y-121261187D01*
X166399659Y-121261181D01*
X166391818Y-121253340D01*
X166357792Y-121191028D01*
X166362857Y-121120213D01*
X166378870Y-121095326D01*
X166376590Y-121093802D01*
X166439733Y-120999302D01*
X166439732Y-120999302D01*
X166439734Y-120999301D01*
X166454500Y-120925067D01*
X166454499Y-119274934D01*
X166454498Y-119274930D01*
X166454498Y-119274926D01*
X166439734Y-119200699D01*
X166383483Y-119116515D01*
X166299302Y-119060266D01*
X166225067Y-119045500D01*
X164574936Y-119045500D01*
X164574926Y-119045501D01*
X164500699Y-119060265D01*
X164416515Y-119116516D01*
X164360266Y-119200697D01*
X164345500Y-119274930D01*
X164345500Y-120925063D01*
X164345501Y-120925073D01*
X164360265Y-120999300D01*
X164423411Y-121093803D01*
X164419714Y-121096272D01*
X164442206Y-121137461D01*
X164437141Y-121208276D01*
X164408188Y-121253332D01*
X164400337Y-121261183D01*
X164269866Y-121447516D01*
X164173734Y-121653671D01*
X164173732Y-121653676D01*
X164114859Y-121873397D01*
X164095034Y-122100000D01*
X158681500Y-122100000D01*
X158681500Y-117044013D01*
X158701502Y-116975892D01*
X158755158Y-116929399D01*
X158825432Y-116919295D01*
X158887431Y-116946612D01*
X159012531Y-117049278D01*
X159012533Y-117049279D01*
X159180474Y-117139046D01*
X159189120Y-117143667D01*
X159380731Y-117201792D01*
X159380735Y-117201792D01*
X159380737Y-117201793D01*
X159579997Y-117221418D01*
X159580000Y-117221418D01*
X159580003Y-117221418D01*
X159779261Y-117201793D01*
X159779263Y-117201793D01*
X159779264Y-117201792D01*
X159779269Y-117201792D01*
X159970880Y-117143667D01*
X160147469Y-117049278D01*
X160302252Y-116922252D01*
X160429278Y-116767469D01*
X160523667Y-116590880D01*
X160581792Y-116399269D01*
X160588949Y-116326602D01*
X160601418Y-116200003D01*
X160601418Y-116199996D01*
X160591569Y-116100000D01*
X167895034Y-116100000D01*
X167914859Y-116326602D01*
X167973732Y-116546323D01*
X167973734Y-116546328D01*
X168069867Y-116752486D01*
X168120972Y-116825471D01*
X168802045Y-116144398D01*
X168814835Y-116225148D01*
X168872359Y-116338045D01*
X168961955Y-116427641D01*
X169074852Y-116485165D01*
X169155598Y-116497953D01*
X168474527Y-117179024D01*
X168474527Y-117179027D01*
X168547513Y-117230132D01*
X168753671Y-117326265D01*
X168753676Y-117326267D01*
X168973397Y-117385140D01*
X169200000Y-117404965D01*
X169426602Y-117385140D01*
X169646323Y-117326267D01*
X169646328Y-117326265D01*
X169852482Y-117230134D01*
X169925471Y-117179026D01*
X169925471Y-117179025D01*
X169244400Y-116497953D01*
X169325148Y-116485165D01*
X169438045Y-116427641D01*
X169527641Y-116338045D01*
X169585165Y-116225148D01*
X169597953Y-116144400D01*
X170279024Y-116825471D01*
X170279026Y-116825471D01*
X170330134Y-116752482D01*
X170426265Y-116546328D01*
X170426267Y-116546323D01*
X170485140Y-116326602D01*
X170504965Y-116100003D01*
X175760398Y-116100003D01*
X175780756Y-116306711D01*
X175841055Y-116505492D01*
X175938974Y-116688686D01*
X176070747Y-116849252D01*
X176231313Y-116981024D01*
X176231313Y-116981025D01*
X176231317Y-116981027D01*
X176414508Y-117078945D01*
X176613282Y-117139242D01*
X176613286Y-117139242D01*
X176613288Y-117139243D01*
X176819997Y-117159602D01*
X176820000Y-117159602D01*
X176820003Y-117159602D01*
X177026711Y-117139243D01*
X177026712Y-117139242D01*
X177026718Y-117139242D01*
X177225492Y-117078945D01*
X177408683Y-116981027D01*
X177408684Y-116981025D01*
X177408686Y-116981025D01*
X177408686Y-116981024D01*
X177569252Y-116849252D01*
X177701027Y-116688683D01*
X177798945Y-116505492D01*
X177859242Y-116306718D01*
X177869754Y-116199996D01*
X177879602Y-116100003D01*
X177879602Y-116099996D01*
X177859243Y-115893288D01*
X177859242Y-115893286D01*
X177859242Y-115893282D01*
X177798945Y-115694508D01*
X177701027Y-115511317D01*
X177701025Y-115511313D01*
X177569252Y-115350747D01*
X177408686Y-115218975D01*
X177408686Y-115218974D01*
X177225492Y-115121055D01*
X177026711Y-115060756D01*
X176820003Y-115040398D01*
X176819997Y-115040398D01*
X176613288Y-115060756D01*
X176414507Y-115121055D01*
X176231313Y-115218974D01*
X176231313Y-115218975D01*
X176070747Y-115350747D01*
X175938975Y-115511313D01*
X175938974Y-115511313D01*
X175841055Y-115694507D01*
X175780756Y-115893288D01*
X175760398Y-116099996D01*
X175760398Y-116100003D01*
X170504965Y-116100003D01*
X170504965Y-116100000D01*
X170485140Y-115873397D01*
X170426267Y-115653676D01*
X170426265Y-115653671D01*
X170330132Y-115447513D01*
X170279026Y-115374527D01*
X169597953Y-116055598D01*
X169585165Y-115974852D01*
X169527641Y-115861955D01*
X169438045Y-115772359D01*
X169325148Y-115714835D01*
X169244399Y-115702046D01*
X169925471Y-115020972D01*
X169925471Y-115020971D01*
X169852486Y-114969867D01*
X169646328Y-114873734D01*
X169646323Y-114873732D01*
X169426602Y-114814859D01*
X169200000Y-114795034D01*
X168973397Y-114814859D01*
X168753676Y-114873732D01*
X168753672Y-114873734D01*
X168547515Y-114969867D01*
X168474526Y-115020973D01*
X169155599Y-115702046D01*
X169074852Y-115714835D01*
X168961955Y-115772359D01*
X168872359Y-115861955D01*
X168814835Y-115974852D01*
X168802046Y-116055600D01*
X168120972Y-115374526D01*
X168069867Y-115447515D01*
X167973734Y-115653672D01*
X167973732Y-115653676D01*
X167914859Y-115873397D01*
X167895034Y-116100000D01*
X160591569Y-116100000D01*
X160581793Y-116000738D01*
X160581793Y-116000736D01*
X160581792Y-116000733D01*
X160581792Y-116000731D01*
X160523667Y-115809120D01*
X160429278Y-115632531D01*
X160302252Y-115477748D01*
X160147469Y-115350722D01*
X160147467Y-115350721D01*
X160147466Y-115350720D01*
X159970883Y-115256334D01*
X159970877Y-115256332D01*
X159847725Y-115218974D01*
X159779269Y-115198208D01*
X159779268Y-115198207D01*
X159779262Y-115198206D01*
X159580003Y-115178582D01*
X159579997Y-115178582D01*
X159380738Y-115198206D01*
X159380736Y-115198206D01*
X159189122Y-115256332D01*
X159189116Y-115256334D01*
X159012533Y-115350720D01*
X158887433Y-115453386D01*
X158822085Y-115481139D01*
X158752107Y-115469157D01*
X158699716Y-115421243D01*
X158681500Y-115355986D01*
X158681500Y-114152634D01*
X158684182Y-114126774D01*
X158686445Y-114115984D01*
X158681983Y-114080190D01*
X158681500Y-114072400D01*
X158681500Y-114068394D01*
X158681500Y-114068389D01*
X158677595Y-114044993D01*
X158670696Y-113989640D01*
X158670694Y-113989635D01*
X158668414Y-113981975D01*
X158665819Y-113974415D01*
X158639276Y-113925368D01*
X158614776Y-113875252D01*
X158610147Y-113868768D01*
X158605220Y-113862438D01*
X158564192Y-113824669D01*
X156818405Y-112078881D01*
X156784379Y-112016569D01*
X156781500Y-111989786D01*
X156781500Y-110510003D01*
X158040398Y-110510003D01*
X158060756Y-110716711D01*
X158060757Y-110716717D01*
X158060758Y-110716718D01*
X158121055Y-110915491D01*
X158121055Y-110915492D01*
X158218974Y-111098686D01*
X158350747Y-111259252D01*
X158511313Y-111391024D01*
X158511313Y-111391025D01*
X158538379Y-111405492D01*
X158694508Y-111488945D01*
X158893282Y-111549242D01*
X158893286Y-111549242D01*
X158893288Y-111549243D01*
X159099997Y-111569602D01*
X159100000Y-111569602D01*
X159100003Y-111569602D01*
X159306711Y-111549243D01*
X159306712Y-111549242D01*
X159306718Y-111549242D01*
X159505492Y-111488945D01*
X159688683Y-111391027D01*
X159688684Y-111391025D01*
X159688686Y-111391025D01*
X159688686Y-111391024D01*
X159849252Y-111259252D01*
X159981027Y-111098683D01*
X160078945Y-110915492D01*
X160139242Y-110716718D01*
X160149753Y-110610003D01*
X162640398Y-110610003D01*
X162660756Y-110816711D01*
X162660757Y-110816717D01*
X162660758Y-110816718D01*
X162721054Y-111015492D01*
X162721055Y-111015492D01*
X162818974Y-111198686D01*
X162950747Y-111359252D01*
X163111313Y-111491024D01*
X163111313Y-111491025D01*
X163126130Y-111498945D01*
X163294508Y-111588945D01*
X163493282Y-111649242D01*
X163493286Y-111649242D01*
X163493288Y-111649243D01*
X163699997Y-111669602D01*
X163700000Y-111669602D01*
X163700003Y-111669602D01*
X163906711Y-111649243D01*
X163906712Y-111649242D01*
X163906718Y-111649242D01*
X164105492Y-111588945D01*
X164288683Y-111491027D01*
X164288684Y-111491025D01*
X164288686Y-111491025D01*
X164288686Y-111491024D01*
X164449252Y-111359252D01*
X164581027Y-111198683D01*
X164678945Y-111015492D01*
X164739242Y-110816718D01*
X164741551Y-110793282D01*
X164759602Y-110610003D01*
X164759602Y-110609996D01*
X164750738Y-110520003D01*
X167240398Y-110520003D01*
X167260756Y-110726711D01*
X167321055Y-110925492D01*
X167418974Y-111108686D01*
X167550747Y-111269252D01*
X167711313Y-111401024D01*
X167711313Y-111401025D01*
X167711317Y-111401027D01*
X167894508Y-111498945D01*
X168093282Y-111559242D01*
X168093286Y-111559242D01*
X168093288Y-111559243D01*
X168299997Y-111579602D01*
X168300000Y-111579602D01*
X168300003Y-111579602D01*
X168506711Y-111559243D01*
X168506712Y-111559242D01*
X168506718Y-111559242D01*
X168705492Y-111498945D01*
X168888683Y-111401027D01*
X168888684Y-111401025D01*
X168888686Y-111401025D01*
X168888686Y-111401024D01*
X169049252Y-111269252D01*
X169181027Y-111108683D01*
X169278945Y-110925492D01*
X169339242Y-110726718D01*
X169339904Y-110720003D01*
X171940398Y-110720003D01*
X171960756Y-110926711D01*
X171960757Y-110926717D01*
X171960758Y-110926718D01*
X171982988Y-111000000D01*
X172021055Y-111125492D01*
X172118974Y-111308686D01*
X172250747Y-111469252D01*
X172411313Y-111601024D01*
X172411313Y-111601025D01*
X172411317Y-111601027D01*
X172594508Y-111698945D01*
X172793282Y-111759242D01*
X172793286Y-111759242D01*
X172793288Y-111759243D01*
X172999997Y-111779602D01*
X173000000Y-111779602D01*
X173000003Y-111779602D01*
X173206711Y-111759243D01*
X173206712Y-111759242D01*
X173206718Y-111759242D01*
X173405492Y-111698945D01*
X173588683Y-111601027D01*
X173588684Y-111601025D01*
X173588686Y-111601025D01*
X173588686Y-111601024D01*
X173749252Y-111469252D01*
X173881027Y-111308683D01*
X173978945Y-111125492D01*
X174017011Y-111000003D01*
X177240398Y-111000003D01*
X177260756Y-111206711D01*
X177321055Y-111405492D01*
X177418974Y-111588686D01*
X177550747Y-111749252D01*
X177711313Y-111881024D01*
X177711313Y-111881025D01*
X177711317Y-111881027D01*
X177894508Y-111978945D01*
X178093282Y-112039242D01*
X178093286Y-112039242D01*
X178093288Y-112039243D01*
X178299997Y-112059602D01*
X178300000Y-112059602D01*
X178300003Y-112059602D01*
X178506711Y-112039243D01*
X178506712Y-112039242D01*
X178506718Y-112039242D01*
X178705492Y-111978945D01*
X178888683Y-111881027D01*
X178888684Y-111881025D01*
X178888686Y-111881025D01*
X178888686Y-111881024D01*
X179049252Y-111749252D01*
X179181027Y-111588683D01*
X179278945Y-111405492D01*
X179339242Y-111206718D01*
X179340034Y-111198683D01*
X179359602Y-111000003D01*
X179359602Y-110999996D01*
X179339243Y-110793288D01*
X179339242Y-110793286D01*
X179339242Y-110793282D01*
X179278945Y-110594508D01*
X179181027Y-110411317D01*
X179181025Y-110411313D01*
X179049252Y-110250747D01*
X178888686Y-110118975D01*
X178888686Y-110118974D01*
X178705492Y-110021055D01*
X178539651Y-109970748D01*
X178506718Y-109960758D01*
X178506717Y-109960757D01*
X178506711Y-109960756D01*
X178300003Y-109940398D01*
X178299997Y-109940398D01*
X178093288Y-109960756D01*
X177894507Y-110021055D01*
X177711313Y-110118974D01*
X177711313Y-110118975D01*
X177550747Y-110250747D01*
X177418975Y-110411313D01*
X177418974Y-110411313D01*
X177321055Y-110594507D01*
X177260756Y-110793288D01*
X177240398Y-110999996D01*
X177240398Y-111000003D01*
X174017011Y-111000003D01*
X174039242Y-110926718D01*
X174052385Y-110793282D01*
X174059602Y-110720003D01*
X174059602Y-110719996D01*
X174039243Y-110513288D01*
X174039242Y-110513286D01*
X174039242Y-110513282D01*
X173978945Y-110314508D01*
X173881027Y-110131317D01*
X173881025Y-110131313D01*
X173749252Y-109970747D01*
X173588686Y-109838975D01*
X173588686Y-109838974D01*
X173405492Y-109741055D01*
X173206711Y-109680756D01*
X173000003Y-109660398D01*
X172999997Y-109660398D01*
X172793288Y-109680756D01*
X172594507Y-109741055D01*
X172411313Y-109838974D01*
X172411313Y-109838975D01*
X172250747Y-109970747D01*
X172118975Y-110131313D01*
X172118974Y-110131313D01*
X172021055Y-110314507D01*
X171960756Y-110513288D01*
X171940398Y-110719996D01*
X171940398Y-110720003D01*
X169339904Y-110720003D01*
X169359602Y-110520003D01*
X169359602Y-110519996D01*
X169339243Y-110313288D01*
X169339242Y-110313286D01*
X169339242Y-110313282D01*
X169278945Y-110114508D01*
X169181027Y-109931317D01*
X169181025Y-109931313D01*
X169049252Y-109770747D01*
X168888686Y-109638975D01*
X168888686Y-109638974D01*
X168705492Y-109541055D01*
X168506711Y-109480756D01*
X168300003Y-109460398D01*
X168299997Y-109460398D01*
X168093288Y-109480756D01*
X167894507Y-109541055D01*
X167711313Y-109638974D01*
X167711313Y-109638975D01*
X167550747Y-109770747D01*
X167418975Y-109931313D01*
X167418974Y-109931313D01*
X167321055Y-110114507D01*
X167260756Y-110313288D01*
X167240398Y-110519996D01*
X167240398Y-110520003D01*
X164750738Y-110520003D01*
X164739243Y-110403288D01*
X164739242Y-110403286D01*
X164739242Y-110403282D01*
X164678945Y-110204508D01*
X164581027Y-110021317D01*
X164581025Y-110021313D01*
X164449252Y-109860747D01*
X164288686Y-109728975D01*
X164288686Y-109728974D01*
X164105492Y-109631055D01*
X163906711Y-109570756D01*
X163700003Y-109550398D01*
X163699997Y-109550398D01*
X163493288Y-109570756D01*
X163294507Y-109631055D01*
X163111313Y-109728974D01*
X163111313Y-109728975D01*
X162950747Y-109860747D01*
X162818975Y-110021313D01*
X162818974Y-110021313D01*
X162721055Y-110204507D01*
X162660756Y-110403288D01*
X162640398Y-110609996D01*
X162640398Y-110610003D01*
X160149753Y-110610003D01*
X160149754Y-110609996D01*
X160159602Y-110510003D01*
X160159602Y-110509996D01*
X160139243Y-110303290D01*
X160139242Y-110303288D01*
X160139242Y-110303282D01*
X160092968Y-110150739D01*
X160092336Y-110079748D01*
X160124447Y-110025073D01*
X163932542Y-106216978D01*
X163952718Y-106200594D01*
X163961956Y-106194560D01*
X163984114Y-106166089D01*
X163989282Y-106160238D01*
X163992113Y-106157409D01*
X164005891Y-106138110D01*
X164040158Y-106094085D01*
X164040158Y-106094082D01*
X164043957Y-106087064D01*
X164047471Y-106079874D01*
X164047475Y-106079870D01*
X164050026Y-106071300D01*
X164063391Y-106026410D01*
X164081499Y-105973664D01*
X164082819Y-105965749D01*
X164083805Y-105957843D01*
X164081500Y-105902116D01*
X164081500Y-104057289D01*
X164101502Y-103989168D01*
X164148102Y-103946168D01*
X164288683Y-103871027D01*
X164449252Y-103739252D01*
X164581027Y-103578683D01*
X164678945Y-103395492D01*
X164739242Y-103196718D01*
X164741551Y-103173282D01*
X164759602Y-102990003D01*
X164759602Y-102989996D01*
X164750738Y-102900003D01*
X167240398Y-102900003D01*
X167260756Y-103106711D01*
X167321055Y-103305492D01*
X167418974Y-103488686D01*
X167550747Y-103649252D01*
X167711313Y-103781024D01*
X167711313Y-103781025D01*
X167711317Y-103781027D01*
X167894508Y-103878945D01*
X168093282Y-103939242D01*
X168093286Y-103939242D01*
X168093288Y-103939243D01*
X168299997Y-103959602D01*
X168300000Y-103959602D01*
X168300003Y-103959602D01*
X168506711Y-103939243D01*
X168506712Y-103939242D01*
X168506718Y-103939242D01*
X168705492Y-103878945D01*
X168888683Y-103781027D01*
X168888684Y-103781025D01*
X168888686Y-103781025D01*
X168888686Y-103781024D01*
X169049252Y-103649252D01*
X169181027Y-103488683D01*
X169278945Y-103305492D01*
X169339242Y-103106718D01*
X169339904Y-103100003D01*
X169359602Y-102900003D01*
X169359602Y-102899996D01*
X169339243Y-102693288D01*
X169339242Y-102693286D01*
X169339242Y-102693282D01*
X169278945Y-102494508D01*
X169181027Y-102311317D01*
X169181025Y-102311313D01*
X169049252Y-102150747D01*
X168888686Y-102018975D01*
X168888686Y-102018974D01*
X168705492Y-101921055D01*
X168586146Y-101884852D01*
X168506718Y-101860758D01*
X168506717Y-101860757D01*
X168506711Y-101860756D01*
X168300003Y-101840398D01*
X168299997Y-101840398D01*
X168093288Y-101860756D01*
X167894507Y-101921055D01*
X167711313Y-102018974D01*
X167711313Y-102018975D01*
X167550747Y-102150747D01*
X167418975Y-102311313D01*
X167418974Y-102311313D01*
X167321055Y-102494507D01*
X167260756Y-102693288D01*
X167240398Y-102899996D01*
X167240398Y-102900003D01*
X164750738Y-102900003D01*
X164739243Y-102783288D01*
X164739242Y-102783286D01*
X164739242Y-102783282D01*
X164678945Y-102584508D01*
X164581027Y-102401317D01*
X164581025Y-102401313D01*
X164449252Y-102240747D01*
X164288686Y-102108975D01*
X164288686Y-102108974D01*
X164105492Y-102011055D01*
X163906711Y-101950756D01*
X163700003Y-101930398D01*
X163699997Y-101930398D01*
X163493288Y-101950756D01*
X163294507Y-102011055D01*
X163111313Y-102108974D01*
X163111313Y-102108975D01*
X162950747Y-102240747D01*
X162818975Y-102401313D01*
X162818974Y-102401313D01*
X162721055Y-102584507D01*
X162660756Y-102783288D01*
X162640398Y-102989996D01*
X162640398Y-102990003D01*
X162660756Y-103196711D01*
X162660757Y-103196717D01*
X162660758Y-103196718D01*
X162721054Y-103395492D01*
X162721055Y-103395492D01*
X162818974Y-103578686D01*
X162950747Y-103739252D01*
X163108780Y-103868945D01*
X163111317Y-103871027D01*
X163251896Y-103946168D01*
X163302544Y-103995919D01*
X163318500Y-104057289D01*
X163318500Y-105699786D01*
X163298498Y-105767907D01*
X163281595Y-105788881D01*
X159584926Y-109485549D01*
X159522614Y-109519575D01*
X159459256Y-109517029D01*
X159306711Y-109470756D01*
X159100003Y-109450398D01*
X159099997Y-109450398D01*
X158893288Y-109470756D01*
X158694507Y-109531055D01*
X158511313Y-109628974D01*
X158511313Y-109628975D01*
X158350747Y-109760747D01*
X158218975Y-109921313D01*
X158218974Y-109921313D01*
X158121055Y-110104507D01*
X158060756Y-110303288D01*
X158040398Y-110509996D01*
X158040398Y-110510003D01*
X156781500Y-110510003D01*
X156781500Y-102890003D01*
X158040398Y-102890003D01*
X158060756Y-103096711D01*
X158060757Y-103096717D01*
X158060758Y-103096718D01*
X158103166Y-103236518D01*
X158121055Y-103295492D01*
X158218974Y-103478686D01*
X158350747Y-103639252D01*
X158511313Y-103771024D01*
X158511313Y-103771025D01*
X158538379Y-103785492D01*
X158694508Y-103868945D01*
X158893282Y-103929242D01*
X158893286Y-103929242D01*
X158893288Y-103929243D01*
X159099997Y-103949602D01*
X159100000Y-103949602D01*
X159100003Y-103949602D01*
X159306711Y-103929243D01*
X159306712Y-103929242D01*
X159306718Y-103929242D01*
X159505492Y-103868945D01*
X159688683Y-103771027D01*
X159688684Y-103771025D01*
X159688686Y-103771025D01*
X159688686Y-103771024D01*
X159849252Y-103639252D01*
X159981027Y-103478683D01*
X160078945Y-103295492D01*
X160139242Y-103096718D01*
X160149754Y-102989996D01*
X160159602Y-102890003D01*
X160159602Y-102889996D01*
X160139243Y-102683288D01*
X160139242Y-102683286D01*
X160139242Y-102683282D01*
X160078945Y-102484508D01*
X159981027Y-102301317D01*
X159981025Y-102301313D01*
X159849252Y-102140747D01*
X159688686Y-102008975D01*
X159688686Y-102008974D01*
X159505492Y-101911055D01*
X159505491Y-101911055D01*
X159306718Y-101850758D01*
X159306717Y-101850757D01*
X159306711Y-101850756D01*
X159100003Y-101830398D01*
X159099997Y-101830398D01*
X158893288Y-101850756D01*
X158694507Y-101911055D01*
X158511313Y-102008974D01*
X158511313Y-102008975D01*
X158350747Y-102140747D01*
X158218975Y-102301313D01*
X158218974Y-102301313D01*
X158121055Y-102484507D01*
X158060756Y-102683288D01*
X158040398Y-102889996D01*
X158040398Y-102890003D01*
X156781500Y-102890003D01*
X156781500Y-101610212D01*
X156801502Y-101542091D01*
X156818405Y-101521117D01*
X158430177Y-99909345D01*
X160115074Y-98224447D01*
X160177384Y-98190423D01*
X160240738Y-98192968D01*
X160393282Y-98239242D01*
X160393288Y-98239242D01*
X160393290Y-98239243D01*
X160599997Y-98259602D01*
X160600000Y-98259602D01*
X160600003Y-98259602D01*
X160806711Y-98239243D01*
X160806712Y-98239242D01*
X160806718Y-98239242D01*
X161005492Y-98178945D01*
X161188683Y-98081027D01*
X161188684Y-98081025D01*
X161188686Y-98081025D01*
X161188686Y-98081024D01*
X161349252Y-97949252D01*
X161481027Y-97788683D01*
X161578945Y-97605492D01*
X161639242Y-97406718D01*
X161654678Y-97250000D01*
X161659602Y-97200003D01*
X167160398Y-97200003D01*
X167180756Y-97406711D01*
X167241055Y-97605492D01*
X167338974Y-97788686D01*
X167470747Y-97949252D01*
X167631313Y-98081024D01*
X167631313Y-98081025D01*
X167631317Y-98081027D01*
X167814508Y-98178945D01*
X168013282Y-98239242D01*
X168013286Y-98239242D01*
X168013288Y-98239243D01*
X168219997Y-98259602D01*
X168220000Y-98259602D01*
X168220003Y-98259602D01*
X168426711Y-98239243D01*
X168426712Y-98239242D01*
X168426718Y-98239242D01*
X168625492Y-98178945D01*
X168808683Y-98081027D01*
X168808684Y-98081025D01*
X168808686Y-98081025D01*
X168808686Y-98081024D01*
X168969252Y-97949252D01*
X169101027Y-97788683D01*
X169198945Y-97605492D01*
X169259242Y-97406718D01*
X169274678Y-97250000D01*
X169279602Y-97200003D01*
X169279602Y-97199996D01*
X169259243Y-96993288D01*
X169259242Y-96993286D01*
X169259242Y-96993282D01*
X169198945Y-96794508D01*
X169101027Y-96611317D01*
X169101025Y-96611313D01*
X168969252Y-96450747D01*
X168808686Y-96318975D01*
X168808686Y-96318974D01*
X168625492Y-96221055D01*
X168426711Y-96160756D01*
X168220003Y-96140398D01*
X168219997Y-96140398D01*
X168013288Y-96160756D01*
X167814507Y-96221055D01*
X167631313Y-96318974D01*
X167631313Y-96318975D01*
X167470747Y-96450747D01*
X167338975Y-96611313D01*
X167338974Y-96611313D01*
X167241055Y-96794507D01*
X167180756Y-96993288D01*
X167160398Y-97199996D01*
X167160398Y-97200003D01*
X161659602Y-97200003D01*
X161659602Y-97199996D01*
X161639243Y-96993288D01*
X161639242Y-96993286D01*
X161639242Y-96993282D01*
X161578945Y-96794508D01*
X161481027Y-96611317D01*
X161481025Y-96611313D01*
X161349252Y-96450747D01*
X161188686Y-96318975D01*
X161188686Y-96318974D01*
X161005492Y-96221055D01*
X160806711Y-96160756D01*
X160600003Y-96140398D01*
X160599997Y-96140398D01*
X160393288Y-96160756D01*
X160194507Y-96221055D01*
X160011313Y-96318974D01*
X160011313Y-96318975D01*
X159850747Y-96450747D01*
X159718975Y-96611313D01*
X159718974Y-96611313D01*
X159621055Y-96794507D01*
X159560756Y-96993288D01*
X159540398Y-97199996D01*
X159540398Y-97200003D01*
X159560756Y-97406711D01*
X159607029Y-97559257D01*
X159607662Y-97630251D01*
X159575549Y-97684927D01*
X156167455Y-101093020D01*
X156147282Y-101109404D01*
X156138041Y-101115441D01*
X156115896Y-101143893D01*
X156110736Y-101149738D01*
X156107892Y-101152583D01*
X156094099Y-101171900D01*
X156059840Y-101215916D01*
X156056030Y-101222958D01*
X156052524Y-101230129D01*
X156036610Y-101283586D01*
X156018499Y-101336339D01*
X156017184Y-101344218D01*
X156016194Y-101352160D01*
X156018500Y-101407884D01*
X156018500Y-112147366D01*
X156015818Y-112173223D01*
X156013554Y-112184016D01*
X156016110Y-112204518D01*
X156018016Y-112219809D01*
X156018500Y-112227600D01*
X156018500Y-112231615D01*
X156018499Y-112231615D01*
X156022403Y-112255003D01*
X156029303Y-112310357D01*
X156031588Y-112318032D01*
X156034180Y-112325582D01*
X156034181Y-112325585D01*
X156034182Y-112325586D01*
X156060729Y-112374641D01*
X156085224Y-112424746D01*
X156085225Y-112424748D01*
X156089868Y-112431251D01*
X156094782Y-112437565D01*
X156135819Y-112475341D01*
X157881595Y-114221117D01*
X157915620Y-114283429D01*
X157918500Y-114310212D01*
X157918500Y-115339573D01*
X157898498Y-115407694D01*
X157844842Y-115454187D01*
X157774568Y-115464291D01*
X157712567Y-115436973D01*
X157676890Y-115407694D01*
X157607469Y-115350722D01*
X157607467Y-115350721D01*
X157607466Y-115350720D01*
X157430883Y-115256334D01*
X157430877Y-115256332D01*
X157307725Y-115218974D01*
X157239269Y-115198208D01*
X157239268Y-115198207D01*
X157239262Y-115198206D01*
X157040003Y-115178582D01*
X157039997Y-115178582D01*
X156840738Y-115198206D01*
X156840736Y-115198206D01*
X156649122Y-115256332D01*
X156649116Y-115256334D01*
X156472533Y-115350720D01*
X156317748Y-115477748D01*
X156190720Y-115632533D01*
X156096334Y-115809116D01*
X156096332Y-115809122D01*
X156038206Y-116000736D01*
X156038206Y-116000738D01*
X156018582Y-116199996D01*
X156018582Y-116200003D01*
X156038206Y-116399261D01*
X156038207Y-116399266D01*
X156077497Y-116528789D01*
X156078130Y-116599783D01*
X156046017Y-116654459D01*
X154267455Y-118433020D01*
X154247282Y-118449404D01*
X154238041Y-118455441D01*
X154215896Y-118483893D01*
X154210736Y-118489738D01*
X154207892Y-118492583D01*
X154194099Y-118511900D01*
X154159840Y-118555916D01*
X154156030Y-118562958D01*
X154152524Y-118570129D01*
X154136610Y-118623586D01*
X154118499Y-118676339D01*
X154117184Y-118684218D01*
X154116194Y-118692160D01*
X154118500Y-118747884D01*
X154118500Y-122795797D01*
X154098498Y-122863918D01*
X154051897Y-122906919D01*
X154000822Y-122934219D01*
X153932531Y-122970722D01*
X153807420Y-123073397D01*
X153777748Y-123097748D01*
X153650720Y-123252533D01*
X153556334Y-123429116D01*
X153556332Y-123429122D01*
X153498206Y-123620736D01*
X153498206Y-123620738D01*
X153478581Y-123819999D01*
X153226819Y-123819999D01*
X153207574Y-123600021D01*
X153150422Y-123386723D01*
X153150420Y-123386718D01*
X153057098Y-123186589D01*
X153011741Y-123121812D01*
X152344903Y-123788648D01*
X152344949Y-123788102D01*
X152313734Y-123664838D01*
X152244187Y-123558388D01*
X152143843Y-123480287D01*
X152023578Y-123439000D01*
X151987446Y-123439000D01*
X152658186Y-122768258D01*
X152593407Y-122722899D01*
X152393281Y-122629579D01*
X152393276Y-122629577D01*
X152179979Y-122572425D01*
X151960000Y-122553179D01*
X151740020Y-122572425D01*
X151526723Y-122629577D01*
X151526719Y-122629579D01*
X151326588Y-122722902D01*
X151261811Y-122768258D01*
X151932553Y-123439000D01*
X151928431Y-123439000D01*
X151834579Y-123454661D01*
X151722749Y-123515180D01*
X151636629Y-123608731D01*
X151585552Y-123725177D01*
X151579894Y-123793446D01*
X150908258Y-123121811D01*
X150862902Y-123186588D01*
X150769579Y-123386719D01*
X150769577Y-123386723D01*
X150712425Y-123600020D01*
X150693179Y-123820000D01*
X127000500Y-123820000D01*
X127000500Y-121508540D01*
X136815000Y-121508540D01*
X136821400Y-121568071D01*
X136871647Y-121702789D01*
X136957810Y-121817889D01*
X137072910Y-121904052D01*
X137207628Y-121954299D01*
X137267159Y-121960699D01*
X137267176Y-121960700D01*
X138150000Y-121960700D01*
X138150000Y-120905346D01*
X138247284Y-120945643D01*
X138361656Y-120960700D01*
X138438344Y-120960700D01*
X138552716Y-120945643D01*
X138650000Y-120905346D01*
X138650000Y-121960700D01*
X139532824Y-121960700D01*
X139532840Y-121960699D01*
X139592371Y-121954299D01*
X139727089Y-121904052D01*
X139842189Y-121817889D01*
X139928352Y-121702789D01*
X139978599Y-121568071D01*
X139984999Y-121508540D01*
X139985000Y-121508523D01*
X139985000Y-120625700D01*
X138929647Y-120625700D01*
X138969943Y-120528416D01*
X138990048Y-120375700D01*
X138969943Y-120222984D01*
X138929647Y-120125700D01*
X139985000Y-120125700D01*
X139985000Y-119242876D01*
X139984999Y-119242859D01*
X139978599Y-119183328D01*
X139928352Y-119048610D01*
X139842189Y-118933510D01*
X139727089Y-118847347D01*
X139592371Y-118797100D01*
X139532840Y-118790700D01*
X138650000Y-118790700D01*
X138650000Y-119846053D01*
X138552716Y-119805757D01*
X138438344Y-119790700D01*
X138361656Y-119790700D01*
X138247284Y-119805757D01*
X138150000Y-119846053D01*
X138150000Y-118790700D01*
X137267159Y-118790700D01*
X137207628Y-118797100D01*
X137072910Y-118847347D01*
X136957810Y-118933510D01*
X136871647Y-119048610D01*
X136821400Y-119183328D01*
X136815000Y-119242859D01*
X136815000Y-120125700D01*
X137870353Y-120125700D01*
X137830057Y-120222984D01*
X137809952Y-120375700D01*
X137830057Y-120528416D01*
X137870353Y-120625700D01*
X136815000Y-120625700D01*
X136815000Y-121508540D01*
X127000500Y-121508540D01*
X127000500Y-116200003D01*
X150938582Y-116200003D01*
X150958206Y-116399261D01*
X150958206Y-116399263D01*
X151016332Y-116590877D01*
X151016334Y-116590883D01*
X151102711Y-116752482D01*
X151110722Y-116767469D01*
X151237748Y-116922252D01*
X151392531Y-117049278D01*
X151392533Y-117049279D01*
X151560474Y-117139046D01*
X151569120Y-117143667D01*
X151760731Y-117201792D01*
X151760735Y-117201792D01*
X151760737Y-117201793D01*
X151959997Y-117221418D01*
X151960000Y-117221418D01*
X151960003Y-117221418D01*
X152159261Y-117201793D01*
X152159263Y-117201793D01*
X152159264Y-117201792D01*
X152159269Y-117201792D01*
X152350880Y-117143667D01*
X152527469Y-117049278D01*
X152682252Y-116922252D01*
X152809278Y-116767469D01*
X152903667Y-116590880D01*
X152961792Y-116399269D01*
X152968949Y-116326602D01*
X152981418Y-116200003D01*
X153478582Y-116200003D01*
X153498206Y-116399261D01*
X153498206Y-116399263D01*
X153556332Y-116590877D01*
X153556334Y-116590883D01*
X153642711Y-116752482D01*
X153650722Y-116767469D01*
X153777748Y-116922252D01*
X153932531Y-117049278D01*
X153932533Y-117049279D01*
X154100474Y-117139046D01*
X154109120Y-117143667D01*
X154300731Y-117201792D01*
X154300735Y-117201792D01*
X154300737Y-117201793D01*
X154499997Y-117221418D01*
X154500000Y-117221418D01*
X154500003Y-117221418D01*
X154699261Y-117201793D01*
X154699263Y-117201793D01*
X154699264Y-117201792D01*
X154699269Y-117201792D01*
X154890880Y-117143667D01*
X155067469Y-117049278D01*
X155222252Y-116922252D01*
X155349278Y-116767469D01*
X155443667Y-116590880D01*
X155501792Y-116399269D01*
X155508949Y-116326602D01*
X155521418Y-116200003D01*
X155521418Y-116199996D01*
X155501793Y-116000738D01*
X155501793Y-116000736D01*
X155501792Y-116000733D01*
X155501792Y-116000731D01*
X155443667Y-115809120D01*
X155349278Y-115632531D01*
X155222252Y-115477748D01*
X155067469Y-115350722D01*
X155067467Y-115350721D01*
X155067466Y-115350720D01*
X154890883Y-115256334D01*
X154890877Y-115256332D01*
X154767725Y-115218974D01*
X154699269Y-115198208D01*
X154699268Y-115198207D01*
X154699262Y-115198206D01*
X154500003Y-115178582D01*
X154499997Y-115178582D01*
X154300738Y-115198206D01*
X154300736Y-115198206D01*
X154109122Y-115256332D01*
X154109116Y-115256334D01*
X153932533Y-115350720D01*
X153777748Y-115477748D01*
X153650720Y-115632533D01*
X153556334Y-115809116D01*
X153556332Y-115809122D01*
X153498206Y-116000736D01*
X153498206Y-116000738D01*
X153478582Y-116199996D01*
X153478582Y-116200003D01*
X152981418Y-116200003D01*
X152981418Y-116199996D01*
X152961793Y-116000738D01*
X152961793Y-116000736D01*
X152961792Y-116000733D01*
X152961792Y-116000731D01*
X152903667Y-115809120D01*
X152809278Y-115632531D01*
X152682252Y-115477748D01*
X152527469Y-115350722D01*
X152527467Y-115350721D01*
X152527466Y-115350720D01*
X152350883Y-115256334D01*
X152350877Y-115256332D01*
X152227725Y-115218974D01*
X152159269Y-115198208D01*
X152159268Y-115198207D01*
X152159262Y-115198206D01*
X151960003Y-115178582D01*
X151959997Y-115178582D01*
X151760738Y-115198206D01*
X151760736Y-115198206D01*
X151569122Y-115256332D01*
X151569116Y-115256334D01*
X151392533Y-115350720D01*
X151237748Y-115477748D01*
X151110720Y-115632533D01*
X151016334Y-115809116D01*
X151016332Y-115809122D01*
X150958206Y-116000736D01*
X150958206Y-116000738D01*
X150938582Y-116199996D01*
X150938582Y-116200003D01*
X127000500Y-116200003D01*
X127000500Y-106900004D01*
X152390340Y-106900004D01*
X152410936Y-107122272D01*
X152410937Y-107122274D01*
X152472026Y-107336980D01*
X152571526Y-107536804D01*
X152571527Y-107536805D01*
X152571528Y-107536807D01*
X152706048Y-107714942D01*
X152871014Y-107865328D01*
X152871016Y-107865329D01*
X152871017Y-107865330D01*
X153027750Y-107962374D01*
X153075136Y-108015239D01*
X153086419Y-108085333D01*
X153058016Y-108150400D01*
X152998943Y-108189782D01*
X152961418Y-108195500D01*
X152624936Y-108195500D01*
X152624926Y-108195501D01*
X152550699Y-108210265D01*
X152466515Y-108266516D01*
X152410266Y-108350697D01*
X152395500Y-108424930D01*
X152395500Y-110375063D01*
X152395501Y-110375073D01*
X152410265Y-110449300D01*
X152466516Y-110533484D01*
X152550697Y-110589733D01*
X152550699Y-110589734D01*
X152624933Y-110604500D01*
X154575066Y-110604499D01*
X154575069Y-110604498D01*
X154575073Y-110604498D01*
X154625303Y-110594507D01*
X154649301Y-110589734D01*
X154733484Y-110533484D01*
X154789734Y-110449301D01*
X154804500Y-110375067D01*
X154804499Y-108424934D01*
X154804498Y-108424930D01*
X154804498Y-108424926D01*
X154789734Y-108350699D01*
X154733483Y-108266515D01*
X154649302Y-108210266D01*
X154575069Y-108195500D01*
X154238582Y-108195500D01*
X154170461Y-108175498D01*
X154123968Y-108121842D01*
X154113864Y-108051568D01*
X154143358Y-107986988D01*
X154172246Y-107962376D01*
X154328983Y-107865330D01*
X154493950Y-107714943D01*
X154628474Y-107536804D01*
X154727974Y-107336980D01*
X154789063Y-107122274D01*
X154809660Y-106900000D01*
X154789063Y-106677726D01*
X154727974Y-106463020D01*
X154628474Y-106263196D01*
X154576642Y-106194559D01*
X154493951Y-106085057D01*
X154328985Y-105934671D01*
X154139192Y-105817157D01*
X154139185Y-105817154D01*
X154010990Y-105767491D01*
X153954695Y-105724232D01*
X153930725Y-105657404D01*
X153946689Y-105588226D01*
X153997520Y-105538660D01*
X154010990Y-105532509D01*
X154041269Y-105520778D01*
X154139192Y-105482843D01*
X154328983Y-105365330D01*
X154493950Y-105214943D01*
X154628474Y-105036804D01*
X154727974Y-104836980D01*
X154789063Y-104622274D01*
X154795928Y-104548182D01*
X154809660Y-104400004D01*
X154809660Y-104399995D01*
X154789063Y-104177727D01*
X154778113Y-104139243D01*
X154727974Y-103963020D01*
X154628474Y-103763196D01*
X154628471Y-103763192D01*
X154493951Y-103585057D01*
X154328985Y-103434671D01*
X154139192Y-103317157D01*
X154139185Y-103317154D01*
X153931045Y-103236519D01*
X153891943Y-103229209D01*
X153711613Y-103195500D01*
X153488387Y-103195500D01*
X153346833Y-103221961D01*
X153268954Y-103236519D01*
X153060814Y-103317154D01*
X153060807Y-103317157D01*
X152871014Y-103434671D01*
X152706048Y-103585057D01*
X152571528Y-103763192D01*
X152472026Y-103963020D01*
X152472023Y-103963028D01*
X152410936Y-104177727D01*
X152390340Y-104399995D01*
X152390340Y-104400004D01*
X152410936Y-104622272D01*
X152410937Y-104622274D01*
X152472026Y-104836980D01*
X152571526Y-105036804D01*
X152571527Y-105036805D01*
X152571528Y-105036807D01*
X152706048Y-105214942D01*
X152871014Y-105365328D01*
X152871016Y-105365329D01*
X152871017Y-105365330D01*
X153060808Y-105482843D01*
X153105439Y-105500133D01*
X153189009Y-105532509D01*
X153245304Y-105575768D01*
X153269274Y-105642596D01*
X153253310Y-105711774D01*
X153202479Y-105761340D01*
X153189009Y-105767491D01*
X153060814Y-105817154D01*
X153060807Y-105817157D01*
X152871014Y-105934671D01*
X152706048Y-106085057D01*
X152571528Y-106263192D01*
X152472026Y-106463020D01*
X152472023Y-106463028D01*
X152410936Y-106677727D01*
X152390340Y-106899995D01*
X152390340Y-106900004D01*
X127000500Y-106900004D01*
X127000500Y-100375700D01*
X136890848Y-100375700D01*
X136909428Y-100611783D01*
X136964711Y-100842054D01*
X137055336Y-101060841D01*
X137159076Y-101230130D01*
X137179071Y-101262758D01*
X137179072Y-101262760D01*
X137332867Y-101442832D01*
X137512939Y-101596627D01*
X137512943Y-101596630D01*
X137714859Y-101720364D01*
X137933646Y-101810989D01*
X138163917Y-101866272D01*
X138400000Y-101884852D01*
X138636083Y-101866272D01*
X138866354Y-101810989D01*
X139085141Y-101720364D01*
X139287057Y-101596630D01*
X139467132Y-101442832D01*
X139620930Y-101262757D01*
X139744664Y-101060841D01*
X139835289Y-100842054D01*
X139890572Y-100611783D01*
X139909152Y-100375700D01*
X139890572Y-100139617D01*
X139835289Y-99909346D01*
X139744664Y-99690559D01*
X139620930Y-99488643D01*
X139620927Y-99488639D01*
X139467132Y-99308567D01*
X139287060Y-99154772D01*
X139287058Y-99154771D01*
X139287057Y-99154770D01*
X139085141Y-99031036D01*
X138866354Y-98940411D01*
X138636083Y-98885128D01*
X138400000Y-98866548D01*
X138399999Y-98866548D01*
X138163917Y-98885128D01*
X137933645Y-98940411D01*
X137714860Y-99031035D01*
X137512941Y-99154771D01*
X137512939Y-99154772D01*
X137332867Y-99308567D01*
X137179072Y-99488639D01*
X137179071Y-99488641D01*
X137055335Y-99690560D01*
X136964711Y-99909345D01*
X136964711Y-99909346D01*
X136909428Y-100139617D01*
X136890848Y-100375700D01*
X127000500Y-100375700D01*
X127000500Y-70700004D01*
X145540554Y-70700004D01*
X145560295Y-70913044D01*
X145560295Y-70913047D01*
X145560296Y-70913048D01*
X145618849Y-71118840D01*
X145714219Y-71310370D01*
X145714220Y-71310371D01*
X145714221Y-71310373D01*
X145843155Y-71481110D01*
X146001278Y-71625258D01*
X146001279Y-71625259D01*
X146183178Y-71737886D01*
X146183181Y-71737887D01*
X146183190Y-71737893D01*
X146382698Y-71815183D01*
X146382699Y-71815183D01*
X146382703Y-71815185D01*
X146492163Y-71835646D01*
X146555445Y-71867824D01*
X146591288Y-71929108D01*
X146588307Y-72000043D01*
X146547450Y-72058105D01*
X146481688Y-72084860D01*
X146469008Y-72085500D01*
X145774936Y-72085500D01*
X145774926Y-72085501D01*
X145700699Y-72100265D01*
X145616515Y-72156516D01*
X145560266Y-72240697D01*
X145545500Y-72314930D01*
X145545500Y-74165063D01*
X145545501Y-74165073D01*
X145560265Y-74239300D01*
X145616516Y-74323484D01*
X145700697Y-74379733D01*
X145700699Y-74379734D01*
X145774933Y-74394500D01*
X147625066Y-74394499D01*
X147625069Y-74394498D01*
X147625073Y-74394498D01*
X147674326Y-74384701D01*
X147699301Y-74379734D01*
X147783484Y-74323484D01*
X147839734Y-74239301D01*
X147854500Y-74165067D01*
X147854499Y-72314934D01*
X147854498Y-72314930D01*
X147854498Y-72314926D01*
X147839734Y-72240699D01*
X147783483Y-72156515D01*
X147699302Y-72100266D01*
X147625069Y-72085500D01*
X146930993Y-72085500D01*
X146862872Y-72065498D01*
X146816379Y-72011842D01*
X146806275Y-71941568D01*
X146835769Y-71876988D01*
X146895495Y-71838604D01*
X146907825Y-71835648D01*
X147017297Y-71815185D01*
X147216810Y-71737893D01*
X147398722Y-71625258D01*
X147556841Y-71481114D01*
X147685781Y-71310370D01*
X147781151Y-71118840D01*
X147839704Y-70913048D01*
X147857984Y-70715778D01*
X147859446Y-70700004D01*
X161940553Y-70700004D01*
X161960295Y-70913044D01*
X161960295Y-70913047D01*
X161960296Y-70913048D01*
X162018849Y-71118840D01*
X162114219Y-71310370D01*
X162114220Y-71310371D01*
X162114221Y-71310373D01*
X162243155Y-71481110D01*
X162401278Y-71625258D01*
X162401279Y-71625259D01*
X162583178Y-71737886D01*
X162583181Y-71737887D01*
X162583190Y-71737893D01*
X162782698Y-71815183D01*
X162782699Y-71815183D01*
X162782703Y-71815185D01*
X162892163Y-71835646D01*
X162955445Y-71867824D01*
X162991288Y-71929108D01*
X162988307Y-72000043D01*
X162947450Y-72058105D01*
X162881688Y-72084860D01*
X162869008Y-72085500D01*
X162174936Y-72085500D01*
X162174926Y-72085501D01*
X162100699Y-72100265D01*
X162016515Y-72156516D01*
X161960266Y-72240697D01*
X161945500Y-72314930D01*
X161945500Y-74165063D01*
X161945501Y-74165073D01*
X161960265Y-74239300D01*
X162016516Y-74323484D01*
X162100697Y-74379733D01*
X162100699Y-74379734D01*
X162174933Y-74394500D01*
X164025066Y-74394499D01*
X164025069Y-74394498D01*
X164025073Y-74394498D01*
X164074326Y-74384701D01*
X164099301Y-74379734D01*
X164183484Y-74323484D01*
X164239734Y-74239301D01*
X164254500Y-74165067D01*
X164254499Y-72314934D01*
X164254498Y-72314930D01*
X164254498Y-72314926D01*
X164239734Y-72240699D01*
X164183483Y-72156515D01*
X164099302Y-72100266D01*
X164025069Y-72085500D01*
X163330993Y-72085500D01*
X163262872Y-72065498D01*
X163216379Y-72011842D01*
X163206275Y-71941568D01*
X163235769Y-71876988D01*
X163295495Y-71838604D01*
X163307825Y-71835648D01*
X163417297Y-71815185D01*
X163616810Y-71737893D01*
X163798722Y-71625258D01*
X163956841Y-71481114D01*
X164085781Y-71310370D01*
X164164970Y-71151335D01*
X164213238Y-71099274D01*
X164277760Y-71081500D01*
X172492500Y-71081500D01*
X172560621Y-71101502D01*
X172607114Y-71155158D01*
X172618500Y-71207500D01*
X172618500Y-102032709D01*
X172598498Y-102100830D01*
X172551897Y-102143831D01*
X172411311Y-102218976D01*
X172250747Y-102350747D01*
X172118975Y-102511313D01*
X172118974Y-102511313D01*
X172021055Y-102694507D01*
X171960756Y-102893288D01*
X171940398Y-103099996D01*
X171940398Y-103100003D01*
X171960756Y-103306711D01*
X171960757Y-103306717D01*
X171960758Y-103306718D01*
X171982988Y-103380000D01*
X172021055Y-103505492D01*
X172118974Y-103688686D01*
X172250747Y-103849252D01*
X172411313Y-103981024D01*
X172411313Y-103981025D01*
X172411317Y-103981027D01*
X172594508Y-104078945D01*
X172793282Y-104139242D01*
X172793286Y-104139242D01*
X172793288Y-104139243D01*
X172999997Y-104159602D01*
X173000000Y-104159602D01*
X173000003Y-104159602D01*
X173206711Y-104139243D01*
X173206712Y-104139242D01*
X173206718Y-104139242D01*
X173405492Y-104078945D01*
X173588683Y-103981027D01*
X173588684Y-103981025D01*
X173588686Y-103981025D01*
X173588686Y-103981024D01*
X173749252Y-103849252D01*
X173881027Y-103688683D01*
X173978945Y-103505492D01*
X174017011Y-103380003D01*
X177240398Y-103380003D01*
X177260756Y-103586711D01*
X177321055Y-103785492D01*
X177418974Y-103968686D01*
X177550747Y-104129252D01*
X177711313Y-104261024D01*
X177711313Y-104261025D01*
X177711317Y-104261027D01*
X177894508Y-104358945D01*
X178093282Y-104419242D01*
X178093286Y-104419242D01*
X178093288Y-104419243D01*
X178299997Y-104439602D01*
X178300000Y-104439602D01*
X178300003Y-104439602D01*
X178506711Y-104419243D01*
X178506712Y-104419242D01*
X178506718Y-104419242D01*
X178705492Y-104358945D01*
X178888683Y-104261027D01*
X178888684Y-104261025D01*
X178888686Y-104261025D01*
X178888686Y-104261024D01*
X179049252Y-104129252D01*
X179181027Y-103968683D01*
X179278945Y-103785492D01*
X179339242Y-103586718D01*
X179340034Y-103578683D01*
X179359602Y-103380003D01*
X179359602Y-103379996D01*
X179339243Y-103173288D01*
X179339242Y-103173286D01*
X179339242Y-103173282D01*
X179278945Y-102974508D01*
X179181027Y-102791317D01*
X179181025Y-102791313D01*
X179049252Y-102630747D01*
X178888686Y-102498975D01*
X178888686Y-102498974D01*
X178705492Y-102401055D01*
X178539651Y-102350748D01*
X178506718Y-102340758D01*
X178506717Y-102340757D01*
X178506711Y-102340756D01*
X178300003Y-102320398D01*
X178299997Y-102320398D01*
X178093288Y-102340756D01*
X177894507Y-102401055D01*
X177711313Y-102498974D01*
X177711313Y-102498975D01*
X177550747Y-102630747D01*
X177418975Y-102791313D01*
X177418974Y-102791313D01*
X177321055Y-102974507D01*
X177260756Y-103173288D01*
X177240398Y-103379996D01*
X177240398Y-103380003D01*
X174017011Y-103380003D01*
X174039242Y-103306718D01*
X174052385Y-103173282D01*
X174059602Y-103100003D01*
X174059602Y-103099996D01*
X174039243Y-102893288D01*
X174039242Y-102893286D01*
X174039242Y-102893282D01*
X173978945Y-102694508D01*
X173881027Y-102511317D01*
X173881025Y-102511313D01*
X173749252Y-102350747D01*
X173588688Y-102218976D01*
X173588684Y-102218973D01*
X173588683Y-102218973D01*
X173490249Y-102166359D01*
X173448103Y-102143831D01*
X173397455Y-102094078D01*
X173381500Y-102032709D01*
X173381500Y-97750000D01*
X175060000Y-97750000D01*
X175060000Y-98297840D01*
X175066400Y-98357371D01*
X175116647Y-98492089D01*
X175202810Y-98607189D01*
X175317910Y-98693352D01*
X175452628Y-98743599D01*
X175512159Y-98749999D01*
X175512176Y-98750000D01*
X175810000Y-98750000D01*
X175810000Y-97750000D01*
X175060000Y-97750000D01*
X173381500Y-97750000D01*
X173381500Y-97500000D01*
X175779612Y-97500000D01*
X175800955Y-97607300D01*
X175861736Y-97698264D01*
X175952700Y-97759045D01*
X176032912Y-97775000D01*
X176087088Y-97775000D01*
X176167300Y-97759045D01*
X176258264Y-97698264D01*
X176310000Y-97620836D01*
X176310000Y-98750000D01*
X176607824Y-98750000D01*
X176607840Y-98749999D01*
X176667371Y-98743599D01*
X176802089Y-98693352D01*
X176917188Y-98607189D01*
X176982609Y-98519798D01*
X177039444Y-98477251D01*
X177110260Y-98472186D01*
X177119596Y-98474595D01*
X177198091Y-98498095D01*
X177374169Y-98508351D01*
X177547866Y-98477723D01*
X177548961Y-98477251D01*
X177617915Y-98447507D01*
X177709818Y-98407864D01*
X177851294Y-98302539D01*
X177869238Y-98281153D01*
X177928347Y-98241827D01*
X177999335Y-98240700D01*
X178052225Y-98270494D01*
X178146377Y-98359322D01*
X178146379Y-98359323D01*
X178299118Y-98447507D01*
X178299119Y-98447507D01*
X178299124Y-98447510D01*
X178468091Y-98498095D01*
X178644169Y-98508351D01*
X178817866Y-98477723D01*
X178818961Y-98477251D01*
X178887915Y-98447507D01*
X178979818Y-98407864D01*
X179121294Y-98302539D01*
X179234667Y-98167427D01*
X179313824Y-98009811D01*
X179354500Y-97838188D01*
X179354500Y-97206059D01*
X179353791Y-97199996D01*
X179339160Y-97074816D01*
X179339159Y-97074814D01*
X179309484Y-96993282D01*
X179278836Y-96909076D01*
X179181915Y-96761715D01*
X179053623Y-96640678D01*
X179053620Y-96640676D01*
X178900881Y-96552492D01*
X178900877Y-96552490D01*
X178900876Y-96552490D01*
X178731909Y-96501905D01*
X178673216Y-96498486D01*
X178555835Y-96491649D01*
X178555831Y-96491649D01*
X178382134Y-96522277D01*
X178382133Y-96522277D01*
X178382129Y-96522278D01*
X178382128Y-96522278D01*
X178220184Y-96592134D01*
X178220180Y-96592136D01*
X178078706Y-96697460D01*
X178078704Y-96697462D01*
X178060758Y-96718849D01*
X178001647Y-96758174D01*
X177930660Y-96759298D01*
X177877773Y-96729504D01*
X177866479Y-96718849D01*
X177783623Y-96640678D01*
X177783620Y-96640676D01*
X177630881Y-96552492D01*
X177630877Y-96552490D01*
X177630876Y-96552490D01*
X177461909Y-96501905D01*
X177403216Y-96498486D01*
X177285835Y-96491649D01*
X177285831Y-96491649D01*
X177112134Y-96522277D01*
X177112131Y-96522278D01*
X177104907Y-96523552D01*
X177104472Y-96521086D01*
X177045315Y-96521387D01*
X176985395Y-96483307D01*
X176979332Y-96475822D01*
X176917189Y-96392811D01*
X176802089Y-96306647D01*
X176667371Y-96256400D01*
X176607840Y-96250000D01*
X176310000Y-96250000D01*
X176310000Y-97379163D01*
X176258264Y-97301736D01*
X176167300Y-97240955D01*
X176087088Y-97225000D01*
X176032912Y-97225000D01*
X175952700Y-97240955D01*
X175861736Y-97301736D01*
X175800955Y-97392700D01*
X175779612Y-97500000D01*
X173381500Y-97500000D01*
X173381500Y-97250000D01*
X175060000Y-97250000D01*
X175810000Y-97250000D01*
X175810000Y-96250000D01*
X175512159Y-96250000D01*
X175452628Y-96256400D01*
X175317910Y-96306647D01*
X175202810Y-96392810D01*
X175116647Y-96507910D01*
X175066400Y-96642628D01*
X175060000Y-96702159D01*
X175060000Y-97250000D01*
X173381500Y-97250000D01*
X173381500Y-70718389D01*
X173381715Y-70713184D01*
X173385454Y-70668059D01*
X173374338Y-70624168D01*
X173373269Y-70619069D01*
X173365818Y-70574414D01*
X173365814Y-70574406D01*
X173365624Y-70574054D01*
X173354296Y-70545020D01*
X173354198Y-70544634D01*
X173329431Y-70506724D01*
X173326765Y-70502250D01*
X173305220Y-70462438D01*
X173304923Y-70462165D01*
X173284776Y-70438375D01*
X173284560Y-70438044D01*
X173248832Y-70410236D01*
X173244857Y-70406869D01*
X173211548Y-70376206D01*
X173211542Y-70376202D01*
X173211168Y-70376038D01*
X173184403Y-70360089D01*
X173184085Y-70359842D01*
X173184084Y-70359841D01*
X173141271Y-70345143D01*
X173136420Y-70343250D01*
X173094948Y-70325059D01*
X173094532Y-70325025D01*
X173064048Y-70318632D01*
X173063664Y-70318500D01*
X173063661Y-70318500D01*
X173018390Y-70318500D01*
X173013185Y-70318285D01*
X172994057Y-70316700D01*
X172968060Y-70314546D01*
X172968059Y-70314546D01*
X172967673Y-70314644D01*
X172936742Y-70318500D01*
X164277760Y-70318500D01*
X164209639Y-70298498D01*
X164164970Y-70248664D01*
X164085781Y-70089630D01*
X164085778Y-70089626D01*
X163956844Y-69918889D01*
X163798721Y-69774741D01*
X163798720Y-69774740D01*
X163616821Y-69662113D01*
X163616814Y-69662109D01*
X163616810Y-69662107D01*
X163616805Y-69662105D01*
X163417301Y-69584816D01*
X163417302Y-69584816D01*
X163417297Y-69584815D01*
X163206980Y-69545500D01*
X162993020Y-69545500D01*
X162834313Y-69575167D01*
X162782697Y-69584816D01*
X162583194Y-69662105D01*
X162583178Y-69662113D01*
X162401279Y-69774740D01*
X162401278Y-69774741D01*
X162243155Y-69918889D01*
X162114221Y-70089626D01*
X162018849Y-70281160D01*
X162018847Y-70281165D01*
X161960295Y-70486955D01*
X161940553Y-70699995D01*
X161940553Y-70700004D01*
X147859446Y-70700004D01*
X147859446Y-70699995D01*
X147841334Y-70504546D01*
X147839704Y-70486952D01*
X147781151Y-70281160D01*
X147685781Y-70089630D01*
X147685778Y-70089626D01*
X147556844Y-69918889D01*
X147398721Y-69774741D01*
X147398720Y-69774740D01*
X147216821Y-69662113D01*
X147216814Y-69662109D01*
X147216810Y-69662107D01*
X147216805Y-69662105D01*
X147017301Y-69584816D01*
X147017302Y-69584816D01*
X147017297Y-69584815D01*
X146806980Y-69545500D01*
X146593020Y-69545500D01*
X146434313Y-69575167D01*
X146382697Y-69584816D01*
X146183194Y-69662105D01*
X146183178Y-69662113D01*
X146001279Y-69774740D01*
X146001278Y-69774741D01*
X145843155Y-69918889D01*
X145714221Y-70089626D01*
X145618849Y-70281160D01*
X145618847Y-70281165D01*
X145560295Y-70486955D01*
X145540554Y-70699995D01*
X145540554Y-70700004D01*
X127000500Y-70700004D01*
X127000500Y-45847005D01*
X146934047Y-45847005D01*
X146936167Y-45877998D01*
X146936153Y-45886798D01*
X146936146Y-45886892D01*
X146937034Y-45890675D01*
X146949273Y-46069618D01*
X146948429Y-46073437D01*
X146950559Y-46088415D01*
X146951834Y-46107059D01*
X146951836Y-46107072D01*
X146959765Y-46145233D01*
X146960847Y-46153018D01*
X146962008Y-46156021D01*
X146998508Y-46331669D01*
X146998154Y-46336041D01*
X147002664Y-46351668D01*
X147004871Y-46362292D01*
X147004875Y-46362304D01*
X147020637Y-46406654D01*
X147022450Y-46413012D01*
X147023689Y-46415243D01*
X147083795Y-46584362D01*
X147084065Y-46589202D01*
X147091114Y-46604957D01*
X147092168Y-46607923D01*
X147092170Y-46607928D01*
X147117639Y-46657081D01*
X147119724Y-46661782D01*
X147120848Y-46663275D01*
X147203482Y-46822750D01*
X147204405Y-46827486D01*
X147205040Y-46828335D01*
X147208435Y-46833356D01*
X147212099Y-46839381D01*
X147248931Y-46891560D01*
X147250742Y-46894466D01*
X147251566Y-46895293D01*
X147355259Y-47042192D01*
X147356960Y-47047173D01*
X147366575Y-47056788D01*
X147412019Y-47105447D01*
X147412909Y-47106511D01*
X147413264Y-47106780D01*
X147536173Y-47238383D01*
X147538724Y-47243459D01*
X147568352Y-47265638D01*
X147742568Y-47407374D01*
X147742571Y-47407375D01*
X147742704Y-47407484D01*
X147746148Y-47412494D01*
X147792282Y-47437686D01*
X147794802Y-47439138D01*
X147965297Y-47542819D01*
X147965300Y-47542820D01*
X147968975Y-47545055D01*
X147968161Y-47546392D01*
X147971498Y-47549587D01*
X148036320Y-47573764D01*
X148039403Y-47575008D01*
X148081696Y-47593378D01*
X148204396Y-47646674D01*
X148204416Y-47646679D01*
X148208313Y-47648065D01*
X148218637Y-47655545D01*
X148294751Y-47672103D01*
X148298323Y-47672991D01*
X148426880Y-47709011D01*
X148455401Y-47717003D01*
X148455404Y-47717003D01*
X148455409Y-47717005D01*
X148457214Y-47717253D01*
X148457739Y-47717489D01*
X148459616Y-47717879D01*
X148459529Y-47718293D01*
X148475966Y-47725677D01*
X148562606Y-47731874D01*
X148566687Y-47732299D01*
X148577321Y-47733761D01*
X148713647Y-47752499D01*
X148713660Y-47752500D01*
X159134340Y-47752500D01*
X159134350Y-47752499D01*
X159179431Y-47746302D01*
X159281328Y-47732297D01*
X159285389Y-47731873D01*
X159366816Y-47726050D01*
X159388433Y-47718118D01*
X159388384Y-47717879D01*
X159390003Y-47717542D01*
X159390796Y-47717251D01*
X159392591Y-47717005D01*
X159549684Y-47672989D01*
X159553245Y-47672104D01*
X159625154Y-47656461D01*
X159639687Y-47648065D01*
X159643579Y-47646680D01*
X159643604Y-47646674D01*
X159808611Y-47575001D01*
X159811688Y-47573760D01*
X159872956Y-47550908D01*
X159879488Y-47545817D01*
X159879025Y-47545055D01*
X159882699Y-47542820D01*
X159882703Y-47542819D01*
X160053228Y-47439119D01*
X160055725Y-47437680D01*
X160099678Y-47413680D01*
X160105295Y-47407485D01*
X160105429Y-47407375D01*
X160105432Y-47407374D01*
X160279655Y-47265632D01*
X160307417Y-47244850D01*
X160311822Y-47238387D01*
X160434736Y-47106779D01*
X160434986Y-47106631D01*
X160435951Y-47105478D01*
X160481458Y-47056752D01*
X160489518Y-47048692D01*
X160492741Y-47042192D01*
X160561143Y-46945288D01*
X160596432Y-46895295D01*
X160597039Y-46894813D01*
X160599048Y-46891589D01*
X160635901Y-46839381D01*
X160635912Y-46839359D01*
X160639568Y-46833348D01*
X160642356Y-46829222D01*
X160644514Y-46822757D01*
X160727151Y-46663274D01*
X160728008Y-46662379D01*
X160730347Y-46657105D01*
X160755830Y-46607927D01*
X160756886Y-46604957D01*
X160762856Y-46591610D01*
X160764204Y-46584364D01*
X160824310Y-46415242D01*
X160825302Y-46413873D01*
X160827354Y-46406677D01*
X160843127Y-46362299D01*
X160845338Y-46351658D01*
X160849186Y-46338324D01*
X160849490Y-46331675D01*
X160885993Y-46156017D01*
X160887037Y-46154061D01*
X160887072Y-46153580D01*
X160888231Y-46145246D01*
X160888234Y-46145233D01*
X160896164Y-46107072D01*
X160896226Y-46106158D01*
X160897441Y-46088410D01*
X160899272Y-46075526D01*
X160898726Y-46069617D01*
X160905063Y-45976968D01*
X160910965Y-45890672D01*
X160911935Y-45888048D01*
X160911846Y-45886800D01*
X160911832Y-45878008D01*
X160913953Y-45847000D01*
X160911832Y-45815991D01*
X160911846Y-45807198D01*
X160911852Y-45807107D01*
X160910965Y-45803323D01*
X160898726Y-45624381D01*
X160899569Y-45620560D01*
X160897441Y-45605589D01*
X160896165Y-45586941D01*
X160896164Y-45586938D01*
X160896164Y-45586928D01*
X160888230Y-45548751D01*
X160887149Y-45540976D01*
X160885992Y-45537981D01*
X160849491Y-45362327D01*
X160849844Y-45357957D01*
X160845337Y-45342337D01*
X160843128Y-45331707D01*
X160843127Y-45331702D01*
X160843127Y-45331701D01*
X160827359Y-45287336D01*
X160825548Y-45280987D01*
X160824309Y-45278753D01*
X160764203Y-45109634D01*
X160763933Y-45104796D01*
X160756884Y-45089038D01*
X160755831Y-45086076D01*
X160755830Y-45086073D01*
X160730354Y-45036907D01*
X160728276Y-45032222D01*
X160727151Y-45030725D01*
X160644515Y-44871244D01*
X160643593Y-44866514D01*
X160642962Y-44865671D01*
X160639565Y-44860646D01*
X160635905Y-44854628D01*
X160635901Y-44854619D01*
X160599056Y-44802422D01*
X160597256Y-44799532D01*
X160596430Y-44798702D01*
X160492740Y-44651806D01*
X160491039Y-44646826D01*
X160481438Y-44637225D01*
X160452127Y-44605841D01*
X160435972Y-44588543D01*
X160435088Y-44587487D01*
X160434734Y-44587218D01*
X160311824Y-44455614D01*
X160309273Y-44450537D01*
X160279630Y-44428347D01*
X160279615Y-44428335D01*
X160105432Y-44286626D01*
X160105426Y-44286622D01*
X160105293Y-44286514D01*
X160101848Y-44281502D01*
X160055710Y-44256309D01*
X160053185Y-44254854D01*
X159882703Y-44151181D01*
X159882699Y-44151179D01*
X159879025Y-44148945D01*
X159879832Y-44147617D01*
X159876477Y-44144403D01*
X159811676Y-44120234D01*
X159808594Y-44118990D01*
X159712532Y-44077265D01*
X159643604Y-44047326D01*
X159643598Y-44047324D01*
X159639673Y-44045929D01*
X159629352Y-44038449D01*
X159553237Y-44021892D01*
X159549644Y-44020999D01*
X159476857Y-44000605D01*
X159392600Y-43976997D01*
X159392596Y-43976996D01*
X159392591Y-43976995D01*
X159390763Y-43976743D01*
X159390231Y-43976504D01*
X159388384Y-43976121D01*
X159388468Y-43975713D01*
X159372009Y-43968319D01*
X159285374Y-43962123D01*
X159281289Y-43961697D01*
X159134353Y-43941500D01*
X159134340Y-43941500D01*
X159004099Y-43941500D01*
X148844500Y-43941500D01*
X148844000Y-43941500D01*
X148713660Y-43941500D01*
X148713646Y-43941500D01*
X148566707Y-43961697D01*
X148562623Y-43962123D01*
X148481231Y-43967945D01*
X148459568Y-43975890D01*
X148459616Y-43976121D01*
X148458057Y-43976444D01*
X148457247Y-43976742D01*
X148455411Y-43976994D01*
X148298378Y-44020993D01*
X148294772Y-44021889D01*
X148222867Y-44037531D01*
X148208340Y-44045924D01*
X148204397Y-44047325D01*
X148039415Y-44118986D01*
X148036333Y-44120230D01*
X147975069Y-44143079D01*
X147968514Y-44148189D01*
X147968974Y-44148945D01*
X147794839Y-44254839D01*
X147792298Y-44256304D01*
X147748326Y-44280315D01*
X147742707Y-44286513D01*
X147603770Y-44399545D01*
X147603769Y-44399547D01*
X147568384Y-44428335D01*
X147540585Y-44449145D01*
X147536173Y-44455617D01*
X147413264Y-44587219D01*
X147413009Y-44587369D01*
X147412016Y-44588556D01*
X147366589Y-44637195D01*
X147358485Y-44645298D01*
X147355260Y-44651806D01*
X147251569Y-44798703D01*
X147250956Y-44799189D01*
X147248927Y-44802445D01*
X147212096Y-44854622D01*
X147208429Y-44860651D01*
X147205643Y-44864771D01*
X147203483Y-44871246D01*
X147120850Y-45030722D01*
X147119989Y-45031620D01*
X147117638Y-45036920D01*
X147092170Y-45086071D01*
X147092169Y-45086073D01*
X147091114Y-45089043D01*
X147085143Y-45102387D01*
X147083795Y-45109637D01*
X147023691Y-45278753D01*
X147022694Y-45280128D01*
X147020636Y-45287347D01*
X147004873Y-45331702D01*
X147004867Y-45331721D01*
X147002661Y-45342339D01*
X146998811Y-45355678D01*
X146998508Y-45362327D01*
X146962008Y-45537978D01*
X146960958Y-45539943D01*
X146960923Y-45540438D01*
X146959765Y-45548765D01*
X146951836Y-45586924D01*
X146951834Y-45586940D01*
X146950559Y-45605584D01*
X146948725Y-45618476D01*
X146949273Y-45624380D01*
X146937034Y-45803323D01*
X146936063Y-45805949D01*
X146936153Y-45807199D01*
X146936167Y-45816000D01*
X146934047Y-45846992D01*
X146934047Y-45847005D01*
X127000500Y-45847005D01*
X127000500Y-41528500D01*
X127020502Y-41460379D01*
X127074158Y-41413886D01*
X127126500Y-41402500D01*
X180721500Y-41402500D01*
X180789621Y-41422502D01*
G37*
%TD.AperFunction*%
%TD*%
M02*
