M48
; DRILL file {KiCad 7.0.6} date Wed May 29 23:10:33 2024
; FORMAT={-:-/ absolute / inch / decimal}
; #@! TF.CreationDate,2024-05-29T23:10:33-05:00
; #@! TF.GenerationSoftware,Kicad,Pcbnew,7.0.6
; #@! TF.FileFunction,Plated,1,2,PTH
FMAT,2
INCH
; #@! TA.AperFunction,Plated,PTH,ComponentDrill
T1C0.0217
; #@! TA.AperFunction,Plated,PTH,ComponentDrill
T2C0.0300
; #@! TA.AperFunction,Plated,PTH,ComponentDrill
T3C0.0315
; #@! TA.AperFunction,Plated,PTH,ComponentDrill
T4C0.0354
; #@! TA.AperFunction,Plated,PTH,ComponentDrill
T5C0.0461
; #@! TA.AperFunction,Plated,PTH,ComponentDrill
T6C0.0591
%
G90
G05
T1
X6.9315Y-3.8386
X6.9815Y-3.8386
X7.0315Y-3.8386
T2
X5.9827Y-4.5748
X5.9827Y-4.8748
X6.0827Y-4.5748
X6.0827Y-4.8748
X6.1827Y-4.5748
X6.1827Y-4.8748
X6.2827Y-4.5748
X6.2827Y-4.8748
T3
X6.2638Y-4.0508
X6.2638Y-4.3508
X6.3228Y-3.8268
X6.4449Y-4.0547
X6.4449Y-4.3547
X6.5118Y-4.7283
X6.5118Y-4.8071
X6.6228Y-3.8268
X6.626Y-4.0512
X6.626Y-4.3512
X6.6614Y-4.5709
X6.811Y-4.0591
X6.811Y-4.3591
X6.9567Y-4.7559
X6.9567Y-4.8543
X6.9614Y-4.5709
X7.0197Y-4.0701
X7.0197Y-4.3701
T4
X5.7756Y-2.7835
X5.7756Y-2.8835
X6.0472Y-4.1102
X6.0472Y-4.2087
X6.0472Y-4.3071
X6.4213Y-2.7835
X6.4213Y-2.8835
T5
X5.4488Y-4.7392
T6
X5.4488Y-3.9518
T0
M30
