%TF.GenerationSoftware,KiCad,Pcbnew,7.0.6*%
%TF.CreationDate,2024-05-29T23:10:09-05:00*%
%TF.ProjectId,My_kikad,4d795f6b-696b-4616-942e-6b696361645f,V01*%
%TF.SameCoordinates,Original*%
%TF.FileFunction,Legend,Bot*%
%TF.FilePolarity,Positive*%
%FSLAX46Y46*%
G04 Gerber Fmt 4.6, Leading zero omitted, Abs format (unit mm)*
G04 Created by KiCad (PCBNEW 7.0.6) date 2024-05-29 23:10:09*
%MOMM*%
%LPD*%
G01*
G04 APERTURE LIST*
%ADD10C,0.150000*%
G04 APERTURE END LIST*
D10*
X158010839Y-55584104D02*
X157534649Y-55584104D01*
X158106077Y-55869819D02*
X157772744Y-54869819D01*
X157772744Y-54869819D02*
X157439411Y-55869819D01*
X156963220Y-55869819D02*
X157058458Y-55822200D01*
X157058458Y-55822200D02*
X157106077Y-55726961D01*
X157106077Y-55726961D02*
X157106077Y-54869819D01*
X156153696Y-55869819D02*
X156153696Y-55346009D01*
X156153696Y-55346009D02*
X156201315Y-55250771D01*
X156201315Y-55250771D02*
X156296553Y-55203152D01*
X156296553Y-55203152D02*
X156487029Y-55203152D01*
X156487029Y-55203152D02*
X156582267Y-55250771D01*
X156153696Y-55822200D02*
X156248934Y-55869819D01*
X156248934Y-55869819D02*
X156487029Y-55869819D01*
X156487029Y-55869819D02*
X156582267Y-55822200D01*
X156582267Y-55822200D02*
X156629886Y-55726961D01*
X156629886Y-55726961D02*
X156629886Y-55631723D01*
X156629886Y-55631723D02*
X156582267Y-55536485D01*
X156582267Y-55536485D02*
X156487029Y-55488866D01*
X156487029Y-55488866D02*
X156248934Y-55488866D01*
X156248934Y-55488866D02*
X156153696Y-55441247D01*
X155772743Y-55203152D02*
X155248934Y-55203152D01*
X155248934Y-55203152D02*
X155772743Y-55869819D01*
X155772743Y-55869819D02*
X155248934Y-55869819D01*
X154439410Y-55869819D02*
X154439410Y-55346009D01*
X154439410Y-55346009D02*
X154487029Y-55250771D01*
X154487029Y-55250771D02*
X154582267Y-55203152D01*
X154582267Y-55203152D02*
X154772743Y-55203152D01*
X154772743Y-55203152D02*
X154867981Y-55250771D01*
X154439410Y-55822200D02*
X154534648Y-55869819D01*
X154534648Y-55869819D02*
X154772743Y-55869819D01*
X154772743Y-55869819D02*
X154867981Y-55822200D01*
X154867981Y-55822200D02*
X154915600Y-55726961D01*
X154915600Y-55726961D02*
X154915600Y-55631723D01*
X154915600Y-55631723D02*
X154867981Y-55536485D01*
X154867981Y-55536485D02*
X154772743Y-55488866D01*
X154772743Y-55488866D02*
X154534648Y-55488866D01*
X154534648Y-55488866D02*
X154439410Y-55441247D01*
X153963219Y-55869819D02*
X153963219Y-55203152D01*
X153963219Y-55393628D02*
X153915600Y-55298390D01*
X153915600Y-55298390D02*
X153867981Y-55250771D01*
X153867981Y-55250771D02*
X153772743Y-55203152D01*
X153772743Y-55203152D02*
X153677505Y-55203152D01*
X153296552Y-54869819D02*
X153391790Y-55060295D01*
X152915600Y-55822200D02*
X152820362Y-55869819D01*
X152820362Y-55869819D02*
X152629886Y-55869819D01*
X152629886Y-55869819D02*
X152534648Y-55822200D01*
X152534648Y-55822200D02*
X152487029Y-55726961D01*
X152487029Y-55726961D02*
X152487029Y-55679342D01*
X152487029Y-55679342D02*
X152534648Y-55584104D01*
X152534648Y-55584104D02*
X152629886Y-55536485D01*
X152629886Y-55536485D02*
X152772743Y-55536485D01*
X152772743Y-55536485D02*
X152867981Y-55488866D01*
X152867981Y-55488866D02*
X152915600Y-55393628D01*
X152915600Y-55393628D02*
X152915600Y-55346009D01*
X152915600Y-55346009D02*
X152867981Y-55250771D01*
X152867981Y-55250771D02*
X152772743Y-55203152D01*
X152772743Y-55203152D02*
X152629886Y-55203152D01*
X152629886Y-55203152D02*
X152534648Y-55250771D01*
X152296553Y-55965057D02*
X151534648Y-55965057D01*
X151296552Y-55869819D02*
X151296552Y-54869819D01*
X151296552Y-54869819D02*
X150915600Y-54869819D01*
X150915600Y-54869819D02*
X150820362Y-54917438D01*
X150820362Y-54917438D02*
X150772743Y-54965057D01*
X150772743Y-54965057D02*
X150725124Y-55060295D01*
X150725124Y-55060295D02*
X150725124Y-55203152D01*
X150725124Y-55203152D02*
X150772743Y-55298390D01*
X150772743Y-55298390D02*
X150820362Y-55346009D01*
X150820362Y-55346009D02*
X150915600Y-55393628D01*
X150915600Y-55393628D02*
X151296552Y-55393628D01*
X149725124Y-55774580D02*
X149772743Y-55822200D01*
X149772743Y-55822200D02*
X149915600Y-55869819D01*
X149915600Y-55869819D02*
X150010838Y-55869819D01*
X150010838Y-55869819D02*
X150153695Y-55822200D01*
X150153695Y-55822200D02*
X150248933Y-55726961D01*
X150248933Y-55726961D02*
X150296552Y-55631723D01*
X150296552Y-55631723D02*
X150344171Y-55441247D01*
X150344171Y-55441247D02*
X150344171Y-55298390D01*
X150344171Y-55298390D02*
X150296552Y-55107914D01*
X150296552Y-55107914D02*
X150248933Y-55012676D01*
X150248933Y-55012676D02*
X150153695Y-54917438D01*
X150153695Y-54917438D02*
X150010838Y-54869819D01*
X150010838Y-54869819D02*
X149915600Y-54869819D01*
X149915600Y-54869819D02*
X149772743Y-54917438D01*
X149772743Y-54917438D02*
X149725124Y-54965057D01*
X148963219Y-55346009D02*
X148820362Y-55393628D01*
X148820362Y-55393628D02*
X148772743Y-55441247D01*
X148772743Y-55441247D02*
X148725124Y-55536485D01*
X148725124Y-55536485D02*
X148725124Y-55679342D01*
X148725124Y-55679342D02*
X148772743Y-55774580D01*
X148772743Y-55774580D02*
X148820362Y-55822200D01*
X148820362Y-55822200D02*
X148915600Y-55869819D01*
X148915600Y-55869819D02*
X149296552Y-55869819D01*
X149296552Y-55869819D02*
X149296552Y-54869819D01*
X149296552Y-54869819D02*
X148963219Y-54869819D01*
X148963219Y-54869819D02*
X148867981Y-54917438D01*
X148867981Y-54917438D02*
X148820362Y-54965057D01*
X148820362Y-54965057D02*
X148772743Y-55060295D01*
X148772743Y-55060295D02*
X148772743Y-55155533D01*
X148772743Y-55155533D02*
X148820362Y-55250771D01*
X148820362Y-55250771D02*
X148867981Y-55298390D01*
X148867981Y-55298390D02*
X148963219Y-55346009D01*
X148963219Y-55346009D02*
X149296552Y-55346009D01*
M02*
