%TF.GenerationSoftware,KiCad,Pcbnew,7.0.6*%
%TF.CreationDate,2024-05-29T23:10:09-05:00*%
%TF.ProjectId,My_kikad,4d795f6b-696b-4616-942e-6b696361645f,V01*%
%TF.SameCoordinates,Original*%
%TF.FileFunction,Copper,L1,Top*%
%TF.FilePolarity,Positive*%
%FSLAX46Y46*%
G04 Gerber Fmt 4.6, Leading zero omitted, Abs format (unit mm)*
G04 Created by KiCad (PCBNEW 7.0.6) date 2024-05-29 23:10:09*
%MOMM*%
%LPD*%
G01*
G04 APERTURE LIST*
%TA.AperFunction,ComponentPad*%
%ADD10C,1.600000*%
%TD*%
%TA.AperFunction,ComponentPad*%
%ADD11O,1.600000X1.600000*%
%TD*%
%TA.AperFunction,ComponentPad*%
%ADD12R,1.800000X1.800000*%
%TD*%
%TA.AperFunction,ComponentPad*%
%ADD13C,1.800000*%
%TD*%
%TA.AperFunction,ComponentPad*%
%ADD14C,1.524000*%
%TD*%
%TA.AperFunction,ComponentPad*%
%ADD15R,2.170000X2.170000*%
%TD*%
%TA.AperFunction,ComponentPad*%
%ADD16C,2.500000*%
%TD*%
%TA.AperFunction,ComponentPad*%
%ADD17R,1.600000X1.600000*%
%TD*%
%TA.AperFunction,ComponentPad*%
%ADD18R,1.900000X1.900000*%
%TD*%
%TA.AperFunction,ComponentPad*%
%ADD19C,1.900000*%
%TD*%
%TA.AperFunction,ComponentPad*%
%ADD20R,1.000000X1.500000*%
%TD*%
%TA.AperFunction,ComponentPad*%
%ADD21O,1.000000X1.500000*%
%TD*%
%TA.AperFunction,Conductor*%
%ADD22C,0.762000*%
%TD*%
%TA.AperFunction,Conductor*%
%ADD23C,0.254000*%
%TD*%
G04 APERTURE END LIST*
D10*
%TO.P,R2,1*%
%TO.N,Net-(U1-DIS)*%
X163700000Y-102990000D03*
D11*
%TO.P,R2,2*%
%TO.N,Net-(U1-THRESH)*%
X163700000Y-110610000D03*
%TD*%
D12*
%TO.P,D2,1,K*%
%TO.N,Net-(D1-K)*%
X163100000Y-73240000D03*
D13*
%TO.P,D2,2,A*%
%TO.N,Net-(D2-A)*%
X163100000Y-70700000D03*
%TD*%
D10*
%TO.P,R3,1*%
%TO.N,Net-(U1-OUT)*%
X160600000Y-97200000D03*
D11*
%TO.P,R3,2*%
%TO.N,Net-(C2-Pad1)*%
X168220000Y-97200000D03*
%TD*%
D10*
%TO.P,R4,1*%
%TO.N,Net-(C2-Pad1)*%
X178300000Y-111000000D03*
D11*
%TO.P,R4,2*%
%TO.N,Net-(Q1-B)*%
X178300000Y-103380000D03*
%TD*%
D14*
%TO.P,7555,1,GND*%
%TO.N,GND*%
X151960000Y-123820000D03*
%TO.P,7555,2,~{TRIG}*%
%TO.N,Net-(U1-THRESH)*%
X154500000Y-123820000D03*
%TO.P,7555,3,OUT*%
%TO.N,Net-(U1-OUT)*%
X157040000Y-123820000D03*
%TO.P,7555,4,~{RST}*%
%TO.N,VCC*%
X159580000Y-123820000D03*
%TO.P,7555,5,CV*%
%TO.N,unconnected-(U1-CV-Pad5)*%
X159580000Y-116200000D03*
%TO.P,7555,6,THRESH*%
%TO.N,Net-(U1-THRESH)*%
X157040000Y-116200000D03*
%TO.P,7555,7,DIS*%
%TO.N,Net-(U1-DIS)*%
X154500000Y-116200000D03*
%TO.P,7555,8,VDD*%
%TO.N,VCC*%
X151960000Y-116200000D03*
%TD*%
D15*
%TO.P,BAT1,Neg*%
%TO.N,GND*%
X138400000Y-120375700D03*
D16*
%TO.P,BAT1,Pos*%
%TO.N,Net-(BAT1-PadPos)*%
X138400000Y-100375700D03*
%TD*%
D10*
%TO.P,R7,1*%
%TO.N,Net-(D2-A)*%
X173000000Y-103100000D03*
D11*
%TO.P,R7,2*%
%TO.N,VCC*%
X173000000Y-110720000D03*
%TD*%
D17*
%TO.P,C1,1*%
%TO.N,Net-(U1-THRESH)*%
X165400000Y-120100000D03*
D10*
%TO.P,C1,2*%
%TO.N,GND*%
X165400000Y-122100000D03*
%TD*%
D18*
%TO.P,S1,1*%
%TO.N,unconnected-(S1-Pad1)*%
X153600000Y-109400000D03*
D19*
%TO.P,S1,2*%
%TO.N,VCC*%
X153600000Y-106900000D03*
%TO.P,S1,3*%
%TO.N,Net-(BAT1-PadPos)*%
X153600000Y-104400000D03*
%TD*%
D10*
%TO.P,R1,1*%
%TO.N,VCC*%
X159100000Y-102890000D03*
D11*
%TO.P,R1,2*%
%TO.N,Net-(U1-DIS)*%
X159100000Y-110510000D03*
%TD*%
D10*
%TO.P,R5,1*%
%TO.N,GND*%
X169200000Y-116100000D03*
D11*
%TO.P,R5,2*%
%TO.N,Net-(C2-Pad1)*%
X176820000Y-116100000D03*
%TD*%
D12*
%TO.P,D1,1,K*%
%TO.N,Net-(D1-K)*%
X146700000Y-73240000D03*
D13*
%TO.P,D1,2,A*%
%TO.N,Net-(D1-A)*%
X146700000Y-70700000D03*
%TD*%
D17*
%TO.P,C2,1*%
%TO.N,Net-(C2-Pad1)*%
X176700000Y-120800000D03*
D10*
%TO.P,C2,2*%
%TO.N,GND*%
X176700000Y-123300000D03*
%TD*%
D20*
%TO.P,Q1,1,E*%
%TO.N,GND*%
X176060000Y-97500000D03*
D21*
%TO.P,Q1,2,B*%
%TO.N,Net-(Q1-B)*%
X177330000Y-97500000D03*
%TO.P,Q1,3,C*%
%TO.N,Net-(D1-K)*%
X178600000Y-97500000D03*
%TD*%
D10*
%TO.P,R6,1*%
%TO.N,Net-(D1-A)*%
X168300000Y-102900000D03*
D11*
%TO.P,R6,2*%
%TO.N,VCC*%
X168300000Y-110520000D03*
%TD*%
D22*
%TO.N,Net-(BAT1-PadPos)*%
X149575700Y-100375700D02*
X153600000Y-104400000D01*
X138400000Y-100375700D02*
X149575700Y-100375700D01*
D23*
%TO.N,Net-(U1-THRESH)*%
X157040000Y-116200000D02*
X157040000Y-114560000D01*
X159300000Y-113400000D02*
X162090000Y-110610000D01*
X162500000Y-120100000D02*
X165400000Y-120100000D01*
X157040000Y-114560000D02*
X158200000Y-113400000D01*
X157040000Y-116200000D02*
X160940000Y-120100000D01*
X158200000Y-113400000D02*
X159300000Y-113400000D01*
X162090000Y-110610000D02*
X163700000Y-110610000D01*
X160940000Y-120100000D02*
X162500000Y-120100000D01*
%TO.N,Net-(C2-Pad1)*%
X170500000Y-104100000D02*
X171500000Y-105100000D01*
X171500000Y-105100000D02*
X174900000Y-105100000D01*
X174900000Y-105100000D02*
X178300000Y-108500000D01*
X176700000Y-116220000D02*
X176820000Y-116100000D01*
X168220000Y-98720000D02*
X170500000Y-101000000D01*
X168220000Y-97200000D02*
X168220000Y-98720000D01*
X176700000Y-121117621D02*
X176700000Y-116220000D01*
X170500000Y-101000000D02*
X170500000Y-104100000D01*
X176820000Y-116100000D02*
X178300000Y-114620000D01*
X178300000Y-108500000D02*
X178300000Y-111000000D01*
X178300000Y-114620000D02*
X178300000Y-111000000D01*
%TO.N,Net-(D1-K)*%
X178600000Y-88740000D02*
X163100000Y-73240000D01*
X163100000Y-73240000D02*
X146700000Y-73240000D01*
X178600000Y-97500000D02*
X178600000Y-88740000D01*
X147160000Y-73200000D02*
X146900000Y-72940000D01*
%TO.N,Net-(D1-A)*%
X142400000Y-75200000D02*
X142400000Y-70700000D01*
X164600000Y-93400000D02*
X148800000Y-77600000D01*
X148800000Y-77600000D02*
X144800000Y-77600000D01*
X144800000Y-77600000D02*
X142400000Y-75200000D01*
X142400000Y-70700000D02*
X146700000Y-70700000D01*
X168300000Y-102900000D02*
X164600000Y-99200000D01*
X164600000Y-99200000D02*
X164600000Y-93400000D01*
%TO.N,Net-(Q1-B)*%
X177330000Y-102410000D02*
X177330000Y-97500000D01*
X178300000Y-103380000D02*
X177330000Y-102410000D01*
D22*
%TO.N,VCC*%
X168300000Y-107000000D02*
X168400000Y-106900000D01*
X159100000Y-106900000D02*
X168400000Y-106900000D01*
X168300000Y-110520000D02*
X168300000Y-107000000D01*
X153600000Y-106900000D02*
X159100000Y-106900000D01*
X159100000Y-102890000D02*
X159100000Y-106900000D01*
X173000000Y-106900000D02*
X173000000Y-110720000D01*
D23*
X151960000Y-116200000D02*
X159580000Y-123820000D01*
D22*
X168400000Y-106900000D02*
X173000000Y-106900000D01*
D23*
X151960000Y-116200000D02*
X150500000Y-114740000D01*
X150500000Y-106900000D02*
X153600000Y-106900000D01*
X150500000Y-114740000D02*
X150500000Y-106900000D01*
%TO.N,Net-(U1-DIS)*%
X154500000Y-114600000D02*
X158590000Y-110510000D01*
X158590000Y-110510000D02*
X159100000Y-110510000D01*
X154500000Y-116200000D02*
X154500000Y-114600000D01*
%TD*%
%TA.AperFunction,Conductor*%
%TO.N,GND*%
G36*
X180789621Y-41422502D02*
G01*
X180836114Y-41476158D01*
X180847500Y-41528500D01*
X180847500Y-126873500D01*
X180827498Y-126941621D01*
X180773842Y-126988114D01*
X180721500Y-126999500D01*
X127126500Y-126999500D01*
X127058379Y-126979498D01*
X127011886Y-126925842D01*
X127000500Y-126873500D01*
X127000500Y-123820000D01*
X150693179Y-123820000D01*
X150712425Y-124039979D01*
X150769577Y-124253276D01*
X150769579Y-124253281D01*
X150862899Y-124453407D01*
X150908258Y-124518186D01*
X151575096Y-123851348D01*
X151575051Y-123851898D01*
X151606266Y-123975162D01*
X151675813Y-124081612D01*
X151776157Y-124159713D01*
X151896422Y-124201000D01*
X151932552Y-124201000D01*
X151261812Y-124871739D01*
X151261812Y-124871741D01*
X151326590Y-124917099D01*
X151326589Y-124917099D01*
X151526718Y-125010420D01*
X151526723Y-125010422D01*
X151740020Y-125067574D01*
X151959999Y-125086820D01*
X152179979Y-125067574D01*
X152393276Y-125010422D01*
X152393281Y-125010420D01*
X152593410Y-124917099D01*
X152593411Y-124917098D01*
X152658186Y-124871741D01*
X152658186Y-124871740D01*
X151987447Y-124201000D01*
X151991569Y-124201000D01*
X152085421Y-124185339D01*
X152197251Y-124124820D01*
X152283371Y-124031269D01*
X152334448Y-123914823D01*
X152340105Y-123846552D01*
X153011739Y-124518186D01*
X153011741Y-124518186D01*
X153057098Y-124453411D01*
X153057099Y-124453410D01*
X153150420Y-124253281D01*
X153150422Y-124253276D01*
X153207574Y-124039978D01*
X153226819Y-123819999D01*
X153478581Y-123819999D01*
X153498206Y-124019261D01*
X153498206Y-124019263D01*
X153556332Y-124210877D01*
X153556334Y-124210883D01*
X153650720Y-124387466D01*
X153650722Y-124387469D01*
X153777748Y-124542252D01*
X153932531Y-124669278D01*
X154109120Y-124763667D01*
X154300731Y-124821792D01*
X154300735Y-124821792D01*
X154300737Y-124821793D01*
X154499997Y-124841418D01*
X154500000Y-124841418D01*
X154500003Y-124841418D01*
X154699261Y-124821793D01*
X154699263Y-124821793D01*
X154699264Y-124821792D01*
X154699269Y-124821792D01*
X154890880Y-124763667D01*
X155067469Y-124669278D01*
X155222252Y-124542252D01*
X155349278Y-124387469D01*
X155443667Y-124210880D01*
X155501792Y-124019269D01*
X155506136Y-123975162D01*
X155521418Y-123820003D01*
X156018582Y-123820003D01*
X156038206Y-124019261D01*
X156038206Y-124019263D01*
X156096332Y-124210877D01*
X156096334Y-124210883D01*
X156190720Y-124387466D01*
X156190722Y-124387469D01*
X156317748Y-124542252D01*
X156472531Y-124669278D01*
X156649120Y-124763667D01*
X156840731Y-124821792D01*
X156840735Y-124821792D01*
X156840737Y-124821793D01*
X157039997Y-124841418D01*
X157040000Y-124841418D01*
X157040003Y-124841418D01*
X157239261Y-124821793D01*
X157239263Y-124821793D01*
X157239264Y-124821792D01*
X157239269Y-124821792D01*
X157430880Y-124763667D01*
X157607469Y-124669278D01*
X157762252Y-124542252D01*
X157889278Y-124387469D01*
X157983667Y-124210880D01*
X158041792Y-124019269D01*
X158046136Y-123975162D01*
X158061418Y-123820003D01*
X158061418Y-123819996D01*
X158041793Y-123620738D01*
X158041793Y-123620736D01*
X158041792Y-123620733D01*
X158041792Y-123620731D01*
X157983667Y-123429120D01*
X157889278Y-123252531D01*
X157762252Y-123097748D01*
X157607469Y-122970722D01*
X157607467Y-122970721D01*
X157607466Y-122970720D01*
X157430883Y-122876334D01*
X157430877Y-122876332D01*
X157265015Y-122826018D01*
X157239269Y-122818208D01*
X157239268Y-122818207D01*
X157239262Y-122818206D01*
X157040003Y-122798582D01*
X157039997Y-122798582D01*
X156840738Y-122818206D01*
X156840736Y-122818206D01*
X156649122Y-122876332D01*
X156649116Y-122876334D01*
X156472533Y-122970720D01*
X156317748Y-123097748D01*
X156190720Y-123252533D01*
X156096334Y-123429116D01*
X156096332Y-123429122D01*
X156038206Y-123620736D01*
X156038206Y-123620738D01*
X156018582Y-123819996D01*
X156018582Y-123820003D01*
X155521418Y-123820003D01*
X155521418Y-123819996D01*
X155501793Y-123620738D01*
X155501793Y-123620736D01*
X155501792Y-123620733D01*
X155501792Y-123620731D01*
X155443667Y-123429120D01*
X155349278Y-123252531D01*
X155222252Y-123097748D01*
X155067469Y-122970722D01*
X155067467Y-122970721D01*
X155067466Y-122970720D01*
X154890883Y-122876334D01*
X154890877Y-122876332D01*
X154725015Y-122826018D01*
X154699269Y-122818208D01*
X154699268Y-122818207D01*
X154699262Y-122818206D01*
X154500003Y-122798582D01*
X154499997Y-122798582D01*
X154300738Y-122818206D01*
X154300736Y-122818206D01*
X154109122Y-122876332D01*
X154109116Y-122876334D01*
X153932533Y-122970720D01*
X153777748Y-123097748D01*
X153650720Y-123252533D01*
X153556334Y-123429116D01*
X153556332Y-123429122D01*
X153498206Y-123620736D01*
X153498206Y-123620738D01*
X153478581Y-123819999D01*
X153226819Y-123819999D01*
X153207574Y-123600021D01*
X153150422Y-123386723D01*
X153150420Y-123386718D01*
X153057098Y-123186589D01*
X153011741Y-123121812D01*
X152344903Y-123788648D01*
X152344949Y-123788102D01*
X152313734Y-123664838D01*
X152244187Y-123558388D01*
X152143843Y-123480287D01*
X152023578Y-123439000D01*
X151987446Y-123439000D01*
X152658186Y-122768258D01*
X152593407Y-122722899D01*
X152393281Y-122629579D01*
X152393276Y-122629577D01*
X152179979Y-122572425D01*
X151960000Y-122553179D01*
X151740020Y-122572425D01*
X151526723Y-122629577D01*
X151526719Y-122629579D01*
X151326588Y-122722902D01*
X151261811Y-122768258D01*
X151932553Y-123439000D01*
X151928431Y-123439000D01*
X151834579Y-123454661D01*
X151722749Y-123515180D01*
X151636629Y-123608731D01*
X151585552Y-123725177D01*
X151579894Y-123793446D01*
X150908258Y-123121811D01*
X150862902Y-123186588D01*
X150769579Y-123386719D01*
X150769577Y-123386723D01*
X150712425Y-123600020D01*
X150693179Y-123820000D01*
X127000500Y-123820000D01*
X127000500Y-121508540D01*
X136815000Y-121508540D01*
X136821400Y-121568071D01*
X136871647Y-121702789D01*
X136957810Y-121817889D01*
X137072910Y-121904052D01*
X137207628Y-121954299D01*
X137267159Y-121960699D01*
X137267176Y-121960700D01*
X138150000Y-121960700D01*
X138150000Y-120905346D01*
X138247284Y-120945643D01*
X138361656Y-120960700D01*
X138438344Y-120960700D01*
X138552716Y-120945643D01*
X138650000Y-120905346D01*
X138650000Y-121960700D01*
X139532824Y-121960700D01*
X139532840Y-121960699D01*
X139592371Y-121954299D01*
X139727089Y-121904052D01*
X139842189Y-121817889D01*
X139928352Y-121702789D01*
X139978599Y-121568071D01*
X139984999Y-121508540D01*
X139985000Y-121508523D01*
X139985000Y-120625700D01*
X138929647Y-120625700D01*
X138969943Y-120528416D01*
X138990048Y-120375700D01*
X138969943Y-120222984D01*
X138929647Y-120125700D01*
X139985000Y-120125700D01*
X139985000Y-119242876D01*
X139984999Y-119242859D01*
X139978599Y-119183328D01*
X139928352Y-119048610D01*
X139842189Y-118933510D01*
X139727089Y-118847347D01*
X139592371Y-118797100D01*
X139532840Y-118790700D01*
X138650000Y-118790700D01*
X138650000Y-119846053D01*
X138552716Y-119805757D01*
X138438344Y-119790700D01*
X138361656Y-119790700D01*
X138247284Y-119805757D01*
X138150000Y-119846053D01*
X138150000Y-118790700D01*
X137267159Y-118790700D01*
X137207628Y-118797100D01*
X137072910Y-118847347D01*
X136957810Y-118933510D01*
X136871647Y-119048610D01*
X136821400Y-119183328D01*
X136815000Y-119242859D01*
X136815000Y-120125700D01*
X137870353Y-120125700D01*
X137830057Y-120222984D01*
X137809952Y-120375700D01*
X137830057Y-120528416D01*
X137870353Y-120625700D01*
X136815000Y-120625700D01*
X136815000Y-121508540D01*
X127000500Y-121508540D01*
X127000500Y-100375700D01*
X136890848Y-100375700D01*
X136909428Y-100611783D01*
X136945597Y-100762438D01*
X136964711Y-100842054D01*
X137050060Y-101048105D01*
X137055336Y-101060841D01*
X137146870Y-101210212D01*
X137179071Y-101262758D01*
X137179072Y-101262760D01*
X137332867Y-101442832D01*
X137512939Y-101596627D01*
X137512943Y-101596630D01*
X137714859Y-101720364D01*
X137933646Y-101810989D01*
X138163917Y-101866272D01*
X138400000Y-101884852D01*
X138636083Y-101866272D01*
X138866354Y-101810989D01*
X139085141Y-101720364D01*
X139287057Y-101596630D01*
X139467132Y-101442832D01*
X139620930Y-101262757D01*
X139738214Y-101071365D01*
X139790862Y-101023734D01*
X139845647Y-101011200D01*
X149260278Y-101011200D01*
X149328399Y-101031202D01*
X149349373Y-101048105D01*
X152374883Y-104073616D01*
X152408909Y-104135928D01*
X152411251Y-104174337D01*
X152410936Y-104177726D01*
X152410937Y-104177726D01*
X152390341Y-104399995D01*
X152390340Y-104400005D01*
X152410936Y-104622272D01*
X152466026Y-104815895D01*
X152472026Y-104836980D01*
X152571526Y-105036804D01*
X152571527Y-105036805D01*
X152571528Y-105036807D01*
X152706048Y-105214942D01*
X152871014Y-105365328D01*
X152871016Y-105365329D01*
X152871017Y-105365330D01*
X153060808Y-105482843D01*
X153105439Y-105500133D01*
X153189009Y-105532509D01*
X153245304Y-105575768D01*
X153269274Y-105642596D01*
X153253310Y-105711774D01*
X153202479Y-105761340D01*
X153189009Y-105767491D01*
X153060814Y-105817154D01*
X153060807Y-105817157D01*
X152871014Y-105934671D01*
X152706048Y-106085057D01*
X152571528Y-106263192D01*
X152571526Y-106263195D01*
X152571526Y-106263196D01*
X152479173Y-106448665D01*
X152430907Y-106500726D01*
X152366385Y-106518500D01*
X150518390Y-106518500D01*
X150513185Y-106518285D01*
X150494057Y-106516700D01*
X150468060Y-106514546D01*
X150468059Y-106514546D01*
X150424155Y-106525663D01*
X150419065Y-106526730D01*
X150402772Y-106529449D01*
X150374417Y-106534181D01*
X150374407Y-106534184D01*
X150374043Y-106534382D01*
X150345044Y-106545697D01*
X150344636Y-106545800D01*
X150306726Y-106570566D01*
X150302254Y-106573231D01*
X150262438Y-106594779D01*
X150262433Y-106594783D01*
X150262152Y-106595089D01*
X150238398Y-106615207D01*
X150238051Y-106615433D01*
X150238044Y-106615440D01*
X150210232Y-106651171D01*
X150206868Y-106655144D01*
X150176203Y-106688456D01*
X150176039Y-106688831D01*
X150160096Y-106715588D01*
X150159845Y-106715910D01*
X150159839Y-106715920D01*
X150145142Y-106758732D01*
X150143249Y-106763584D01*
X150125059Y-106805053D01*
X150125057Y-106805058D01*
X150125024Y-106805468D01*
X150118635Y-106835944D01*
X150118500Y-106836335D01*
X150118500Y-106881609D01*
X150118285Y-106886814D01*
X150114546Y-106931941D01*
X150114644Y-106932328D01*
X150118500Y-106963259D01*
X150118500Y-114687366D01*
X150115818Y-114713223D01*
X150113554Y-114724016D01*
X150115100Y-114736412D01*
X150118016Y-114759809D01*
X150118500Y-114767600D01*
X150118500Y-114771615D01*
X150118499Y-114771615D01*
X150122403Y-114795003D01*
X150129303Y-114850357D01*
X150131588Y-114858032D01*
X150134180Y-114865582D01*
X150134181Y-114865585D01*
X150134182Y-114865586D01*
X150160729Y-114914641D01*
X150166762Y-114926981D01*
X150185225Y-114964748D01*
X150189868Y-114971251D01*
X150194782Y-114977565D01*
X150235819Y-115015340D01*
X150235819Y-115015341D01*
X150966019Y-115745541D01*
X151000043Y-115807852D01*
X150997498Y-115871211D01*
X150958206Y-116000736D01*
X150958206Y-116000738D01*
X150938582Y-116199996D01*
X150938582Y-116200003D01*
X150958206Y-116399261D01*
X150958206Y-116399263D01*
X151016332Y-116590877D01*
X151016334Y-116590883D01*
X151102711Y-116752482D01*
X151110722Y-116767469D01*
X151237748Y-116922252D01*
X151392531Y-117049278D01*
X151392533Y-117049279D01*
X151560474Y-117139046D01*
X151569120Y-117143667D01*
X151760731Y-117201792D01*
X151760735Y-117201792D01*
X151760737Y-117201793D01*
X151959997Y-117221418D01*
X151960000Y-117221418D01*
X151960003Y-117221418D01*
X152159261Y-117201793D01*
X152159262Y-117201792D01*
X152159269Y-117201792D01*
X152288789Y-117162501D01*
X152359781Y-117161868D01*
X152414459Y-117193981D01*
X158586018Y-123365540D01*
X158620044Y-123427852D01*
X158617498Y-123491211D01*
X158578206Y-123620736D01*
X158578206Y-123620738D01*
X158558582Y-123819996D01*
X158558582Y-123820003D01*
X158578206Y-124019261D01*
X158578206Y-124019263D01*
X158636332Y-124210877D01*
X158636334Y-124210883D01*
X158730720Y-124387466D01*
X158730722Y-124387469D01*
X158857748Y-124542252D01*
X159012531Y-124669278D01*
X159189120Y-124763667D01*
X159380731Y-124821792D01*
X159380735Y-124821792D01*
X159380737Y-124821793D01*
X159579997Y-124841418D01*
X159580000Y-124841418D01*
X159580003Y-124841418D01*
X159779261Y-124821793D01*
X159779263Y-124821793D01*
X159779264Y-124821792D01*
X159779269Y-124821792D01*
X159970880Y-124763667D01*
X160147469Y-124669278D01*
X160302252Y-124542252D01*
X160429278Y-124387469D01*
X160523667Y-124210880D01*
X160581792Y-124019269D01*
X160586136Y-123975162D01*
X160601418Y-123820003D01*
X160601418Y-123819996D01*
X160581793Y-123620738D01*
X160581793Y-123620736D01*
X160581792Y-123620733D01*
X160581792Y-123620731D01*
X160523667Y-123429120D01*
X160429278Y-123252531D01*
X160302252Y-123097748D01*
X160147469Y-122970722D01*
X160147467Y-122970721D01*
X160147466Y-122970720D01*
X159970883Y-122876334D01*
X159970877Y-122876332D01*
X159805015Y-122826018D01*
X159779269Y-122818208D01*
X159779268Y-122818207D01*
X159779262Y-122818206D01*
X159580003Y-122798582D01*
X159579997Y-122798582D01*
X159380738Y-122818206D01*
X159380736Y-122818206D01*
X159294318Y-122844421D01*
X159251210Y-122857498D01*
X159180217Y-122858131D01*
X159125540Y-122826018D01*
X152953982Y-116654459D01*
X152919956Y-116592147D01*
X152922503Y-116528788D01*
X152961791Y-116399272D01*
X152961793Y-116399261D01*
X152981418Y-116200003D01*
X153478582Y-116200003D01*
X153498206Y-116399261D01*
X153498206Y-116399263D01*
X153556332Y-116590877D01*
X153556334Y-116590883D01*
X153642711Y-116752482D01*
X153650722Y-116767469D01*
X153777748Y-116922252D01*
X153932531Y-117049278D01*
X153932533Y-117049279D01*
X154100474Y-117139046D01*
X154109120Y-117143667D01*
X154300731Y-117201792D01*
X154300735Y-117201792D01*
X154300737Y-117201793D01*
X154499997Y-117221418D01*
X154500000Y-117221418D01*
X154500003Y-117221418D01*
X154699261Y-117201793D01*
X154699263Y-117201793D01*
X154699264Y-117201792D01*
X154699269Y-117201792D01*
X154890880Y-117143667D01*
X155067469Y-117049278D01*
X155222252Y-116922252D01*
X155349278Y-116767469D01*
X155443667Y-116590880D01*
X155501792Y-116399269D01*
X155508949Y-116326602D01*
X155521418Y-116200003D01*
X156018582Y-116200003D01*
X156038206Y-116399261D01*
X156038206Y-116399263D01*
X156096332Y-116590877D01*
X156096334Y-116590883D01*
X156182711Y-116752482D01*
X156190722Y-116767469D01*
X156317748Y-116922252D01*
X156472531Y-117049278D01*
X156472533Y-117049279D01*
X156640474Y-117139046D01*
X156649120Y-117143667D01*
X156840731Y-117201792D01*
X156840735Y-117201792D01*
X156840737Y-117201793D01*
X157039997Y-117221418D01*
X157040000Y-117221418D01*
X157040003Y-117221418D01*
X157239261Y-117201793D01*
X157239262Y-117201792D01*
X157239269Y-117201792D01*
X157368789Y-117162501D01*
X157439781Y-117161868D01*
X157494459Y-117193981D01*
X160633019Y-120332542D01*
X160649405Y-120352718D01*
X160655440Y-120361956D01*
X160655441Y-120361957D01*
X160655443Y-120361959D01*
X160683894Y-120384103D01*
X160689753Y-120389276D01*
X160692591Y-120392114D01*
X160698379Y-120396246D01*
X160711900Y-120405901D01*
X160755912Y-120440156D01*
X160755915Y-120440158D01*
X160755916Y-120440158D01*
X160762941Y-120443960D01*
X160770134Y-120447477D01*
X160823586Y-120463389D01*
X160876334Y-120481499D01*
X160876338Y-120481499D01*
X160876339Y-120481500D01*
X160876340Y-120481500D01*
X160884247Y-120482819D01*
X160892157Y-120483805D01*
X160892158Y-120483804D01*
X160892159Y-120483805D01*
X160947884Y-120481500D01*
X162436339Y-120481500D01*
X164219501Y-120481500D01*
X164287622Y-120501502D01*
X164334115Y-120555158D01*
X164345501Y-120607500D01*
X164345501Y-120925072D01*
X164360265Y-120999300D01*
X164423411Y-121093803D01*
X164419714Y-121096272D01*
X164442206Y-121137461D01*
X164437141Y-121208276D01*
X164408188Y-121253332D01*
X164400337Y-121261183D01*
X164269866Y-121447516D01*
X164173734Y-121653671D01*
X164173732Y-121653676D01*
X164114859Y-121873397D01*
X164095034Y-122100000D01*
X164114859Y-122326602D01*
X164173732Y-122546323D01*
X164173734Y-122546328D01*
X164269867Y-122752486D01*
X164320972Y-122825471D01*
X165002045Y-122144399D01*
X165014835Y-122225148D01*
X165072359Y-122338045D01*
X165161955Y-122427641D01*
X165274852Y-122485165D01*
X165355598Y-122497953D01*
X164674527Y-123179024D01*
X164674527Y-123179027D01*
X164747513Y-123230132D01*
X164953671Y-123326265D01*
X164953676Y-123326267D01*
X165173397Y-123385140D01*
X165400000Y-123404965D01*
X165626602Y-123385140D01*
X165846323Y-123326267D01*
X165846328Y-123326265D01*
X166052482Y-123230134D01*
X166125471Y-123179026D01*
X166125471Y-123179025D01*
X165444400Y-122497953D01*
X165525148Y-122485165D01*
X165638045Y-122427641D01*
X165727641Y-122338045D01*
X165785165Y-122225148D01*
X165797953Y-122144400D01*
X166479024Y-122825471D01*
X166479026Y-122825471D01*
X166530134Y-122752482D01*
X166626265Y-122546328D01*
X166626267Y-122546323D01*
X166685140Y-122326602D01*
X166704965Y-122100000D01*
X166685140Y-121873397D01*
X166626267Y-121653676D01*
X166626265Y-121653671D01*
X166530133Y-121447516D01*
X166399664Y-121261187D01*
X166399659Y-121261181D01*
X166391818Y-121253340D01*
X166357792Y-121191028D01*
X166362857Y-121120213D01*
X166378870Y-121095326D01*
X166376590Y-121093802D01*
X166439733Y-120999302D01*
X166439732Y-120999302D01*
X166439734Y-120999301D01*
X166454500Y-120925067D01*
X166454499Y-119274934D01*
X166454498Y-119274930D01*
X166454498Y-119274926D01*
X166439734Y-119200699D01*
X166383483Y-119116515D01*
X166299302Y-119060266D01*
X166225067Y-119045500D01*
X164574936Y-119045500D01*
X164574926Y-119045501D01*
X164500699Y-119060265D01*
X164416515Y-119116516D01*
X164360266Y-119200697D01*
X164345500Y-119274930D01*
X164345500Y-119592500D01*
X164325498Y-119660621D01*
X164271842Y-119707114D01*
X164219500Y-119718500D01*
X161150212Y-119718500D01*
X161082091Y-119698498D01*
X161061117Y-119681595D01*
X158033982Y-116654459D01*
X157999956Y-116592147D01*
X158002503Y-116528788D01*
X158041791Y-116399272D01*
X158041793Y-116399261D01*
X158061418Y-116200003D01*
X158558582Y-116200003D01*
X158578206Y-116399261D01*
X158578206Y-116399263D01*
X158636332Y-116590877D01*
X158636334Y-116590883D01*
X158722711Y-116752482D01*
X158730722Y-116767469D01*
X158857748Y-116922252D01*
X159012531Y-117049278D01*
X159012533Y-117049279D01*
X159180474Y-117139046D01*
X159189120Y-117143667D01*
X159380731Y-117201792D01*
X159380735Y-117201792D01*
X159380737Y-117201793D01*
X159579997Y-117221418D01*
X159580000Y-117221418D01*
X159580003Y-117221418D01*
X159779261Y-117201793D01*
X159779263Y-117201793D01*
X159779264Y-117201792D01*
X159779269Y-117201792D01*
X159970880Y-117143667D01*
X160147469Y-117049278D01*
X160302252Y-116922252D01*
X160429278Y-116767469D01*
X160523667Y-116590880D01*
X160581792Y-116399269D01*
X160588949Y-116326602D01*
X160601418Y-116200003D01*
X160601418Y-116199996D01*
X160591569Y-116100000D01*
X167895034Y-116100000D01*
X167914859Y-116326602D01*
X167973732Y-116546323D01*
X167973734Y-116546328D01*
X168069867Y-116752486D01*
X168120972Y-116825471D01*
X168802045Y-116144398D01*
X168814835Y-116225148D01*
X168872359Y-116338045D01*
X168961955Y-116427641D01*
X169074852Y-116485165D01*
X169155598Y-116497953D01*
X168474527Y-117179024D01*
X168474527Y-117179027D01*
X168547513Y-117230132D01*
X168753671Y-117326265D01*
X168753676Y-117326267D01*
X168973397Y-117385140D01*
X169200000Y-117404965D01*
X169426602Y-117385140D01*
X169646323Y-117326267D01*
X169646328Y-117326265D01*
X169852482Y-117230134D01*
X169925471Y-117179026D01*
X169925471Y-117179025D01*
X169244400Y-116497953D01*
X169325148Y-116485165D01*
X169438045Y-116427641D01*
X169527641Y-116338045D01*
X169585165Y-116225148D01*
X169597953Y-116144400D01*
X170279024Y-116825471D01*
X170279026Y-116825471D01*
X170330134Y-116752482D01*
X170426265Y-116546328D01*
X170426267Y-116546323D01*
X170485140Y-116326602D01*
X170504965Y-116100000D01*
X170485140Y-115873397D01*
X170426267Y-115653676D01*
X170426265Y-115653671D01*
X170330132Y-115447513D01*
X170279026Y-115374527D01*
X169597953Y-116055598D01*
X169585165Y-115974852D01*
X169527641Y-115861955D01*
X169438045Y-115772359D01*
X169325148Y-115714835D01*
X169244399Y-115702046D01*
X169925471Y-115020972D01*
X169925471Y-115020971D01*
X169852486Y-114969867D01*
X169646328Y-114873734D01*
X169646323Y-114873732D01*
X169426602Y-114814859D01*
X169200000Y-114795034D01*
X168973397Y-114814859D01*
X168753676Y-114873732D01*
X168753672Y-114873734D01*
X168547515Y-114969867D01*
X168474526Y-115020973D01*
X169155599Y-115702046D01*
X169074852Y-115714835D01*
X168961955Y-115772359D01*
X168872359Y-115861955D01*
X168814835Y-115974852D01*
X168802046Y-116055600D01*
X168120972Y-115374526D01*
X168069867Y-115447515D01*
X167973734Y-115653672D01*
X167973732Y-115653676D01*
X167914859Y-115873397D01*
X167895034Y-116100000D01*
X160591569Y-116100000D01*
X160581793Y-116000738D01*
X160581793Y-116000736D01*
X160581792Y-116000733D01*
X160581792Y-116000731D01*
X160523667Y-115809120D01*
X160429278Y-115632531D01*
X160302252Y-115477748D01*
X160147469Y-115350722D01*
X160147467Y-115350721D01*
X160147466Y-115350720D01*
X159970883Y-115256334D01*
X159970877Y-115256332D01*
X159847725Y-115218974D01*
X159779269Y-115198208D01*
X159779268Y-115198207D01*
X159779262Y-115198206D01*
X159580003Y-115178582D01*
X159579997Y-115178582D01*
X159380738Y-115198206D01*
X159380736Y-115198206D01*
X159189122Y-115256332D01*
X159189116Y-115256334D01*
X159012533Y-115350720D01*
X158857748Y-115477748D01*
X158730720Y-115632533D01*
X158636334Y-115809116D01*
X158636332Y-115809122D01*
X158578206Y-116000736D01*
X158578206Y-116000738D01*
X158558582Y-116199996D01*
X158558582Y-116200003D01*
X158061418Y-116200003D01*
X158061418Y-116199996D01*
X158041793Y-116000738D01*
X158041793Y-116000736D01*
X158041792Y-116000733D01*
X158041792Y-116000731D01*
X157983667Y-115809120D01*
X157889278Y-115632531D01*
X157762252Y-115477748D01*
X157607469Y-115350722D01*
X157520590Y-115304284D01*
X157488103Y-115286919D01*
X157437455Y-115237166D01*
X157421500Y-115175797D01*
X157421500Y-114770213D01*
X157441502Y-114702092D01*
X157458405Y-114681117D01*
X158321119Y-113818404D01*
X158383431Y-113784379D01*
X158410214Y-113781500D01*
X159247366Y-113781500D01*
X159273224Y-113784181D01*
X159284017Y-113786445D01*
X159319809Y-113781983D01*
X159327600Y-113781500D01*
X159331611Y-113781500D01*
X159355005Y-113777596D01*
X159362887Y-113776613D01*
X159410360Y-113770696D01*
X159410362Y-113770694D01*
X159418011Y-113768417D01*
X159425584Y-113765818D01*
X159425586Y-113765818D01*
X159474641Y-113739270D01*
X159524746Y-113714776D01*
X159524750Y-113714771D01*
X159531266Y-113710120D01*
X159537562Y-113705220D01*
X159575341Y-113664180D01*
X162211118Y-111028405D01*
X162273430Y-110994379D01*
X162300213Y-110991500D01*
X162632710Y-110991500D01*
X162700831Y-111011502D01*
X162743832Y-111058104D01*
X162818974Y-111198686D01*
X162950747Y-111359252D01*
X163111313Y-111491024D01*
X163111313Y-111491025D01*
X163126130Y-111498945D01*
X163294508Y-111588945D01*
X163493282Y-111649242D01*
X163493286Y-111649242D01*
X163493288Y-111649243D01*
X163699997Y-111669602D01*
X163700000Y-111669602D01*
X163700003Y-111669602D01*
X163906711Y-111649243D01*
X163906712Y-111649242D01*
X163906718Y-111649242D01*
X164105492Y-111588945D01*
X164288683Y-111491027D01*
X164288684Y-111491025D01*
X164288686Y-111491025D01*
X164288686Y-111491024D01*
X164449252Y-111359252D01*
X164581027Y-111198683D01*
X164678945Y-111015492D01*
X164739242Y-110816718D01*
X164741551Y-110793282D01*
X164759602Y-110610003D01*
X164759602Y-110609996D01*
X164739243Y-110403288D01*
X164739242Y-110403286D01*
X164739242Y-110403282D01*
X164678945Y-110204508D01*
X164581027Y-110021317D01*
X164581025Y-110021313D01*
X164449252Y-109860747D01*
X164288686Y-109728975D01*
X164288686Y-109728974D01*
X164105492Y-109631055D01*
X163906711Y-109570756D01*
X163700003Y-109550398D01*
X163699997Y-109550398D01*
X163493288Y-109570756D01*
X163294507Y-109631055D01*
X163111313Y-109728974D01*
X163111313Y-109728975D01*
X162950747Y-109860747D01*
X162818975Y-110021313D01*
X162818974Y-110021313D01*
X162743832Y-110161896D01*
X162694080Y-110212544D01*
X162632710Y-110228500D01*
X162142635Y-110228500D01*
X162116776Y-110225818D01*
X162105982Y-110223554D01*
X162083788Y-110226321D01*
X162070189Y-110228016D01*
X162062401Y-110228500D01*
X162058389Y-110228500D01*
X162040842Y-110231428D01*
X162034992Y-110232404D01*
X161979642Y-110239303D01*
X161971983Y-110241583D01*
X161964415Y-110244181D01*
X161915358Y-110270729D01*
X161865256Y-110295222D01*
X161858743Y-110299872D01*
X161852437Y-110304780D01*
X161814657Y-110345820D01*
X159178882Y-112981595D01*
X159116570Y-113015621D01*
X159089787Y-113018500D01*
X158252635Y-113018500D01*
X158226776Y-113015818D01*
X158215982Y-113013554D01*
X158193788Y-113016321D01*
X158180189Y-113018016D01*
X158172401Y-113018500D01*
X158168389Y-113018500D01*
X158150842Y-113021428D01*
X158144992Y-113022404D01*
X158089642Y-113029303D01*
X158081974Y-113031586D01*
X158074414Y-113034181D01*
X158025369Y-113060722D01*
X157975255Y-113085222D01*
X157968760Y-113089859D01*
X157962436Y-113094781D01*
X157924668Y-113135808D01*
X156807455Y-114253020D01*
X156787282Y-114269404D01*
X156778041Y-114275441D01*
X156755896Y-114303893D01*
X156750736Y-114309738D01*
X156747892Y-114312583D01*
X156734099Y-114331900D01*
X156699840Y-114375916D01*
X156696030Y-114382958D01*
X156692524Y-114390129D01*
X156676610Y-114443586D01*
X156658499Y-114496339D01*
X156657184Y-114504218D01*
X156656194Y-114512160D01*
X156658500Y-114567884D01*
X156658500Y-115175797D01*
X156638498Y-115243918D01*
X156591897Y-115286919D01*
X156540822Y-115314219D01*
X156472531Y-115350722D01*
X156317747Y-115477748D01*
X156317748Y-115477748D01*
X156190720Y-115632533D01*
X156096334Y-115809116D01*
X156096332Y-115809122D01*
X156038206Y-116000736D01*
X156038206Y-116000738D01*
X156018582Y-116199996D01*
X156018582Y-116200003D01*
X155521418Y-116200003D01*
X155521418Y-116199996D01*
X155501793Y-116000738D01*
X155501793Y-116000736D01*
X155501792Y-116000733D01*
X155501792Y-116000731D01*
X155443667Y-115809120D01*
X155349278Y-115632531D01*
X155222252Y-115477748D01*
X155067469Y-115350722D01*
X154980590Y-115304284D01*
X154948103Y-115286919D01*
X154897455Y-115237166D01*
X154881500Y-115175797D01*
X154881500Y-114810211D01*
X154901502Y-114742090D01*
X154918400Y-114721121D01*
X158286213Y-111353307D01*
X158348523Y-111319283D01*
X158419338Y-111324348D01*
X158455235Y-111345002D01*
X158511317Y-111391027D01*
X158694508Y-111488945D01*
X158893282Y-111549242D01*
X158893286Y-111549242D01*
X158893288Y-111549243D01*
X159099997Y-111569602D01*
X159100000Y-111569602D01*
X159100003Y-111569602D01*
X159306711Y-111549243D01*
X159306712Y-111549242D01*
X159306718Y-111549242D01*
X159505492Y-111488945D01*
X159688683Y-111391027D01*
X159688684Y-111391025D01*
X159688686Y-111391025D01*
X159688686Y-111391024D01*
X159849252Y-111259252D01*
X159981027Y-111098683D01*
X160078945Y-110915492D01*
X160139242Y-110716718D01*
X160149754Y-110609996D01*
X160159602Y-110510003D01*
X160159602Y-110509996D01*
X160139243Y-110303288D01*
X160139242Y-110303286D01*
X160139242Y-110303282D01*
X160078945Y-110104508D01*
X159981027Y-109921317D01*
X159981025Y-109921313D01*
X159849252Y-109760747D01*
X159688686Y-109628975D01*
X159688686Y-109628974D01*
X159505492Y-109531055D01*
X159306711Y-109470756D01*
X159100003Y-109450398D01*
X159099997Y-109450398D01*
X158893288Y-109470756D01*
X158694507Y-109531055D01*
X158511313Y-109628974D01*
X158511313Y-109628975D01*
X158350747Y-109760747D01*
X158218975Y-109921313D01*
X158218974Y-109921313D01*
X158121055Y-110104507D01*
X158060756Y-110303288D01*
X158043715Y-110476314D01*
X158017132Y-110542146D01*
X158007417Y-110553059D01*
X154267455Y-114293020D01*
X154247282Y-114309404D01*
X154238041Y-114315441D01*
X154215896Y-114343893D01*
X154210736Y-114349738D01*
X154207892Y-114352583D01*
X154194099Y-114371900D01*
X154159840Y-114415916D01*
X154156030Y-114422958D01*
X154152524Y-114430129D01*
X154136610Y-114483586D01*
X154118499Y-114536339D01*
X154117184Y-114544218D01*
X154116194Y-114552160D01*
X154118500Y-114607884D01*
X154118500Y-115175797D01*
X154098498Y-115243918D01*
X154051897Y-115286919D01*
X154000822Y-115314219D01*
X153932531Y-115350722D01*
X153777747Y-115477748D01*
X153777748Y-115477748D01*
X153650720Y-115632533D01*
X153556334Y-115809116D01*
X153556332Y-115809122D01*
X153498206Y-116000736D01*
X153498206Y-116000738D01*
X153478582Y-116199996D01*
X153478582Y-116200003D01*
X152981418Y-116200003D01*
X152981418Y-116199996D01*
X152961793Y-116000738D01*
X152961793Y-116000736D01*
X152961792Y-116000733D01*
X152961792Y-116000731D01*
X152903667Y-115809120D01*
X152809278Y-115632531D01*
X152682252Y-115477748D01*
X152527469Y-115350722D01*
X152527467Y-115350721D01*
X152527466Y-115350720D01*
X152350883Y-115256334D01*
X152350877Y-115256332D01*
X152227725Y-115218974D01*
X152159269Y-115198208D01*
X152159268Y-115198207D01*
X152159262Y-115198206D01*
X151960003Y-115178582D01*
X151959997Y-115178582D01*
X151760738Y-115198206D01*
X151760733Y-115198207D01*
X151631210Y-115237497D01*
X151560216Y-115238130D01*
X151505540Y-115206017D01*
X150918405Y-114618882D01*
X150884379Y-114556570D01*
X150881500Y-114529787D01*
X150881500Y-107407500D01*
X150901502Y-107339379D01*
X150955158Y-107292886D01*
X151007500Y-107281500D01*
X152366385Y-107281500D01*
X152434506Y-107301502D01*
X152479173Y-107351334D01*
X152571526Y-107536804D01*
X152571527Y-107536805D01*
X152571528Y-107536807D01*
X152706048Y-107714942D01*
X152871014Y-107865328D01*
X152871016Y-107865329D01*
X152871017Y-107865330D01*
X153027750Y-107962374D01*
X153075136Y-108015239D01*
X153086419Y-108085333D01*
X153058016Y-108150400D01*
X152998943Y-108189782D01*
X152961418Y-108195500D01*
X152624936Y-108195500D01*
X152624926Y-108195501D01*
X152550699Y-108210265D01*
X152466515Y-108266516D01*
X152410266Y-108350697D01*
X152395500Y-108424930D01*
X152395500Y-110375063D01*
X152395501Y-110375073D01*
X152410265Y-110449300D01*
X152466516Y-110533484D01*
X152550697Y-110589733D01*
X152550699Y-110589734D01*
X152624933Y-110604500D01*
X154575066Y-110604499D01*
X154575069Y-110604498D01*
X154575073Y-110604498D01*
X154625303Y-110594507D01*
X154649301Y-110589734D01*
X154733484Y-110533484D01*
X154789734Y-110449301D01*
X154804500Y-110375067D01*
X154804499Y-108424934D01*
X154804498Y-108424930D01*
X154804498Y-108424926D01*
X154789734Y-108350699D01*
X154772801Y-108325358D01*
X154733484Y-108266516D01*
X154727378Y-108262436D01*
X154649302Y-108210266D01*
X154575069Y-108195500D01*
X154238582Y-108195500D01*
X154170461Y-108175498D01*
X154123968Y-108121842D01*
X154113864Y-108051568D01*
X154143358Y-107986988D01*
X154172246Y-107962376D01*
X154328983Y-107865330D01*
X154493950Y-107714943D01*
X154591649Y-107585568D01*
X154648662Y-107543261D01*
X154692199Y-107535500D01*
X159019718Y-107535500D01*
X159028016Y-107535500D01*
X159051626Y-107537731D01*
X159059779Y-107539287D01*
X159118012Y-107535623D01*
X159121945Y-107535500D01*
X167538500Y-107535500D01*
X167606621Y-107555502D01*
X167653114Y-107609158D01*
X167664500Y-107661500D01*
X167664500Y-109617800D01*
X167644498Y-109685921D01*
X167618434Y-109715199D01*
X167550745Y-109770750D01*
X167418975Y-109931313D01*
X167418974Y-109931313D01*
X167321055Y-110114507D01*
X167260756Y-110313288D01*
X167240398Y-110519996D01*
X167240398Y-110520003D01*
X167260756Y-110726711D01*
X167321055Y-110925492D01*
X167418974Y-111108686D01*
X167550747Y-111269252D01*
X167711313Y-111401024D01*
X167711313Y-111401025D01*
X167711317Y-111401027D01*
X167894508Y-111498945D01*
X168093282Y-111559242D01*
X168093286Y-111559242D01*
X168093288Y-111559243D01*
X168299997Y-111579602D01*
X168300000Y-111579602D01*
X168300003Y-111579602D01*
X168506711Y-111559243D01*
X168506712Y-111559242D01*
X168506718Y-111559242D01*
X168705492Y-111498945D01*
X168888683Y-111401027D01*
X168888684Y-111401025D01*
X168888686Y-111401025D01*
X168888686Y-111401024D01*
X169049252Y-111269252D01*
X169181027Y-111108683D01*
X169278945Y-110925492D01*
X169339242Y-110726718D01*
X169339904Y-110720003D01*
X169359602Y-110520003D01*
X169359602Y-110519996D01*
X169339243Y-110313288D01*
X169339242Y-110313286D01*
X169339242Y-110313282D01*
X169278945Y-110114508D01*
X169181027Y-109931317D01*
X169181025Y-109931313D01*
X169049254Y-109770750D01*
X168981566Y-109715199D01*
X168941597Y-109656522D01*
X168935500Y-109617800D01*
X168935500Y-107661500D01*
X168955502Y-107593379D01*
X169009158Y-107546886D01*
X169061500Y-107535500D01*
X172238500Y-107535500D01*
X172306621Y-107555502D01*
X172353114Y-107609158D01*
X172364500Y-107661500D01*
X172364500Y-109817800D01*
X172344498Y-109885921D01*
X172318434Y-109915199D01*
X172250745Y-109970750D01*
X172118975Y-110131313D01*
X172118974Y-110131313D01*
X172021055Y-110314507D01*
X171960756Y-110513288D01*
X171940398Y-110719996D01*
X171940398Y-110720003D01*
X171960756Y-110926711D01*
X171960757Y-110926717D01*
X171960758Y-110926718D01*
X171982988Y-111000000D01*
X172021055Y-111125492D01*
X172118974Y-111308686D01*
X172250747Y-111469252D01*
X172411313Y-111601024D01*
X172411313Y-111601025D01*
X172411317Y-111601027D01*
X172594508Y-111698945D01*
X172793282Y-111759242D01*
X172793286Y-111759242D01*
X172793288Y-111759243D01*
X172999997Y-111779602D01*
X173000000Y-111779602D01*
X173000003Y-111779602D01*
X173206711Y-111759243D01*
X173206712Y-111759242D01*
X173206718Y-111759242D01*
X173405492Y-111698945D01*
X173588683Y-111601027D01*
X173588684Y-111601025D01*
X173588686Y-111601025D01*
X173588686Y-111601024D01*
X173749252Y-111469252D01*
X173881027Y-111308683D01*
X173978945Y-111125492D01*
X174039242Y-110926718D01*
X174052385Y-110793282D01*
X174059602Y-110720003D01*
X174059602Y-110719996D01*
X174039243Y-110513288D01*
X174039242Y-110513286D01*
X174039242Y-110513282D01*
X173978945Y-110314508D01*
X173881027Y-110131317D01*
X173881025Y-110131313D01*
X173749254Y-109970750D01*
X173681566Y-109915199D01*
X173641597Y-109856522D01*
X173635500Y-109817800D01*
X173635500Y-106971984D01*
X173637732Y-106948370D01*
X173637888Y-106947553D01*
X173639287Y-106940221D01*
X173635623Y-106881988D01*
X173635500Y-106878052D01*
X173635500Y-106860024D01*
X173635500Y-106860017D01*
X173633236Y-106842103D01*
X173632867Y-106838204D01*
X173629205Y-106779973D01*
X173626640Y-106772081D01*
X173621468Y-106748938D01*
X173620427Y-106740703D01*
X173620427Y-106740701D01*
X173598945Y-106686446D01*
X173597614Y-106682749D01*
X173587354Y-106651171D01*
X173579588Y-106627267D01*
X173575141Y-106620260D01*
X173564371Y-106599122D01*
X173562774Y-106595089D01*
X173561319Y-106591412D01*
X173527029Y-106544216D01*
X173524805Y-106540943D01*
X173520641Y-106534382D01*
X173510426Y-106518285D01*
X173493553Y-106491696D01*
X173493551Y-106491695D01*
X173487500Y-106486012D01*
X173471821Y-106468228D01*
X173466942Y-106461513D01*
X173421999Y-106424333D01*
X173419029Y-106421715D01*
X173376508Y-106381785D01*
X173376502Y-106381780D01*
X173369231Y-106377783D01*
X173349622Y-106364457D01*
X173343230Y-106359169D01*
X173343226Y-106359167D01*
X173343224Y-106359165D01*
X173331557Y-106353674D01*
X173290443Y-106334326D01*
X173286918Y-106332530D01*
X173235808Y-106304433D01*
X173235805Y-106304432D01*
X173235803Y-106304431D01*
X173227752Y-106302363D01*
X173205453Y-106294334D01*
X173197943Y-106290800D01*
X173197940Y-106290799D01*
X173140643Y-106279868D01*
X173136782Y-106279005D01*
X173080283Y-106264500D01*
X173080282Y-106264500D01*
X173071984Y-106264500D01*
X173048373Y-106262268D01*
X173046654Y-106261940D01*
X173040223Y-106260713D01*
X173040218Y-106260713D01*
X173028651Y-106261440D01*
X172981987Y-106264376D01*
X172978055Y-106264500D01*
X168484070Y-106264500D01*
X168468201Y-106262747D01*
X168468174Y-106263038D01*
X168460281Y-106262292D01*
X168390029Y-106264500D01*
X159861500Y-106264500D01*
X159793379Y-106244498D01*
X159746886Y-106190842D01*
X159735500Y-106138500D01*
X159735500Y-103792199D01*
X159755502Y-103724078D01*
X159781567Y-103694799D01*
X159789016Y-103688686D01*
X159849252Y-103639252D01*
X159981027Y-103478683D01*
X160078945Y-103295492D01*
X160139242Y-103096718D01*
X160149753Y-102990003D01*
X162640398Y-102990003D01*
X162660756Y-103196711D01*
X162660757Y-103196717D01*
X162660758Y-103196718D01*
X162721054Y-103395492D01*
X162721055Y-103395492D01*
X162818974Y-103578686D01*
X162950747Y-103739252D01*
X163111313Y-103871024D01*
X163111313Y-103871025D01*
X163126130Y-103878945D01*
X163294508Y-103968945D01*
X163493282Y-104029242D01*
X163493286Y-104029242D01*
X163493288Y-104029243D01*
X163699997Y-104049602D01*
X163700000Y-104049602D01*
X163700003Y-104049602D01*
X163906711Y-104029243D01*
X163906712Y-104029242D01*
X163906718Y-104029242D01*
X164105492Y-103968945D01*
X164288683Y-103871027D01*
X164288684Y-103871025D01*
X164288686Y-103871025D01*
X164288686Y-103871024D01*
X164449252Y-103739252D01*
X164581027Y-103578683D01*
X164678945Y-103395492D01*
X164739242Y-103196718D01*
X164741551Y-103173282D01*
X164759602Y-102990003D01*
X164759602Y-102989996D01*
X164739243Y-102783288D01*
X164739242Y-102783286D01*
X164739242Y-102783282D01*
X164678945Y-102584508D01*
X164581027Y-102401317D01*
X164581025Y-102401313D01*
X164449252Y-102240747D01*
X164288686Y-102108975D01*
X164288686Y-102108974D01*
X164105492Y-102011055D01*
X163906711Y-101950756D01*
X163700003Y-101930398D01*
X163699997Y-101930398D01*
X163493288Y-101950756D01*
X163294507Y-102011055D01*
X163111313Y-102108974D01*
X163111313Y-102108975D01*
X162950747Y-102240747D01*
X162818975Y-102401313D01*
X162818974Y-102401313D01*
X162721055Y-102584507D01*
X162660756Y-102783288D01*
X162640398Y-102989996D01*
X162640398Y-102990003D01*
X160149753Y-102990003D01*
X160149754Y-102989996D01*
X160159602Y-102890003D01*
X160159602Y-102889996D01*
X160139243Y-102683288D01*
X160139242Y-102683286D01*
X160139242Y-102683282D01*
X160078945Y-102484508D01*
X159981027Y-102301317D01*
X159981025Y-102301313D01*
X159849252Y-102140747D01*
X159688686Y-102008975D01*
X159688686Y-102008974D01*
X159505492Y-101911055D01*
X159492223Y-101907030D01*
X159306718Y-101850758D01*
X159306717Y-101850757D01*
X159306711Y-101850756D01*
X159100003Y-101830398D01*
X159099997Y-101830398D01*
X158893288Y-101850756D01*
X158694507Y-101911055D01*
X158511313Y-102008974D01*
X158511313Y-102008975D01*
X158350747Y-102140747D01*
X158218975Y-102301313D01*
X158218974Y-102301313D01*
X158121055Y-102484507D01*
X158060756Y-102683288D01*
X158040398Y-102889996D01*
X158040398Y-102890003D01*
X158060756Y-103096711D01*
X158060757Y-103096717D01*
X158060758Y-103096718D01*
X158121055Y-103295492D01*
X158218973Y-103478683D01*
X158350748Y-103639252D01*
X158410984Y-103688686D01*
X158418433Y-103694799D01*
X158458402Y-103753476D01*
X158464500Y-103792199D01*
X158464500Y-106138500D01*
X158444498Y-106206621D01*
X158390842Y-106253114D01*
X158338500Y-106264500D01*
X154692199Y-106264500D01*
X154624078Y-106244498D01*
X154591648Y-106214431D01*
X154585750Y-106206621D01*
X154534308Y-106138500D01*
X154493950Y-106085056D01*
X154328985Y-105934671D01*
X154139192Y-105817157D01*
X154139185Y-105817154D01*
X154010990Y-105767491D01*
X153954695Y-105724232D01*
X153930725Y-105657404D01*
X153946689Y-105588226D01*
X153997520Y-105538660D01*
X154010990Y-105532509D01*
X154047396Y-105518405D01*
X154139192Y-105482843D01*
X154328983Y-105365330D01*
X154493950Y-105214943D01*
X154628474Y-105036804D01*
X154727974Y-104836980D01*
X154789063Y-104622274D01*
X154795928Y-104548182D01*
X154809660Y-104400004D01*
X154809660Y-104399995D01*
X154789063Y-104177727D01*
X154788098Y-104174337D01*
X154727974Y-103963020D01*
X154628474Y-103763196D01*
X154621134Y-103753476D01*
X154493951Y-103585057D01*
X154328985Y-103434671D01*
X154139192Y-103317157D01*
X154139185Y-103317154D01*
X153931045Y-103236519D01*
X153875185Y-103226077D01*
X153711613Y-103195500D01*
X153488387Y-103195500D01*
X153390091Y-103213873D01*
X153319455Y-103206728D01*
X153277846Y-103179113D01*
X150084515Y-99985782D01*
X150074531Y-99973320D01*
X150074307Y-99973506D01*
X150069254Y-99967398D01*
X150018006Y-99919273D01*
X149996799Y-99898065D01*
X149996794Y-99898061D01*
X149991220Y-99893737D01*
X149986715Y-99889889D01*
X149952206Y-99857483D01*
X149952199Y-99857478D01*
X149934373Y-99847678D01*
X149917847Y-99836823D01*
X149901766Y-99824349D01*
X149901767Y-99824349D01*
X149858312Y-99805545D01*
X149852979Y-99802932D01*
X149811505Y-99780132D01*
X149811503Y-99780131D01*
X149791785Y-99775068D01*
X149773082Y-99768664D01*
X149754406Y-99760582D01*
X149707641Y-99753175D01*
X149701835Y-99751973D01*
X149686561Y-99748051D01*
X149655986Y-99740200D01*
X149655982Y-99740200D01*
X149635634Y-99740200D01*
X149615924Y-99738649D01*
X149595821Y-99735465D01*
X149595820Y-99735465D01*
X149548689Y-99739920D01*
X149542756Y-99740200D01*
X139845647Y-99740200D01*
X139777526Y-99720198D01*
X139738214Y-99680034D01*
X139620932Y-99488646D01*
X139620927Y-99488639D01*
X139467132Y-99308567D01*
X139287060Y-99154772D01*
X139287058Y-99154771D01*
X139287057Y-99154770D01*
X139085141Y-99031036D01*
X139050217Y-99016570D01*
X138866354Y-98940411D01*
X138636083Y-98885128D01*
X138400000Y-98866548D01*
X138399999Y-98866548D01*
X138163917Y-98885128D01*
X137933645Y-98940411D01*
X137714860Y-99031035D01*
X137512941Y-99154771D01*
X137512939Y-99154772D01*
X137332867Y-99308567D01*
X137179072Y-99488639D01*
X137179071Y-99488641D01*
X137055335Y-99690560D01*
X136964711Y-99909345D01*
X136948722Y-99975944D01*
X136909428Y-100139617D01*
X136890848Y-100375700D01*
X127000500Y-100375700D01*
X127000500Y-97200003D01*
X159540398Y-97200003D01*
X159560756Y-97406711D01*
X159621055Y-97605492D01*
X159718974Y-97788686D01*
X159850747Y-97949252D01*
X160011313Y-98081024D01*
X160011313Y-98081025D01*
X160011317Y-98081027D01*
X160194508Y-98178945D01*
X160393282Y-98239242D01*
X160393286Y-98239242D01*
X160393288Y-98239243D01*
X160599997Y-98259602D01*
X160600000Y-98259602D01*
X160600003Y-98259602D01*
X160806711Y-98239243D01*
X160806712Y-98239242D01*
X160806718Y-98239242D01*
X161005492Y-98178945D01*
X161188683Y-98081027D01*
X161188684Y-98081025D01*
X161188686Y-98081025D01*
X161188686Y-98081024D01*
X161349252Y-97949252D01*
X161481027Y-97788683D01*
X161578945Y-97605492D01*
X161639242Y-97406718D01*
X161654678Y-97250000D01*
X161659602Y-97200003D01*
X161659602Y-97199996D01*
X161639243Y-96993288D01*
X161639242Y-96993286D01*
X161639242Y-96993282D01*
X161578945Y-96794508D01*
X161481027Y-96611317D01*
X161481025Y-96611313D01*
X161349252Y-96450747D01*
X161188686Y-96318975D01*
X161188686Y-96318974D01*
X161005492Y-96221055D01*
X160806711Y-96160756D01*
X160600003Y-96140398D01*
X160599997Y-96140398D01*
X160393288Y-96160756D01*
X160194507Y-96221055D01*
X160011313Y-96318974D01*
X160011313Y-96318975D01*
X159850747Y-96450747D01*
X159718975Y-96611313D01*
X159718974Y-96611313D01*
X159621055Y-96794507D01*
X159560756Y-96993288D01*
X159540398Y-97199996D01*
X159540398Y-97200003D01*
X127000500Y-97200003D01*
X127000500Y-75184016D01*
X142013554Y-75184016D01*
X142016110Y-75204518D01*
X142018016Y-75219809D01*
X142018500Y-75227600D01*
X142018500Y-75231615D01*
X142018499Y-75231615D01*
X142022403Y-75255003D01*
X142029303Y-75310357D01*
X142031588Y-75318032D01*
X142034180Y-75325582D01*
X142034181Y-75325585D01*
X142034182Y-75325586D01*
X142060729Y-75374641D01*
X142085224Y-75424746D01*
X142085225Y-75424748D01*
X142089868Y-75431251D01*
X142094782Y-75437565D01*
X142135819Y-75475341D01*
X144493019Y-77832542D01*
X144509405Y-77852718D01*
X144515440Y-77861956D01*
X144515441Y-77861957D01*
X144515443Y-77861959D01*
X144543894Y-77884103D01*
X144549753Y-77889276D01*
X144552592Y-77892115D01*
X144571897Y-77905898D01*
X144590009Y-77919995D01*
X144615915Y-77940158D01*
X144615917Y-77940158D01*
X144615919Y-77940160D01*
X144622942Y-77943960D01*
X144630131Y-77947475D01*
X144683582Y-77963388D01*
X144736339Y-77981500D01*
X144736343Y-77981500D01*
X144744249Y-77982819D01*
X144752158Y-77983805D01*
X144752158Y-77983804D01*
X144752159Y-77983805D01*
X144807895Y-77981500D01*
X148589788Y-77981500D01*
X148657909Y-78001502D01*
X148678883Y-78018405D01*
X164181595Y-93521117D01*
X164215621Y-93583429D01*
X164218500Y-93610212D01*
X164218500Y-99147366D01*
X164215818Y-99173223D01*
X164213554Y-99184016D01*
X164216110Y-99204518D01*
X164218016Y-99219809D01*
X164218500Y-99227600D01*
X164218500Y-99231615D01*
X164218499Y-99231615D01*
X164222403Y-99255003D01*
X164229303Y-99310357D01*
X164231588Y-99318032D01*
X164234180Y-99325582D01*
X164234181Y-99325585D01*
X164234182Y-99325586D01*
X164260729Y-99374641D01*
X164285224Y-99424746D01*
X164285225Y-99424748D01*
X164289868Y-99431251D01*
X164294782Y-99437565D01*
X164335819Y-99475341D01*
X167275550Y-102415072D01*
X167309576Y-102477384D01*
X167307030Y-102540742D01*
X167260756Y-102693288D01*
X167240398Y-102899996D01*
X167240398Y-102900003D01*
X167260756Y-103106711D01*
X167260757Y-103106717D01*
X167260758Y-103106718D01*
X167293263Y-103213873D01*
X167321055Y-103305492D01*
X167418974Y-103488686D01*
X167550747Y-103649252D01*
X167711313Y-103781024D01*
X167711313Y-103781025D01*
X167711317Y-103781027D01*
X167894508Y-103878945D01*
X168093282Y-103939242D01*
X168093286Y-103939242D01*
X168093288Y-103939243D01*
X168299997Y-103959602D01*
X168300000Y-103959602D01*
X168300003Y-103959602D01*
X168506711Y-103939243D01*
X168506712Y-103939242D01*
X168506718Y-103939242D01*
X168705492Y-103878945D01*
X168888683Y-103781027D01*
X168888684Y-103781025D01*
X168888686Y-103781025D01*
X168888686Y-103781024D01*
X169049252Y-103649252D01*
X169181027Y-103488683D01*
X169278945Y-103305492D01*
X169339242Y-103106718D01*
X169339904Y-103100003D01*
X169359602Y-102900003D01*
X169359602Y-102899996D01*
X169339243Y-102693288D01*
X169339242Y-102693286D01*
X169339242Y-102693282D01*
X169278945Y-102494508D01*
X169181027Y-102311317D01*
X169181025Y-102311313D01*
X169049252Y-102150747D01*
X168888686Y-102018975D01*
X168888686Y-102018974D01*
X168705492Y-101921055D01*
X168586146Y-101884852D01*
X168506718Y-101860758D01*
X168506717Y-101860757D01*
X168506711Y-101860756D01*
X168300003Y-101840398D01*
X168299997Y-101840398D01*
X168093288Y-101860756D01*
X167940742Y-101907030D01*
X167869748Y-101907663D01*
X167815072Y-101875550D01*
X165018405Y-99078882D01*
X164984379Y-99016570D01*
X164981500Y-98989787D01*
X164981500Y-97200003D01*
X167160398Y-97200003D01*
X167180756Y-97406711D01*
X167241055Y-97605492D01*
X167338974Y-97788686D01*
X167470747Y-97949252D01*
X167631313Y-98081024D01*
X167631317Y-98081027D01*
X167771896Y-98156168D01*
X167822544Y-98205919D01*
X167838500Y-98267289D01*
X167838499Y-98667366D01*
X167835818Y-98693218D01*
X167833554Y-98704014D01*
X167833554Y-98704015D01*
X167835941Y-98723160D01*
X167838016Y-98739809D01*
X167838500Y-98747600D01*
X167838500Y-98751615D01*
X167838499Y-98751615D01*
X167842403Y-98775003D01*
X167849303Y-98830357D01*
X167851588Y-98838032D01*
X167854180Y-98845582D01*
X167854181Y-98845585D01*
X167854182Y-98845586D01*
X167880729Y-98894641D01*
X167903105Y-98940411D01*
X167905225Y-98944748D01*
X167909868Y-98951251D01*
X167914782Y-98957565D01*
X167955819Y-98995341D01*
X170081595Y-101121117D01*
X170115620Y-101183429D01*
X170118500Y-101210212D01*
X170118500Y-104047366D01*
X170115818Y-104073223D01*
X170113554Y-104084016D01*
X170116110Y-104104518D01*
X170118016Y-104119809D01*
X170118500Y-104127600D01*
X170118500Y-104131615D01*
X170118499Y-104131615D01*
X170122403Y-104155003D01*
X170129303Y-104210357D01*
X170131588Y-104218032D01*
X170134180Y-104225582D01*
X170134181Y-104225585D01*
X170134182Y-104225586D01*
X170160729Y-104274641D01*
X170185224Y-104324746D01*
X170185225Y-104324748D01*
X170189868Y-104331251D01*
X170194782Y-104337565D01*
X170235819Y-104375341D01*
X171193022Y-105332545D01*
X171209406Y-105352721D01*
X171215440Y-105361956D01*
X171215441Y-105361957D01*
X171215443Y-105361959D01*
X171243894Y-105384103D01*
X171249753Y-105389276D01*
X171252592Y-105392115D01*
X171271897Y-105405898D01*
X171290009Y-105419995D01*
X171315915Y-105440158D01*
X171315917Y-105440158D01*
X171315919Y-105440160D01*
X171322942Y-105443960D01*
X171330131Y-105447475D01*
X171383582Y-105463388D01*
X171436339Y-105481500D01*
X171436343Y-105481500D01*
X171444249Y-105482819D01*
X171452158Y-105483805D01*
X171452158Y-105483804D01*
X171452159Y-105483805D01*
X171507895Y-105481500D01*
X174689788Y-105481500D01*
X174757909Y-105501502D01*
X174778883Y-105518405D01*
X177881595Y-108621117D01*
X177915621Y-108683429D01*
X177918500Y-108710212D01*
X177918500Y-109932709D01*
X177898498Y-110000830D01*
X177851897Y-110043831D01*
X177711311Y-110118976D01*
X177550747Y-110250747D01*
X177418975Y-110411313D01*
X177418974Y-110411313D01*
X177321055Y-110594507D01*
X177260756Y-110793288D01*
X177240398Y-110999996D01*
X177240398Y-111000003D01*
X177260756Y-111206711D01*
X177321055Y-111405492D01*
X177418974Y-111588686D01*
X177550747Y-111749252D01*
X177711313Y-111881024D01*
X177711317Y-111881027D01*
X177851896Y-111956168D01*
X177902544Y-112005919D01*
X177918500Y-112067289D01*
X177918500Y-114409785D01*
X177898498Y-114477906D01*
X177881595Y-114498881D01*
X177304925Y-115075550D01*
X177242613Y-115109575D01*
X177179255Y-115107029D01*
X177026711Y-115060756D01*
X176820003Y-115040398D01*
X176819997Y-115040398D01*
X176613288Y-115060756D01*
X176414507Y-115121055D01*
X176231313Y-115218974D01*
X176231313Y-115218975D01*
X176070747Y-115350747D01*
X175938975Y-115511313D01*
X175938974Y-115511313D01*
X175841055Y-115694507D01*
X175780756Y-115893288D01*
X175760398Y-116099996D01*
X175760398Y-116100003D01*
X175780756Y-116306711D01*
X175841055Y-116505492D01*
X175938974Y-116688686D01*
X176070747Y-116849252D01*
X176231313Y-116981024D01*
X176231313Y-116981025D01*
X176251895Y-116992026D01*
X176302543Y-117041778D01*
X176318499Y-117103148D01*
X176318499Y-119619500D01*
X176298497Y-119687621D01*
X176244841Y-119734114D01*
X176192499Y-119745500D01*
X175874936Y-119745500D01*
X175874926Y-119745501D01*
X175800699Y-119760265D01*
X175716515Y-119816516D01*
X175660266Y-119900697D01*
X175645500Y-119974930D01*
X175645500Y-121625063D01*
X175645501Y-121625073D01*
X175660265Y-121699300D01*
X175716516Y-121783484D01*
X175800697Y-121839733D01*
X175800699Y-121839734D01*
X175874933Y-121854500D01*
X176155474Y-121854499D01*
X176223592Y-121874501D01*
X176270085Y-121928156D01*
X176280190Y-121998430D01*
X176250697Y-122063011D01*
X176208723Y-122094693D01*
X176047518Y-122169865D01*
X176047516Y-122169866D01*
X175974526Y-122220973D01*
X176655599Y-122902046D01*
X176574852Y-122914835D01*
X176461955Y-122972359D01*
X176372359Y-123061955D01*
X176314835Y-123174852D01*
X176302046Y-123255599D01*
X175620973Y-122574526D01*
X175569867Y-122647515D01*
X175473734Y-122853672D01*
X175473732Y-122853676D01*
X175414859Y-123073397D01*
X175395034Y-123300000D01*
X175414859Y-123526602D01*
X175473732Y-123746323D01*
X175473734Y-123746328D01*
X175569867Y-123952486D01*
X175620972Y-124025471D01*
X176302045Y-123344398D01*
X176314835Y-123425148D01*
X176372359Y-123538045D01*
X176461955Y-123627641D01*
X176574852Y-123685165D01*
X176655598Y-123697953D01*
X175974527Y-124379024D01*
X175974527Y-124379027D01*
X176047513Y-124430132D01*
X176253671Y-124526265D01*
X176253676Y-124526267D01*
X176473397Y-124585140D01*
X176700000Y-124604965D01*
X176926602Y-124585140D01*
X177146323Y-124526267D01*
X177146328Y-124526265D01*
X177352482Y-124430134D01*
X177425471Y-124379026D01*
X177425471Y-124379025D01*
X176744400Y-123697953D01*
X176825148Y-123685165D01*
X176938045Y-123627641D01*
X177027641Y-123538045D01*
X177085165Y-123425148D01*
X177097953Y-123344399D01*
X177779025Y-124025471D01*
X177779026Y-124025471D01*
X177830134Y-123952482D01*
X177926265Y-123746328D01*
X177926267Y-123746323D01*
X177985140Y-123526602D01*
X178004965Y-123300000D01*
X177985140Y-123073397D01*
X177926267Y-122853676D01*
X177926265Y-122853671D01*
X177830132Y-122647513D01*
X177779027Y-122574527D01*
X177779024Y-122574527D01*
X177097953Y-123255598D01*
X177085165Y-123174852D01*
X177027641Y-123061955D01*
X176938045Y-122972359D01*
X176825148Y-122914835D01*
X176744399Y-122902046D01*
X177425471Y-122220972D01*
X177425471Y-122220971D01*
X177352486Y-122169867D01*
X177191276Y-122094694D01*
X177137991Y-122047777D01*
X177118530Y-121979499D01*
X177139072Y-121911540D01*
X177193095Y-121865474D01*
X177244525Y-121854499D01*
X177525066Y-121854499D01*
X177525069Y-121854498D01*
X177525073Y-121854498D01*
X177574326Y-121844701D01*
X177599301Y-121839734D01*
X177683484Y-121783484D01*
X177739734Y-121699301D01*
X177754500Y-121625067D01*
X177754499Y-119974934D01*
X177754498Y-119974930D01*
X177754498Y-119974926D01*
X177739734Y-119900699D01*
X177683483Y-119816515D01*
X177599302Y-119760266D01*
X177525069Y-119745500D01*
X177525067Y-119745500D01*
X177207500Y-119745500D01*
X177139379Y-119725498D01*
X177092886Y-119671842D01*
X177081500Y-119619500D01*
X177081500Y-117216072D01*
X177101502Y-117147951D01*
X177155158Y-117101458D01*
X177170917Y-117095499D01*
X177225492Y-117078945D01*
X177408683Y-116981027D01*
X177408684Y-116981025D01*
X177408686Y-116981025D01*
X177408686Y-116981024D01*
X177569252Y-116849252D01*
X177701027Y-116688683D01*
X177798945Y-116505492D01*
X177859242Y-116306718D01*
X177869754Y-116199996D01*
X177879602Y-116100003D01*
X177879602Y-116099996D01*
X177859243Y-115893290D01*
X177859242Y-115893288D01*
X177859242Y-115893282D01*
X177812968Y-115740739D01*
X177812336Y-115669749D01*
X177844447Y-115615074D01*
X178532545Y-114926976D01*
X178552721Y-114910593D01*
X178561956Y-114904560D01*
X178584111Y-114876093D01*
X178589277Y-114870244D01*
X178592114Y-114867409D01*
X178605900Y-114848099D01*
X178640158Y-114804085D01*
X178640160Y-114804076D01*
X178643956Y-114797065D01*
X178647470Y-114789876D01*
X178647475Y-114789870D01*
X178656956Y-114758022D01*
X178663390Y-114736412D01*
X178681499Y-114683664D01*
X178682819Y-114675752D01*
X178683805Y-114667842D01*
X178681500Y-114612115D01*
X178681500Y-112067289D01*
X178701502Y-111999168D01*
X178748102Y-111956168D01*
X178888683Y-111881027D01*
X179049252Y-111749252D01*
X179181027Y-111588683D01*
X179278945Y-111405492D01*
X179339242Y-111206718D01*
X179340034Y-111198683D01*
X179359602Y-111000003D01*
X179359602Y-110999996D01*
X179339243Y-110793288D01*
X179339242Y-110793286D01*
X179339242Y-110793282D01*
X179278945Y-110594508D01*
X179181027Y-110411317D01*
X179181025Y-110411313D01*
X179049252Y-110250747D01*
X178888688Y-110118976D01*
X178888684Y-110118973D01*
X178888683Y-110118973D01*
X178748103Y-110043831D01*
X178697455Y-109994078D01*
X178681500Y-109932709D01*
X178681500Y-108552633D01*
X178684182Y-108526773D01*
X178686445Y-108515983D01*
X178681983Y-108480189D01*
X178681500Y-108472399D01*
X178681500Y-108468388D01*
X178677596Y-108444995D01*
X178670696Y-108389639D01*
X178668426Y-108382013D01*
X178665818Y-108374419D01*
X178665818Y-108374414D01*
X178639270Y-108325358D01*
X178614776Y-108275254D01*
X178614773Y-108275251D01*
X178614773Y-108275250D01*
X178610127Y-108268742D01*
X178605219Y-108262436D01*
X178564180Y-108224658D01*
X175206980Y-104867457D01*
X175190591Y-104847276D01*
X175184560Y-104838044D01*
X175156103Y-104815895D01*
X175150245Y-104810722D01*
X175147413Y-104807890D01*
X175147402Y-104807880D01*
X175128099Y-104794099D01*
X175084086Y-104759842D01*
X175077064Y-104756042D01*
X175069872Y-104752526D01*
X175069870Y-104752525D01*
X175069867Y-104752524D01*
X175016412Y-104736609D01*
X174963664Y-104718501D01*
X174963663Y-104718500D01*
X174963661Y-104718500D01*
X174963658Y-104718500D01*
X174955748Y-104717179D01*
X174947842Y-104716194D01*
X174892116Y-104718500D01*
X171710214Y-104718500D01*
X171642093Y-104698498D01*
X171621118Y-104681595D01*
X170918404Y-103978880D01*
X170884379Y-103916568D01*
X170881500Y-103889785D01*
X170881500Y-103100003D01*
X171940398Y-103100003D01*
X171960756Y-103306711D01*
X171960757Y-103306717D01*
X171960758Y-103306718D01*
X171982988Y-103380000D01*
X172021055Y-103505492D01*
X172118974Y-103688686D01*
X172250747Y-103849252D01*
X172411313Y-103981024D01*
X172411313Y-103981025D01*
X172411317Y-103981027D01*
X172594508Y-104078945D01*
X172793282Y-104139242D01*
X172793286Y-104139242D01*
X172793288Y-104139243D01*
X172999997Y-104159602D01*
X173000000Y-104159602D01*
X173000003Y-104159602D01*
X173206711Y-104139243D01*
X173206712Y-104139242D01*
X173206718Y-104139242D01*
X173405492Y-104078945D01*
X173588683Y-103981027D01*
X173588684Y-103981025D01*
X173588686Y-103981025D01*
X173588686Y-103981024D01*
X173749252Y-103849252D01*
X173881027Y-103688683D01*
X173978945Y-103505492D01*
X174039242Y-103306718D01*
X174047185Y-103226077D01*
X174059602Y-103100003D01*
X174059602Y-103099996D01*
X174039243Y-102893288D01*
X174039242Y-102893286D01*
X174039242Y-102893282D01*
X173978945Y-102694508D01*
X173881027Y-102511317D01*
X173881025Y-102511313D01*
X173749252Y-102350747D01*
X173588686Y-102218975D01*
X173588686Y-102218974D01*
X173405492Y-102121055D01*
X173206711Y-102060756D01*
X173000003Y-102040398D01*
X172999997Y-102040398D01*
X172793288Y-102060756D01*
X172594507Y-102121055D01*
X172411313Y-102218974D01*
X172411313Y-102218975D01*
X172250747Y-102350747D01*
X172118975Y-102511313D01*
X172118974Y-102511313D01*
X172021055Y-102694507D01*
X171960756Y-102893288D01*
X171940398Y-103099996D01*
X171940398Y-103100003D01*
X170881500Y-103100003D01*
X170881500Y-101052633D01*
X170884182Y-101026773D01*
X170886445Y-101015983D01*
X170881983Y-100980189D01*
X170881500Y-100972399D01*
X170881500Y-100968388D01*
X170877596Y-100944995D01*
X170870696Y-100889639D01*
X170868426Y-100882013D01*
X170865818Y-100874419D01*
X170865818Y-100874414D01*
X170839270Y-100825358D01*
X170814776Y-100775254D01*
X170814773Y-100775251D01*
X170814773Y-100775250D01*
X170810127Y-100768742D01*
X170805219Y-100762436D01*
X170764180Y-100724658D01*
X168638405Y-98598882D01*
X168604379Y-98536570D01*
X168601500Y-98509787D01*
X168601500Y-98267289D01*
X168621502Y-98199168D01*
X168668102Y-98156168D01*
X168808683Y-98081027D01*
X168969252Y-97949252D01*
X169101027Y-97788683D01*
X169121704Y-97750000D01*
X175060000Y-97750000D01*
X175060000Y-98297840D01*
X175066400Y-98357371D01*
X175116647Y-98492089D01*
X175202810Y-98607189D01*
X175317910Y-98693352D01*
X175452628Y-98743599D01*
X175512159Y-98749999D01*
X175512176Y-98750000D01*
X175810000Y-98750000D01*
X175810000Y-97750000D01*
X175060000Y-97750000D01*
X169121704Y-97750000D01*
X169198945Y-97605492D01*
X169259242Y-97406718D01*
X169274678Y-97250000D01*
X175060000Y-97250000D01*
X175810000Y-97250000D01*
X175810000Y-96250000D01*
X175512159Y-96250000D01*
X175452628Y-96256400D01*
X175317910Y-96306647D01*
X175202810Y-96392810D01*
X175116647Y-96507910D01*
X175066400Y-96642628D01*
X175060000Y-96702159D01*
X175060000Y-97250000D01*
X169274678Y-97250000D01*
X169279602Y-97200003D01*
X169279602Y-97199996D01*
X169259243Y-96993288D01*
X169259242Y-96993286D01*
X169259242Y-96993282D01*
X169198945Y-96794508D01*
X169101027Y-96611317D01*
X169101025Y-96611313D01*
X168969252Y-96450747D01*
X168808686Y-96318975D01*
X168808686Y-96318974D01*
X168625492Y-96221055D01*
X168426711Y-96160756D01*
X168220003Y-96140398D01*
X168219997Y-96140398D01*
X168013288Y-96160756D01*
X167814507Y-96221055D01*
X167631313Y-96318974D01*
X167631313Y-96318975D01*
X167470747Y-96450747D01*
X167338975Y-96611313D01*
X167338974Y-96611313D01*
X167241055Y-96794507D01*
X167180756Y-96993288D01*
X167160398Y-97199996D01*
X167160398Y-97200003D01*
X164981500Y-97200003D01*
X164981500Y-93452633D01*
X164984182Y-93426773D01*
X164986445Y-93415983D01*
X164981983Y-93380189D01*
X164981500Y-93372399D01*
X164981500Y-93368388D01*
X164977596Y-93344995D01*
X164970696Y-93289639D01*
X164968426Y-93282013D01*
X164965818Y-93274419D01*
X164965818Y-93274414D01*
X164939270Y-93225358D01*
X164914776Y-93175254D01*
X164914773Y-93175251D01*
X164914773Y-93175250D01*
X164910127Y-93168742D01*
X164905219Y-93162436D01*
X164864180Y-93124658D01*
X149106980Y-77367457D01*
X149090591Y-77347276D01*
X149084560Y-77338044D01*
X149056103Y-77315895D01*
X149050245Y-77310722D01*
X149047413Y-77307890D01*
X149047402Y-77307880D01*
X149028099Y-77294099D01*
X148984086Y-77259842D01*
X148977064Y-77256042D01*
X148969872Y-77252526D01*
X148969870Y-77252525D01*
X148969867Y-77252524D01*
X148916412Y-77236609D01*
X148863664Y-77218501D01*
X148863663Y-77218500D01*
X148863661Y-77218500D01*
X148863658Y-77218500D01*
X148855748Y-77217179D01*
X148847842Y-77216194D01*
X148792116Y-77218500D01*
X145010213Y-77218500D01*
X144942092Y-77198498D01*
X144921118Y-77181595D01*
X142818405Y-75078882D01*
X142784379Y-75016570D01*
X142781500Y-74989787D01*
X142781500Y-71207500D01*
X142801502Y-71139379D01*
X142855158Y-71092886D01*
X142907500Y-71081500D01*
X145522240Y-71081500D01*
X145590361Y-71101502D01*
X145635029Y-71151335D01*
X145714219Y-71310370D01*
X145714220Y-71310371D01*
X145714221Y-71310373D01*
X145843155Y-71481110D01*
X146001278Y-71625258D01*
X146001279Y-71625259D01*
X146183178Y-71737886D01*
X146183181Y-71737887D01*
X146183190Y-71737893D01*
X146382698Y-71815183D01*
X146382699Y-71815183D01*
X146382703Y-71815185D01*
X146492163Y-71835646D01*
X146555445Y-71867824D01*
X146591288Y-71929108D01*
X146588307Y-72000043D01*
X146547450Y-72058105D01*
X146481688Y-72084860D01*
X146469008Y-72085500D01*
X145774936Y-72085500D01*
X145774926Y-72085501D01*
X145700699Y-72100265D01*
X145616515Y-72156516D01*
X145560266Y-72240697D01*
X145545500Y-72314930D01*
X145545500Y-74165063D01*
X145545501Y-74165073D01*
X145560265Y-74239300D01*
X145616516Y-74323484D01*
X145700697Y-74379733D01*
X145700699Y-74379734D01*
X145774933Y-74394500D01*
X147625066Y-74394499D01*
X147625069Y-74394498D01*
X147625073Y-74394498D01*
X147674326Y-74384701D01*
X147699301Y-74379734D01*
X147783484Y-74323484D01*
X147839734Y-74239301D01*
X147854500Y-74165067D01*
X147854500Y-73747500D01*
X147874502Y-73679379D01*
X147928158Y-73632886D01*
X147980500Y-73621500D01*
X161819501Y-73621500D01*
X161887622Y-73641502D01*
X161934115Y-73695158D01*
X161945501Y-73747500D01*
X161945501Y-74165072D01*
X161960265Y-74239300D01*
X162016516Y-74323484D01*
X162100697Y-74379733D01*
X162100699Y-74379734D01*
X162174933Y-74394500D01*
X163662787Y-74394499D01*
X163730908Y-74414501D01*
X163751882Y-74431404D01*
X178181595Y-88861117D01*
X178215621Y-88923429D01*
X178218500Y-88950212D01*
X178218500Y-96530108D01*
X178198498Y-96598229D01*
X178167742Y-96631175D01*
X178078707Y-96697459D01*
X178060758Y-96718849D01*
X178001647Y-96758174D01*
X177930660Y-96759298D01*
X177877773Y-96729504D01*
X177866479Y-96718849D01*
X177783623Y-96640678D01*
X177774499Y-96635410D01*
X177630881Y-96552492D01*
X177630877Y-96552490D01*
X177630876Y-96552490D01*
X177461909Y-96501905D01*
X177403216Y-96498486D01*
X177285835Y-96491649D01*
X177285831Y-96491649D01*
X177112134Y-96522277D01*
X177112131Y-96522278D01*
X177104907Y-96523552D01*
X177104472Y-96521086D01*
X177045315Y-96521387D01*
X176985395Y-96483307D01*
X176979332Y-96475822D01*
X176917189Y-96392811D01*
X176802089Y-96306647D01*
X176667371Y-96256400D01*
X176607840Y-96250000D01*
X176310000Y-96250000D01*
X176310000Y-97379163D01*
X176258264Y-97301736D01*
X176167300Y-97240955D01*
X176087088Y-97225000D01*
X176032912Y-97225000D01*
X175952700Y-97240955D01*
X175861736Y-97301736D01*
X175800955Y-97392700D01*
X175779612Y-97500000D01*
X175800955Y-97607300D01*
X175861736Y-97698264D01*
X175952700Y-97759045D01*
X176032912Y-97775000D01*
X176087088Y-97775000D01*
X176167300Y-97759045D01*
X176258264Y-97698264D01*
X176310000Y-97620836D01*
X176310000Y-98750000D01*
X176607824Y-98750000D01*
X176607840Y-98749999D01*
X176667370Y-98743599D01*
X176778467Y-98702162D01*
X176849283Y-98697097D01*
X176911595Y-98731122D01*
X176945620Y-98793434D01*
X176948500Y-98820218D01*
X176948500Y-102357366D01*
X176945818Y-102383223D01*
X176943554Y-102394016D01*
X176945905Y-102412873D01*
X176948016Y-102429809D01*
X176948500Y-102437600D01*
X176948500Y-102441615D01*
X176948499Y-102441615D01*
X176952403Y-102465003D01*
X176959303Y-102520357D01*
X176961588Y-102528032D01*
X176964180Y-102535582D01*
X176964181Y-102535585D01*
X176964182Y-102535586D01*
X176990729Y-102584641D01*
X177015224Y-102634746D01*
X177015225Y-102634748D01*
X177019868Y-102641251D01*
X177024782Y-102647565D01*
X177063582Y-102683282D01*
X177065819Y-102685341D01*
X177275551Y-102895073D01*
X177309575Y-102957383D01*
X177307030Y-103020742D01*
X177260756Y-103173288D01*
X177240398Y-103379996D01*
X177240398Y-103380003D01*
X177260756Y-103586711D01*
X177321055Y-103785492D01*
X177418974Y-103968686D01*
X177550747Y-104129252D01*
X177711313Y-104261024D01*
X177711313Y-104261025D01*
X177711317Y-104261027D01*
X177894508Y-104358945D01*
X178093282Y-104419242D01*
X178093286Y-104419242D01*
X178093288Y-104419243D01*
X178299997Y-104439602D01*
X178300000Y-104439602D01*
X178300003Y-104439602D01*
X178506711Y-104419243D01*
X178506712Y-104419242D01*
X178506718Y-104419242D01*
X178705492Y-104358945D01*
X178888683Y-104261027D01*
X178888684Y-104261025D01*
X178888686Y-104261025D01*
X178888686Y-104261024D01*
X179049252Y-104129252D01*
X179181027Y-103968683D01*
X179278945Y-103785492D01*
X179339242Y-103586718D01*
X179340034Y-103578683D01*
X179359602Y-103380003D01*
X179359602Y-103379996D01*
X179339243Y-103173288D01*
X179339242Y-103173286D01*
X179339242Y-103173282D01*
X179278945Y-102974508D01*
X179181027Y-102791317D01*
X179181025Y-102791313D01*
X179049252Y-102630747D01*
X178888686Y-102498975D01*
X178888686Y-102498974D01*
X178705492Y-102401055D01*
X178604544Y-102370433D01*
X178506718Y-102340758D01*
X178506717Y-102340757D01*
X178506711Y-102340756D01*
X178300003Y-102320398D01*
X178299997Y-102320398D01*
X178093288Y-102340756D01*
X177940743Y-102387030D01*
X177869749Y-102387663D01*
X177815073Y-102355550D01*
X177748405Y-102288882D01*
X177714379Y-102226570D01*
X177711500Y-102199787D01*
X177711500Y-98469890D01*
X177731502Y-98401769D01*
X177762257Y-98368823D01*
X177851294Y-98302539D01*
X177869238Y-98281153D01*
X177928347Y-98241827D01*
X177999335Y-98240700D01*
X178052225Y-98270494D01*
X178146377Y-98359322D01*
X178146379Y-98359323D01*
X178299118Y-98447507D01*
X178299119Y-98447507D01*
X178299124Y-98447510D01*
X178468091Y-98498095D01*
X178644169Y-98508351D01*
X178817866Y-98477723D01*
X178979818Y-98407864D01*
X179121294Y-98302539D01*
X179234667Y-98167427D01*
X179313824Y-98009811D01*
X179354500Y-97838188D01*
X179354500Y-97206059D01*
X179353791Y-97199996D01*
X179339160Y-97074816D01*
X179339159Y-97074814D01*
X179309484Y-96993282D01*
X179278836Y-96909076D01*
X179181915Y-96761715D01*
X179053623Y-96640678D01*
X179044497Y-96635409D01*
X178995505Y-96584026D01*
X178981499Y-96526295D01*
X178981499Y-88792634D01*
X178984182Y-88766773D01*
X178986445Y-88755983D01*
X178981983Y-88720189D01*
X178981500Y-88712400D01*
X178981500Y-88708388D01*
X178977596Y-88684995D01*
X178970696Y-88629639D01*
X178968426Y-88622013D01*
X178965818Y-88614419D01*
X178965818Y-88614414D01*
X178939270Y-88565358D01*
X178914776Y-88515254D01*
X178914773Y-88515251D01*
X178914773Y-88515250D01*
X178910127Y-88508742D01*
X178905219Y-88502436D01*
X178864180Y-88464658D01*
X164291404Y-73891880D01*
X164257378Y-73829568D01*
X164254499Y-73802785D01*
X164254499Y-72314936D01*
X164254498Y-72314927D01*
X164239734Y-72240699D01*
X164183483Y-72156515D01*
X164099302Y-72100266D01*
X164025069Y-72085500D01*
X163330993Y-72085500D01*
X163262872Y-72065498D01*
X163216379Y-72011842D01*
X163206275Y-71941568D01*
X163235769Y-71876988D01*
X163295495Y-71838604D01*
X163307825Y-71835648D01*
X163417297Y-71815185D01*
X163616810Y-71737893D01*
X163798722Y-71625258D01*
X163956841Y-71481114D01*
X164085781Y-71310370D01*
X164181151Y-71118840D01*
X164239704Y-70913048D01*
X164255040Y-70747553D01*
X164259446Y-70700004D01*
X164259446Y-70699995D01*
X164242387Y-70515910D01*
X164239704Y-70486952D01*
X164181151Y-70281160D01*
X164085781Y-70089630D01*
X164085778Y-70089626D01*
X163956844Y-69918889D01*
X163798721Y-69774741D01*
X163798720Y-69774740D01*
X163616821Y-69662113D01*
X163616814Y-69662109D01*
X163616810Y-69662107D01*
X163616805Y-69662105D01*
X163417301Y-69584816D01*
X163417302Y-69584816D01*
X163417297Y-69584815D01*
X163206980Y-69545500D01*
X162993020Y-69545500D01*
X162834313Y-69575167D01*
X162782697Y-69584816D01*
X162583194Y-69662105D01*
X162583178Y-69662113D01*
X162401279Y-69774740D01*
X162401278Y-69774741D01*
X162243155Y-69918889D01*
X162114221Y-70089626D01*
X162018849Y-70281160D01*
X162018847Y-70281165D01*
X161960295Y-70486955D01*
X161940553Y-70699995D01*
X161940553Y-70700004D01*
X161960295Y-70913044D01*
X161960295Y-70913047D01*
X161960296Y-70913048D01*
X162018849Y-71118840D01*
X162114219Y-71310370D01*
X162114220Y-71310371D01*
X162114221Y-71310373D01*
X162243155Y-71481110D01*
X162401278Y-71625258D01*
X162401279Y-71625259D01*
X162583178Y-71737886D01*
X162583181Y-71737887D01*
X162583190Y-71737893D01*
X162782698Y-71815183D01*
X162782699Y-71815183D01*
X162782703Y-71815185D01*
X162892163Y-71835646D01*
X162955445Y-71867824D01*
X162991288Y-71929108D01*
X162988307Y-72000043D01*
X162947450Y-72058105D01*
X162881688Y-72084860D01*
X162869008Y-72085500D01*
X162174936Y-72085500D01*
X162174926Y-72085501D01*
X162100699Y-72100265D01*
X162016515Y-72156516D01*
X161960266Y-72240697D01*
X161945500Y-72314930D01*
X161945500Y-72732500D01*
X161925498Y-72800621D01*
X161871842Y-72847114D01*
X161819500Y-72858500D01*
X147980499Y-72858500D01*
X147912378Y-72838498D01*
X147865885Y-72784842D01*
X147854499Y-72732500D01*
X147854499Y-72314936D01*
X147854498Y-72314927D01*
X147839734Y-72240699D01*
X147783483Y-72156515D01*
X147699302Y-72100266D01*
X147625069Y-72085500D01*
X146930993Y-72085500D01*
X146862872Y-72065498D01*
X146816379Y-72011842D01*
X146806275Y-71941568D01*
X146835769Y-71876988D01*
X146895495Y-71838604D01*
X146907825Y-71835648D01*
X147017297Y-71815185D01*
X147216810Y-71737893D01*
X147398722Y-71625258D01*
X147556841Y-71481114D01*
X147685781Y-71310370D01*
X147781151Y-71118840D01*
X147839704Y-70913048D01*
X147855040Y-70747553D01*
X147859446Y-70700004D01*
X147859446Y-70699995D01*
X147842387Y-70515910D01*
X147839704Y-70486952D01*
X147781151Y-70281160D01*
X147685781Y-70089630D01*
X147685778Y-70089626D01*
X147556844Y-69918889D01*
X147398721Y-69774741D01*
X147398720Y-69774740D01*
X147216821Y-69662113D01*
X147216814Y-69662109D01*
X147216810Y-69662107D01*
X147216805Y-69662105D01*
X147017301Y-69584816D01*
X147017302Y-69584816D01*
X147017297Y-69584815D01*
X146806980Y-69545500D01*
X146593020Y-69545500D01*
X146434313Y-69575167D01*
X146382697Y-69584816D01*
X146183194Y-69662105D01*
X146183178Y-69662113D01*
X146001279Y-69774740D01*
X146001278Y-69774741D01*
X145843155Y-69918889D01*
X145714221Y-70089626D01*
X145714219Y-70089629D01*
X145714219Y-70089630D01*
X145635029Y-70248664D01*
X145586762Y-70300726D01*
X145522240Y-70318500D01*
X142418390Y-70318500D01*
X142413185Y-70318285D01*
X142394057Y-70316700D01*
X142368060Y-70314546D01*
X142368059Y-70314546D01*
X142324155Y-70325663D01*
X142319065Y-70326730D01*
X142302772Y-70329449D01*
X142274417Y-70334181D01*
X142274407Y-70334184D01*
X142274043Y-70334382D01*
X142245044Y-70345697D01*
X142244636Y-70345800D01*
X142206726Y-70370566D01*
X142202254Y-70373231D01*
X142162438Y-70394779D01*
X142162433Y-70394783D01*
X142162152Y-70395089D01*
X142138398Y-70415207D01*
X142138051Y-70415433D01*
X142138044Y-70415440D01*
X142110232Y-70451171D01*
X142106868Y-70455144D01*
X142076203Y-70488456D01*
X142076039Y-70488831D01*
X142060096Y-70515588D01*
X142059845Y-70515910D01*
X142059839Y-70515920D01*
X142045142Y-70558732D01*
X142043249Y-70563584D01*
X142025059Y-70605053D01*
X142025057Y-70605058D01*
X142025024Y-70605468D01*
X142018635Y-70635944D01*
X142018500Y-70636335D01*
X142018500Y-70681609D01*
X142018285Y-70686814D01*
X142014546Y-70731941D01*
X142014644Y-70732328D01*
X142018500Y-70763259D01*
X142018500Y-75147366D01*
X142015818Y-75173223D01*
X142013554Y-75184016D01*
X127000500Y-75184016D01*
X127000500Y-45847005D01*
X146934047Y-45847005D01*
X146936167Y-45877998D01*
X146936153Y-45886798D01*
X146936146Y-45886892D01*
X146937034Y-45890675D01*
X146949273Y-46069618D01*
X146948429Y-46073437D01*
X146950559Y-46088415D01*
X146951834Y-46107059D01*
X146951836Y-46107072D01*
X146959765Y-46145233D01*
X146960847Y-46153018D01*
X146962008Y-46156021D01*
X146998508Y-46331669D01*
X146998154Y-46336041D01*
X147002664Y-46351668D01*
X147004871Y-46362292D01*
X147004875Y-46362304D01*
X147020637Y-46406654D01*
X147022450Y-46413012D01*
X147023689Y-46415243D01*
X147083795Y-46584362D01*
X147084065Y-46589202D01*
X147091114Y-46604957D01*
X147092168Y-46607923D01*
X147092170Y-46607928D01*
X147117639Y-46657081D01*
X147119724Y-46661782D01*
X147120848Y-46663275D01*
X147203482Y-46822750D01*
X147204405Y-46827486D01*
X147205040Y-46828335D01*
X147208435Y-46833356D01*
X147212099Y-46839381D01*
X147248931Y-46891560D01*
X147250742Y-46894466D01*
X147251566Y-46895293D01*
X147355259Y-47042192D01*
X147356960Y-47047173D01*
X147366575Y-47056788D01*
X147412019Y-47105447D01*
X147412909Y-47106511D01*
X147413264Y-47106780D01*
X147536173Y-47238383D01*
X147538724Y-47243459D01*
X147568352Y-47265638D01*
X147742568Y-47407374D01*
X147742571Y-47407375D01*
X147742704Y-47407484D01*
X147746148Y-47412494D01*
X147792282Y-47437686D01*
X147794802Y-47439138D01*
X147965297Y-47542819D01*
X147965300Y-47542820D01*
X147968975Y-47545055D01*
X147968161Y-47546392D01*
X147971498Y-47549587D01*
X148036320Y-47573764D01*
X148039403Y-47575008D01*
X148081696Y-47593378D01*
X148204396Y-47646674D01*
X148204416Y-47646679D01*
X148208313Y-47648065D01*
X148218637Y-47655545D01*
X148294751Y-47672103D01*
X148298323Y-47672991D01*
X148426880Y-47709011D01*
X148455401Y-47717003D01*
X148455404Y-47717003D01*
X148455409Y-47717005D01*
X148457214Y-47717253D01*
X148457739Y-47717489D01*
X148459616Y-47717879D01*
X148459529Y-47718293D01*
X148475966Y-47725677D01*
X148562606Y-47731874D01*
X148566687Y-47732299D01*
X148577321Y-47733761D01*
X148713647Y-47752499D01*
X148713660Y-47752500D01*
X159134340Y-47752500D01*
X159134350Y-47752499D01*
X159179431Y-47746302D01*
X159281328Y-47732297D01*
X159285389Y-47731873D01*
X159366816Y-47726050D01*
X159388433Y-47718118D01*
X159388384Y-47717879D01*
X159390003Y-47717542D01*
X159390796Y-47717251D01*
X159392591Y-47717005D01*
X159549684Y-47672989D01*
X159553245Y-47672104D01*
X159625154Y-47656461D01*
X159639687Y-47648065D01*
X159643579Y-47646680D01*
X159643604Y-47646674D01*
X159808611Y-47575001D01*
X159811688Y-47573760D01*
X159872956Y-47550908D01*
X159879488Y-47545817D01*
X159879025Y-47545055D01*
X159882699Y-47542820D01*
X159882703Y-47542819D01*
X160053228Y-47439119D01*
X160055725Y-47437680D01*
X160099678Y-47413680D01*
X160105295Y-47407485D01*
X160105429Y-47407375D01*
X160105432Y-47407374D01*
X160279655Y-47265632D01*
X160307417Y-47244850D01*
X160311822Y-47238387D01*
X160434736Y-47106779D01*
X160434986Y-47106631D01*
X160435951Y-47105478D01*
X160481458Y-47056752D01*
X160489518Y-47048692D01*
X160492741Y-47042192D01*
X160561143Y-46945288D01*
X160596432Y-46895295D01*
X160597039Y-46894813D01*
X160599048Y-46891589D01*
X160635901Y-46839381D01*
X160635912Y-46839359D01*
X160639568Y-46833348D01*
X160642356Y-46829222D01*
X160644514Y-46822757D01*
X160727151Y-46663274D01*
X160728008Y-46662379D01*
X160730347Y-46657105D01*
X160755830Y-46607927D01*
X160756886Y-46604957D01*
X160762856Y-46591610D01*
X160764204Y-46584364D01*
X160824310Y-46415242D01*
X160825302Y-46413873D01*
X160827354Y-46406677D01*
X160843127Y-46362299D01*
X160845338Y-46351658D01*
X160849186Y-46338324D01*
X160849490Y-46331675D01*
X160885993Y-46156017D01*
X160887037Y-46154061D01*
X160887072Y-46153580D01*
X160888231Y-46145246D01*
X160888234Y-46145233D01*
X160896164Y-46107072D01*
X160896226Y-46106158D01*
X160897441Y-46088410D01*
X160899272Y-46075526D01*
X160898726Y-46069617D01*
X160905063Y-45976968D01*
X160910965Y-45890672D01*
X160911935Y-45888048D01*
X160911846Y-45886800D01*
X160911832Y-45878008D01*
X160913953Y-45847000D01*
X160911832Y-45815991D01*
X160911846Y-45807198D01*
X160911852Y-45807107D01*
X160910965Y-45803323D01*
X160898726Y-45624381D01*
X160899569Y-45620560D01*
X160897441Y-45605589D01*
X160896165Y-45586941D01*
X160896164Y-45586938D01*
X160896164Y-45586928D01*
X160888230Y-45548751D01*
X160887149Y-45540976D01*
X160885992Y-45537981D01*
X160849491Y-45362327D01*
X160849844Y-45357957D01*
X160845337Y-45342337D01*
X160843128Y-45331707D01*
X160843127Y-45331702D01*
X160843127Y-45331701D01*
X160827359Y-45287336D01*
X160825548Y-45280987D01*
X160824309Y-45278753D01*
X160764203Y-45109634D01*
X160763933Y-45104796D01*
X160756884Y-45089038D01*
X160755831Y-45086076D01*
X160755830Y-45086073D01*
X160730354Y-45036907D01*
X160728276Y-45032222D01*
X160727151Y-45030725D01*
X160644515Y-44871244D01*
X160643593Y-44866514D01*
X160642962Y-44865671D01*
X160639565Y-44860646D01*
X160635905Y-44854628D01*
X160635901Y-44854619D01*
X160599056Y-44802422D01*
X160597256Y-44799532D01*
X160596430Y-44798702D01*
X160492740Y-44651806D01*
X160491039Y-44646826D01*
X160481438Y-44637225D01*
X160452127Y-44605841D01*
X160435972Y-44588543D01*
X160435088Y-44587487D01*
X160434734Y-44587218D01*
X160311824Y-44455614D01*
X160309273Y-44450537D01*
X160279630Y-44428347D01*
X160279615Y-44428335D01*
X160105432Y-44286626D01*
X160105426Y-44286622D01*
X160105293Y-44286514D01*
X160101848Y-44281502D01*
X160055710Y-44256309D01*
X160053185Y-44254854D01*
X159882703Y-44151181D01*
X159882699Y-44151179D01*
X159879025Y-44148945D01*
X159879832Y-44147617D01*
X159876477Y-44144403D01*
X159811676Y-44120234D01*
X159808594Y-44118990D01*
X159712532Y-44077265D01*
X159643604Y-44047326D01*
X159643598Y-44047324D01*
X159639673Y-44045929D01*
X159629352Y-44038449D01*
X159553237Y-44021892D01*
X159549644Y-44020999D01*
X159476857Y-44000605D01*
X159392600Y-43976997D01*
X159392596Y-43976996D01*
X159392591Y-43976995D01*
X159390763Y-43976743D01*
X159390231Y-43976504D01*
X159388384Y-43976121D01*
X159388468Y-43975713D01*
X159372009Y-43968319D01*
X159285374Y-43962123D01*
X159281289Y-43961697D01*
X159134353Y-43941500D01*
X159134340Y-43941500D01*
X159004099Y-43941500D01*
X148844500Y-43941500D01*
X148844000Y-43941500D01*
X148713660Y-43941500D01*
X148713646Y-43941500D01*
X148566707Y-43961697D01*
X148562623Y-43962123D01*
X148481231Y-43967945D01*
X148459568Y-43975890D01*
X148459616Y-43976121D01*
X148458057Y-43976444D01*
X148457247Y-43976742D01*
X148455411Y-43976994D01*
X148298378Y-44020993D01*
X148294772Y-44021889D01*
X148222867Y-44037531D01*
X148208340Y-44045924D01*
X148204397Y-44047325D01*
X148039415Y-44118986D01*
X148036333Y-44120230D01*
X147975069Y-44143079D01*
X147968514Y-44148189D01*
X147968974Y-44148945D01*
X147794839Y-44254839D01*
X147792298Y-44256304D01*
X147748326Y-44280315D01*
X147742707Y-44286513D01*
X147603770Y-44399545D01*
X147603769Y-44399547D01*
X147568384Y-44428335D01*
X147540585Y-44449145D01*
X147536173Y-44455617D01*
X147413264Y-44587219D01*
X147413009Y-44587369D01*
X147412016Y-44588556D01*
X147366589Y-44637195D01*
X147358485Y-44645298D01*
X147355260Y-44651806D01*
X147251569Y-44798703D01*
X147250956Y-44799189D01*
X147248927Y-44802445D01*
X147212096Y-44854622D01*
X147208429Y-44860651D01*
X147205643Y-44864771D01*
X147203483Y-44871246D01*
X147120850Y-45030722D01*
X147119989Y-45031620D01*
X147117638Y-45036920D01*
X147092170Y-45086071D01*
X147092169Y-45086073D01*
X147091114Y-45089043D01*
X147085143Y-45102387D01*
X147083795Y-45109637D01*
X147023691Y-45278753D01*
X147022694Y-45280128D01*
X147020636Y-45287347D01*
X147004873Y-45331702D01*
X147004867Y-45331721D01*
X147002661Y-45342339D01*
X146998811Y-45355678D01*
X146998508Y-45362327D01*
X146962008Y-45537978D01*
X146960958Y-45539943D01*
X146960923Y-45540438D01*
X146959765Y-45548765D01*
X146951836Y-45586924D01*
X146951834Y-45586940D01*
X146950559Y-45605584D01*
X146948725Y-45618476D01*
X146949273Y-45624380D01*
X146937034Y-45803323D01*
X146936063Y-45805949D01*
X146936153Y-45807199D01*
X146936167Y-45816000D01*
X146934047Y-45846992D01*
X146934047Y-45847005D01*
X127000500Y-45847005D01*
X127000500Y-41528500D01*
X127020502Y-41460379D01*
X127074158Y-41413886D01*
X127126500Y-41402500D01*
X180721500Y-41402500D01*
X180789621Y-41422502D01*
G37*
%TD.AperFunction*%
%TD*%
M02*
