%TF.GenerationSoftware,KiCad,Pcbnew,7.0.6*%
%TF.CreationDate,2024-05-29T23:10:09-05:00*%
%TF.ProjectId,My_kikad,4d795f6b-696b-4616-942e-6b696361645f,V01*%
%TF.SameCoordinates,Original*%
%TF.FileFunction,Legend,Top*%
%TF.FilePolarity,Positive*%
%FSLAX46Y46*%
G04 Gerber Fmt 4.6, Leading zero omitted, Abs format (unit mm)*
G04 Created by KiCad (PCBNEW 7.0.6) date 2024-05-29 23:10:09*
%MOMM*%
%LPD*%
G01*
G04 APERTURE LIST*
%ADD10C,0.150000*%
%ADD11C,0.100000*%
%ADD12C,0.120000*%
%ADD13C,0.203200*%
G04 APERTURE END LIST*
D10*
X143136779Y-101688866D02*
X143898684Y-101688866D01*
X143517731Y-102069819D02*
X143517731Y-101307914D01*
X149227255Y-103569819D02*
X149417731Y-103569819D01*
X149417731Y-103569819D02*
X149512969Y-103617438D01*
X149512969Y-103617438D02*
X149608207Y-103712676D01*
X149608207Y-103712676D02*
X149655826Y-103903152D01*
X149655826Y-103903152D02*
X149655826Y-104236485D01*
X149655826Y-104236485D02*
X149608207Y-104426961D01*
X149608207Y-104426961D02*
X149512969Y-104522200D01*
X149512969Y-104522200D02*
X149417731Y-104569819D01*
X149417731Y-104569819D02*
X149227255Y-104569819D01*
X149227255Y-104569819D02*
X149132017Y-104522200D01*
X149132017Y-104522200D02*
X149036779Y-104426961D01*
X149036779Y-104426961D02*
X148989160Y-104236485D01*
X148989160Y-104236485D02*
X148989160Y-103903152D01*
X148989160Y-103903152D02*
X149036779Y-103712676D01*
X149036779Y-103712676D02*
X149132017Y-103617438D01*
X149132017Y-103617438D02*
X149227255Y-103569819D01*
X150084398Y-104569819D02*
X150084398Y-103569819D01*
X150084398Y-103569819D02*
X150655826Y-104569819D01*
X150655826Y-104569819D02*
X150655826Y-103569819D01*
X161954819Y-110966666D02*
X161478628Y-111299999D01*
X161954819Y-111538094D02*
X160954819Y-111538094D01*
X160954819Y-111538094D02*
X160954819Y-111157142D01*
X160954819Y-111157142D02*
X161002438Y-111061904D01*
X161002438Y-111061904D02*
X161050057Y-111014285D01*
X161050057Y-111014285D02*
X161145295Y-110966666D01*
X161145295Y-110966666D02*
X161288152Y-110966666D01*
X161288152Y-110966666D02*
X161383390Y-111014285D01*
X161383390Y-111014285D02*
X161431009Y-111061904D01*
X161431009Y-111061904D02*
X161478628Y-111157142D01*
X161478628Y-111157142D02*
X161478628Y-111538094D01*
X161050057Y-110585713D02*
X161002438Y-110538094D01*
X161002438Y-110538094D02*
X160954819Y-110442856D01*
X160954819Y-110442856D02*
X160954819Y-110204761D01*
X160954819Y-110204761D02*
X161002438Y-110109523D01*
X161002438Y-110109523D02*
X161050057Y-110061904D01*
X161050057Y-110061904D02*
X161145295Y-110014285D01*
X161145295Y-110014285D02*
X161240533Y-110014285D01*
X161240533Y-110014285D02*
X161383390Y-110061904D01*
X161383390Y-110061904D02*
X161954819Y-110633332D01*
X161954819Y-110633332D02*
X161954819Y-110014285D01*
X160594819Y-72708094D02*
X159594819Y-72708094D01*
X159594819Y-72708094D02*
X159594819Y-72469999D01*
X159594819Y-72469999D02*
X159642438Y-72327142D01*
X159642438Y-72327142D02*
X159737676Y-72231904D01*
X159737676Y-72231904D02*
X159832914Y-72184285D01*
X159832914Y-72184285D02*
X160023390Y-72136666D01*
X160023390Y-72136666D02*
X160166247Y-72136666D01*
X160166247Y-72136666D02*
X160356723Y-72184285D01*
X160356723Y-72184285D02*
X160451961Y-72231904D01*
X160451961Y-72231904D02*
X160547200Y-72327142D01*
X160547200Y-72327142D02*
X160594819Y-72469999D01*
X160594819Y-72469999D02*
X160594819Y-72708094D01*
X159690057Y-71755713D02*
X159642438Y-71708094D01*
X159642438Y-71708094D02*
X159594819Y-71612856D01*
X159594819Y-71612856D02*
X159594819Y-71374761D01*
X159594819Y-71374761D02*
X159642438Y-71279523D01*
X159642438Y-71279523D02*
X159690057Y-71231904D01*
X159690057Y-71231904D02*
X159785295Y-71184285D01*
X159785295Y-71184285D02*
X159880533Y-71184285D01*
X159880533Y-71184285D02*
X160023390Y-71231904D01*
X160023390Y-71231904D02*
X160594819Y-71803332D01*
X160594819Y-71803332D02*
X160594819Y-71184285D01*
X160333333Y-95454819D02*
X160000000Y-94978628D01*
X159761905Y-95454819D02*
X159761905Y-94454819D01*
X159761905Y-94454819D02*
X160142857Y-94454819D01*
X160142857Y-94454819D02*
X160238095Y-94502438D01*
X160238095Y-94502438D02*
X160285714Y-94550057D01*
X160285714Y-94550057D02*
X160333333Y-94645295D01*
X160333333Y-94645295D02*
X160333333Y-94788152D01*
X160333333Y-94788152D02*
X160285714Y-94883390D01*
X160285714Y-94883390D02*
X160238095Y-94931009D01*
X160238095Y-94931009D02*
X160142857Y-94978628D01*
X160142857Y-94978628D02*
X159761905Y-94978628D01*
X160666667Y-94454819D02*
X161285714Y-94454819D01*
X161285714Y-94454819D02*
X160952381Y-94835771D01*
X160952381Y-94835771D02*
X161095238Y-94835771D01*
X161095238Y-94835771D02*
X161190476Y-94883390D01*
X161190476Y-94883390D02*
X161238095Y-94931009D01*
X161238095Y-94931009D02*
X161285714Y-95026247D01*
X161285714Y-95026247D02*
X161285714Y-95264342D01*
X161285714Y-95264342D02*
X161238095Y-95359580D01*
X161238095Y-95359580D02*
X161190476Y-95407200D01*
X161190476Y-95407200D02*
X161095238Y-95454819D01*
X161095238Y-95454819D02*
X160809524Y-95454819D01*
X160809524Y-95454819D02*
X160714286Y-95407200D01*
X160714286Y-95407200D02*
X160666667Y-95359580D01*
X176654819Y-111266666D02*
X176178628Y-111599999D01*
X176654819Y-111838094D02*
X175654819Y-111838094D01*
X175654819Y-111838094D02*
X175654819Y-111457142D01*
X175654819Y-111457142D02*
X175702438Y-111361904D01*
X175702438Y-111361904D02*
X175750057Y-111314285D01*
X175750057Y-111314285D02*
X175845295Y-111266666D01*
X175845295Y-111266666D02*
X175988152Y-111266666D01*
X175988152Y-111266666D02*
X176083390Y-111314285D01*
X176083390Y-111314285D02*
X176131009Y-111361904D01*
X176131009Y-111361904D02*
X176178628Y-111457142D01*
X176178628Y-111457142D02*
X176178628Y-111838094D01*
X175988152Y-110409523D02*
X176654819Y-110409523D01*
X175607200Y-110647618D02*
X176321485Y-110885713D01*
X176321485Y-110885713D02*
X176321485Y-110266666D01*
D11*
X153938095Y-119457419D02*
X154604761Y-119457419D01*
X154604761Y-119457419D02*
X154176190Y-120457419D01*
X155461904Y-119457419D02*
X154985714Y-119457419D01*
X154985714Y-119457419D02*
X154938095Y-119933609D01*
X154938095Y-119933609D02*
X154985714Y-119885990D01*
X154985714Y-119885990D02*
X155080952Y-119838371D01*
X155080952Y-119838371D02*
X155319047Y-119838371D01*
X155319047Y-119838371D02*
X155414285Y-119885990D01*
X155414285Y-119885990D02*
X155461904Y-119933609D01*
X155461904Y-119933609D02*
X155509523Y-120028847D01*
X155509523Y-120028847D02*
X155509523Y-120266942D01*
X155509523Y-120266942D02*
X155461904Y-120362180D01*
X155461904Y-120362180D02*
X155414285Y-120409800D01*
X155414285Y-120409800D02*
X155319047Y-120457419D01*
X155319047Y-120457419D02*
X155080952Y-120457419D01*
X155080952Y-120457419D02*
X154985714Y-120409800D01*
X154985714Y-120409800D02*
X154938095Y-120362180D01*
X156414285Y-119457419D02*
X155938095Y-119457419D01*
X155938095Y-119457419D02*
X155890476Y-119933609D01*
X155890476Y-119933609D02*
X155938095Y-119885990D01*
X155938095Y-119885990D02*
X156033333Y-119838371D01*
X156033333Y-119838371D02*
X156271428Y-119838371D01*
X156271428Y-119838371D02*
X156366666Y-119885990D01*
X156366666Y-119885990D02*
X156414285Y-119933609D01*
X156414285Y-119933609D02*
X156461904Y-120028847D01*
X156461904Y-120028847D02*
X156461904Y-120266942D01*
X156461904Y-120266942D02*
X156414285Y-120362180D01*
X156414285Y-120362180D02*
X156366666Y-120409800D01*
X156366666Y-120409800D02*
X156271428Y-120457419D01*
X156271428Y-120457419D02*
X156033333Y-120457419D01*
X156033333Y-120457419D02*
X155938095Y-120409800D01*
X155938095Y-120409800D02*
X155890476Y-120362180D01*
X157366666Y-119457419D02*
X156890476Y-119457419D01*
X156890476Y-119457419D02*
X156842857Y-119933609D01*
X156842857Y-119933609D02*
X156890476Y-119885990D01*
X156890476Y-119885990D02*
X156985714Y-119838371D01*
X156985714Y-119838371D02*
X157223809Y-119838371D01*
X157223809Y-119838371D02*
X157319047Y-119885990D01*
X157319047Y-119885990D02*
X157366666Y-119933609D01*
X157366666Y-119933609D02*
X157414285Y-120028847D01*
X157414285Y-120028847D02*
X157414285Y-120266942D01*
X157414285Y-120266942D02*
X157366666Y-120362180D01*
X157366666Y-120362180D02*
X157319047Y-120409800D01*
X157319047Y-120409800D02*
X157223809Y-120457419D01*
X157223809Y-120457419D02*
X156985714Y-120457419D01*
X156985714Y-120457419D02*
X156890476Y-120409800D01*
X156890476Y-120409800D02*
X156842857Y-120362180D01*
D10*
X126024709Y-114061425D02*
X126072328Y-113918568D01*
X126072328Y-113918568D02*
X126119947Y-113870949D01*
X126119947Y-113870949D02*
X126215185Y-113823330D01*
X126215185Y-113823330D02*
X126358042Y-113823330D01*
X126358042Y-113823330D02*
X126453280Y-113870949D01*
X126453280Y-113870949D02*
X126500900Y-113918568D01*
X126500900Y-113918568D02*
X126548519Y-114013806D01*
X126548519Y-114013806D02*
X126548519Y-114394758D01*
X126548519Y-114394758D02*
X125548519Y-114394758D01*
X125548519Y-114394758D02*
X125548519Y-114061425D01*
X125548519Y-114061425D02*
X125596138Y-113966187D01*
X125596138Y-113966187D02*
X125643757Y-113918568D01*
X125643757Y-113918568D02*
X125738995Y-113870949D01*
X125738995Y-113870949D02*
X125834233Y-113870949D01*
X125834233Y-113870949D02*
X125929471Y-113918568D01*
X125929471Y-113918568D02*
X125977090Y-113966187D01*
X125977090Y-113966187D02*
X126024709Y-114061425D01*
X126024709Y-114061425D02*
X126024709Y-114394758D01*
X126262804Y-113442377D02*
X126262804Y-112966187D01*
X126548519Y-113537615D02*
X125548519Y-113204282D01*
X125548519Y-113204282D02*
X126548519Y-112870949D01*
X125548519Y-112680472D02*
X125548519Y-112109044D01*
X126548519Y-112394758D02*
X125548519Y-112394758D01*
X126548519Y-111251901D02*
X126548519Y-111823329D01*
X126548519Y-111537615D02*
X125548519Y-111537615D01*
X125548519Y-111537615D02*
X125691376Y-111632853D01*
X125691376Y-111632853D02*
X125786614Y-111728091D01*
X125786614Y-111728091D02*
X125834233Y-111823329D01*
X171354819Y-111066666D02*
X170878628Y-111399999D01*
X171354819Y-111638094D02*
X170354819Y-111638094D01*
X170354819Y-111638094D02*
X170354819Y-111257142D01*
X170354819Y-111257142D02*
X170402438Y-111161904D01*
X170402438Y-111161904D02*
X170450057Y-111114285D01*
X170450057Y-111114285D02*
X170545295Y-111066666D01*
X170545295Y-111066666D02*
X170688152Y-111066666D01*
X170688152Y-111066666D02*
X170783390Y-111114285D01*
X170783390Y-111114285D02*
X170831009Y-111161904D01*
X170831009Y-111161904D02*
X170878628Y-111257142D01*
X170878628Y-111257142D02*
X170878628Y-111638094D01*
X170354819Y-110733332D02*
X170354819Y-110066666D01*
X170354819Y-110066666D02*
X171354819Y-110495237D01*
X165233333Y-125759580D02*
X165185714Y-125807200D01*
X165185714Y-125807200D02*
X165042857Y-125854819D01*
X165042857Y-125854819D02*
X164947619Y-125854819D01*
X164947619Y-125854819D02*
X164804762Y-125807200D01*
X164804762Y-125807200D02*
X164709524Y-125711961D01*
X164709524Y-125711961D02*
X164661905Y-125616723D01*
X164661905Y-125616723D02*
X164614286Y-125426247D01*
X164614286Y-125426247D02*
X164614286Y-125283390D01*
X164614286Y-125283390D02*
X164661905Y-125092914D01*
X164661905Y-125092914D02*
X164709524Y-124997676D01*
X164709524Y-124997676D02*
X164804762Y-124902438D01*
X164804762Y-124902438D02*
X164947619Y-124854819D01*
X164947619Y-124854819D02*
X165042857Y-124854819D01*
X165042857Y-124854819D02*
X165185714Y-124902438D01*
X165185714Y-124902438D02*
X165233333Y-124950057D01*
X166185714Y-125854819D02*
X165614286Y-125854819D01*
X165900000Y-125854819D02*
X165900000Y-124854819D01*
X165900000Y-124854819D02*
X165804762Y-124997676D01*
X165804762Y-124997676D02*
X165709524Y-125092914D01*
X165709524Y-125092914D02*
X165614286Y-125140533D01*
X153907200Y-107661904D02*
X153954819Y-107519047D01*
X153954819Y-107519047D02*
X153954819Y-107280952D01*
X153954819Y-107280952D02*
X153907200Y-107185714D01*
X153907200Y-107185714D02*
X153859580Y-107138095D01*
X153859580Y-107138095D02*
X153764342Y-107090476D01*
X153764342Y-107090476D02*
X153669104Y-107090476D01*
X153669104Y-107090476D02*
X153573866Y-107138095D01*
X153573866Y-107138095D02*
X153526247Y-107185714D01*
X153526247Y-107185714D02*
X153478628Y-107280952D01*
X153478628Y-107280952D02*
X153431009Y-107471428D01*
X153431009Y-107471428D02*
X153383390Y-107566666D01*
X153383390Y-107566666D02*
X153335771Y-107614285D01*
X153335771Y-107614285D02*
X153240533Y-107661904D01*
X153240533Y-107661904D02*
X153145295Y-107661904D01*
X153145295Y-107661904D02*
X153050057Y-107614285D01*
X153050057Y-107614285D02*
X153002438Y-107566666D01*
X153002438Y-107566666D02*
X152954819Y-107471428D01*
X152954819Y-107471428D02*
X152954819Y-107233333D01*
X152954819Y-107233333D02*
X153002438Y-107090476D01*
X153954819Y-106138095D02*
X153954819Y-106709523D01*
X153954819Y-106423809D02*
X152954819Y-106423809D01*
X152954819Y-106423809D02*
X153097676Y-106519047D01*
X153097676Y-106519047D02*
X153192914Y-106614285D01*
X153192914Y-106614285D02*
X153240533Y-106709523D01*
X157454819Y-110866666D02*
X156978628Y-111199999D01*
X157454819Y-111438094D02*
X156454819Y-111438094D01*
X156454819Y-111438094D02*
X156454819Y-111057142D01*
X156454819Y-111057142D02*
X156502438Y-110961904D01*
X156502438Y-110961904D02*
X156550057Y-110914285D01*
X156550057Y-110914285D02*
X156645295Y-110866666D01*
X156645295Y-110866666D02*
X156788152Y-110866666D01*
X156788152Y-110866666D02*
X156883390Y-110914285D01*
X156883390Y-110914285D02*
X156931009Y-110961904D01*
X156931009Y-110961904D02*
X156978628Y-111057142D01*
X156978628Y-111057142D02*
X156978628Y-111438094D01*
X157454819Y-109914285D02*
X157454819Y-110485713D01*
X157454819Y-110199999D02*
X156454819Y-110199999D01*
X156454819Y-110199999D02*
X156597676Y-110295237D01*
X156597676Y-110295237D02*
X156692914Y-110390475D01*
X156692914Y-110390475D02*
X156740533Y-110485713D01*
X168833333Y-113754819D02*
X168500000Y-113278628D01*
X168261905Y-113754819D02*
X168261905Y-112754819D01*
X168261905Y-112754819D02*
X168642857Y-112754819D01*
X168642857Y-112754819D02*
X168738095Y-112802438D01*
X168738095Y-112802438D02*
X168785714Y-112850057D01*
X168785714Y-112850057D02*
X168833333Y-112945295D01*
X168833333Y-112945295D02*
X168833333Y-113088152D01*
X168833333Y-113088152D02*
X168785714Y-113183390D01*
X168785714Y-113183390D02*
X168738095Y-113231009D01*
X168738095Y-113231009D02*
X168642857Y-113278628D01*
X168642857Y-113278628D02*
X168261905Y-113278628D01*
X169738095Y-112754819D02*
X169261905Y-112754819D01*
X169261905Y-112754819D02*
X169214286Y-113231009D01*
X169214286Y-113231009D02*
X169261905Y-113183390D01*
X169261905Y-113183390D02*
X169357143Y-113135771D01*
X169357143Y-113135771D02*
X169595238Y-113135771D01*
X169595238Y-113135771D02*
X169690476Y-113183390D01*
X169690476Y-113183390D02*
X169738095Y-113231009D01*
X169738095Y-113231009D02*
X169785714Y-113326247D01*
X169785714Y-113326247D02*
X169785714Y-113564342D01*
X169785714Y-113564342D02*
X169738095Y-113659580D01*
X169738095Y-113659580D02*
X169690476Y-113707200D01*
X169690476Y-113707200D02*
X169595238Y-113754819D01*
X169595238Y-113754819D02*
X169357143Y-113754819D01*
X169357143Y-113754819D02*
X169261905Y-113707200D01*
X169261905Y-113707200D02*
X169214286Y-113659580D01*
X144194819Y-72708094D02*
X143194819Y-72708094D01*
X143194819Y-72708094D02*
X143194819Y-72469999D01*
X143194819Y-72469999D02*
X143242438Y-72327142D01*
X143242438Y-72327142D02*
X143337676Y-72231904D01*
X143337676Y-72231904D02*
X143432914Y-72184285D01*
X143432914Y-72184285D02*
X143623390Y-72136666D01*
X143623390Y-72136666D02*
X143766247Y-72136666D01*
X143766247Y-72136666D02*
X143956723Y-72184285D01*
X143956723Y-72184285D02*
X144051961Y-72231904D01*
X144051961Y-72231904D02*
X144147200Y-72327142D01*
X144147200Y-72327142D02*
X144194819Y-72469999D01*
X144194819Y-72469999D02*
X144194819Y-72708094D01*
X144194819Y-71184285D02*
X144194819Y-71755713D01*
X144194819Y-71469999D02*
X143194819Y-71469999D01*
X143194819Y-71469999D02*
X143337676Y-71565237D01*
X143337676Y-71565237D02*
X143432914Y-71660475D01*
X143432914Y-71660475D02*
X143480533Y-71755713D01*
X176833333Y-126559580D02*
X176785714Y-126607200D01*
X176785714Y-126607200D02*
X176642857Y-126654819D01*
X176642857Y-126654819D02*
X176547619Y-126654819D01*
X176547619Y-126654819D02*
X176404762Y-126607200D01*
X176404762Y-126607200D02*
X176309524Y-126511961D01*
X176309524Y-126511961D02*
X176261905Y-126416723D01*
X176261905Y-126416723D02*
X176214286Y-126226247D01*
X176214286Y-126226247D02*
X176214286Y-126083390D01*
X176214286Y-126083390D02*
X176261905Y-125892914D01*
X176261905Y-125892914D02*
X176309524Y-125797676D01*
X176309524Y-125797676D02*
X176404762Y-125702438D01*
X176404762Y-125702438D02*
X176547619Y-125654819D01*
X176547619Y-125654819D02*
X176642857Y-125654819D01*
X176642857Y-125654819D02*
X176785714Y-125702438D01*
X176785714Y-125702438D02*
X176833333Y-125750057D01*
X177214286Y-125750057D02*
X177261905Y-125702438D01*
X177261905Y-125702438D02*
X177357143Y-125654819D01*
X177357143Y-125654819D02*
X177595238Y-125654819D01*
X177595238Y-125654819D02*
X177690476Y-125702438D01*
X177690476Y-125702438D02*
X177738095Y-125750057D01*
X177738095Y-125750057D02*
X177785714Y-125845295D01*
X177785714Y-125845295D02*
X177785714Y-125940533D01*
X177785714Y-125940533D02*
X177738095Y-126083390D01*
X177738095Y-126083390D02*
X177166667Y-126654819D01*
X177166667Y-126654819D02*
X177785714Y-126654819D01*
X175204761Y-94850057D02*
X175109523Y-94802438D01*
X175109523Y-94802438D02*
X175014285Y-94707200D01*
X175014285Y-94707200D02*
X174871428Y-94564342D01*
X174871428Y-94564342D02*
X174776190Y-94516723D01*
X174776190Y-94516723D02*
X174680952Y-94516723D01*
X174728571Y-94754819D02*
X174633333Y-94707200D01*
X174633333Y-94707200D02*
X174538095Y-94611961D01*
X174538095Y-94611961D02*
X174490476Y-94421485D01*
X174490476Y-94421485D02*
X174490476Y-94088152D01*
X174490476Y-94088152D02*
X174538095Y-93897676D01*
X174538095Y-93897676D02*
X174633333Y-93802438D01*
X174633333Y-93802438D02*
X174728571Y-93754819D01*
X174728571Y-93754819D02*
X174919047Y-93754819D01*
X174919047Y-93754819D02*
X175014285Y-93802438D01*
X175014285Y-93802438D02*
X175109523Y-93897676D01*
X175109523Y-93897676D02*
X175157142Y-94088152D01*
X175157142Y-94088152D02*
X175157142Y-94421485D01*
X175157142Y-94421485D02*
X175109523Y-94611961D01*
X175109523Y-94611961D02*
X175014285Y-94707200D01*
X175014285Y-94707200D02*
X174919047Y-94754819D01*
X174919047Y-94754819D02*
X174728571Y-94754819D01*
X176109523Y-94754819D02*
X175538095Y-94754819D01*
X175823809Y-94754819D02*
X175823809Y-93754819D01*
X175823809Y-93754819D02*
X175728571Y-93897676D01*
X175728571Y-93897676D02*
X175633333Y-93992914D01*
X175633333Y-93992914D02*
X175538095Y-94040533D01*
X166654819Y-110866666D02*
X166178628Y-111199999D01*
X166654819Y-111438094D02*
X165654819Y-111438094D01*
X165654819Y-111438094D02*
X165654819Y-111057142D01*
X165654819Y-111057142D02*
X165702438Y-110961904D01*
X165702438Y-110961904D02*
X165750057Y-110914285D01*
X165750057Y-110914285D02*
X165845295Y-110866666D01*
X165845295Y-110866666D02*
X165988152Y-110866666D01*
X165988152Y-110866666D02*
X166083390Y-110914285D01*
X166083390Y-110914285D02*
X166131009Y-110961904D01*
X166131009Y-110961904D02*
X166178628Y-111057142D01*
X166178628Y-111057142D02*
X166178628Y-111438094D01*
X165654819Y-110009523D02*
X165654819Y-110199999D01*
X165654819Y-110199999D02*
X165702438Y-110295237D01*
X165702438Y-110295237D02*
X165750057Y-110342856D01*
X165750057Y-110342856D02*
X165892914Y-110438094D01*
X165892914Y-110438094D02*
X166083390Y-110485713D01*
X166083390Y-110485713D02*
X166464342Y-110485713D01*
X166464342Y-110485713D02*
X166559580Y-110438094D01*
X166559580Y-110438094D02*
X166607200Y-110390475D01*
X166607200Y-110390475D02*
X166654819Y-110295237D01*
X166654819Y-110295237D02*
X166654819Y-110104761D01*
X166654819Y-110104761D02*
X166607200Y-110009523D01*
X166607200Y-110009523D02*
X166559580Y-109961904D01*
X166559580Y-109961904D02*
X166464342Y-109914285D01*
X166464342Y-109914285D02*
X166226247Y-109914285D01*
X166226247Y-109914285D02*
X166131009Y-109961904D01*
X166131009Y-109961904D02*
X166083390Y-110009523D01*
X166083390Y-110009523D02*
X166035771Y-110104761D01*
X166035771Y-110104761D02*
X166035771Y-110295237D01*
X166035771Y-110295237D02*
X166083390Y-110390475D01*
X166083390Y-110390475D02*
X166131009Y-110438094D01*
X166131009Y-110438094D02*
X166226247Y-110485713D01*
D12*
%TO.C,R2*%
X165070000Y-103530000D02*
X165070000Y-110070000D01*
X164740000Y-103530000D02*
X165070000Y-103530000D01*
X162660000Y-103530000D02*
X162330000Y-103530000D01*
X162330000Y-103530000D02*
X162330000Y-110070000D01*
X165070000Y-110070000D02*
X164740000Y-110070000D01*
X162330000Y-110070000D02*
X162660000Y-110070000D01*
%TO.C,D2*%
X161864000Y-73530000D02*
X162020000Y-73530000D01*
X164180000Y-73530000D02*
X164336000Y-73530000D01*
X162021392Y-70297666D02*
G75*
G03*
X161864485Y-73529999I1078608J-1672334D01*
G01*
X162020164Y-70928871D02*
G75*
G03*
X162020001Y-73010960I1079836J-1041129D01*
G01*
X164179999Y-73010960D02*
G75*
G03*
X164179836Y-70928871I-1079999J1040960D01*
G01*
X164335515Y-73529999D02*
G75*
G03*
X164178608Y-70297666I-1235515J1559999D01*
G01*
%TO.C,R3*%
X161140000Y-95830000D02*
X167680000Y-95830000D01*
X161140000Y-96160000D02*
X161140000Y-95830000D01*
X161140000Y-98240000D02*
X161140000Y-98570000D01*
X161140000Y-98570000D02*
X167680000Y-98570000D01*
X167680000Y-95830000D02*
X167680000Y-96160000D01*
X167680000Y-98570000D02*
X167680000Y-98240000D01*
%TO.C,R4*%
X176930000Y-110460000D02*
X176930000Y-103920000D01*
X177260000Y-110460000D02*
X176930000Y-110460000D01*
X179340000Y-110460000D02*
X179670000Y-110460000D01*
X179670000Y-110460000D02*
X179670000Y-103920000D01*
X176930000Y-103920000D02*
X177260000Y-103920000D01*
X179670000Y-103920000D02*
X179340000Y-103920000D01*
D13*
%TO.C,7555*%
X150690000Y-124074000D02*
G75*
G03*
X150690000Y-124074000I-254000J0D01*
G01*
D11*
%TO.C,BAT1*%
X134488400Y-102341700D02*
X134488400Y-99598500D01*
X142311600Y-102341700D02*
X142311600Y-99598500D01*
X134488400Y-99598500D02*
X137333200Y-99598500D01*
X142311600Y-99598500D02*
X139466800Y-99598500D01*
X149626800Y-112908100D02*
G75*
G03*
X149626800Y-112908100I-11226800J0D01*
G01*
D12*
%TO.C,R7*%
X174370000Y-103640000D02*
X174370000Y-110180000D01*
X174040000Y-103640000D02*
X174370000Y-103640000D01*
X171960000Y-103640000D02*
X171630000Y-103640000D01*
X171630000Y-103640000D02*
X171630000Y-110180000D01*
X174370000Y-110180000D02*
X174040000Y-110180000D01*
X171630000Y-110180000D02*
X171960000Y-110180000D01*
%TO.C,C1*%
X166875000Y-118295225D02*
X166875000Y-118795225D01*
X167125000Y-118545225D02*
X166625000Y-118545225D01*
X167980000Y-121100000D02*
X166440000Y-121100000D01*
X164360000Y-121100000D02*
X162820000Y-121100000D01*
X167980000Y-121140000D02*
X166440000Y-121140000D01*
X164360000Y-121140000D02*
X162820000Y-121140000D01*
X167979000Y-121180000D02*
X166440000Y-121180000D01*
X164360000Y-121180000D02*
X162821000Y-121180000D01*
X167978000Y-121220000D02*
X166440000Y-121220000D01*
X164360000Y-121220000D02*
X162822000Y-121220000D01*
X167976000Y-121260000D02*
X166440000Y-121260000D01*
X164360000Y-121260000D02*
X162824000Y-121260000D01*
X167973000Y-121300000D02*
X166440000Y-121300000D01*
X164360000Y-121300000D02*
X162827000Y-121300000D01*
X167969000Y-121340000D02*
X166440000Y-121340000D01*
X164360000Y-121340000D02*
X162831000Y-121340000D01*
X167965000Y-121380000D02*
X166440000Y-121380000D01*
X164360000Y-121380000D02*
X162835000Y-121380000D01*
X167961000Y-121420000D02*
X166440000Y-121420000D01*
X164360000Y-121420000D02*
X162839000Y-121420000D01*
X167956000Y-121460000D02*
X166440000Y-121460000D01*
X164360000Y-121460000D02*
X162844000Y-121460000D01*
X167950000Y-121500000D02*
X166440000Y-121500000D01*
X164360000Y-121500000D02*
X162850000Y-121500000D01*
X167943000Y-121540000D02*
X166440000Y-121540000D01*
X164360000Y-121540000D02*
X162857000Y-121540000D01*
X167936000Y-121580000D02*
X166440000Y-121580000D01*
X164360000Y-121580000D02*
X162864000Y-121580000D01*
X167928000Y-121620000D02*
X166440000Y-121620000D01*
X164360000Y-121620000D02*
X162872000Y-121620000D01*
X167920000Y-121660000D02*
X166440000Y-121660000D01*
X164360000Y-121660000D02*
X162880000Y-121660000D01*
X167911000Y-121700000D02*
X166440000Y-121700000D01*
X164360000Y-121700000D02*
X162889000Y-121700000D01*
X167901000Y-121740000D02*
X166440000Y-121740000D01*
X164360000Y-121740000D02*
X162899000Y-121740000D01*
X167891000Y-121780000D02*
X166440000Y-121780000D01*
X164360000Y-121780000D02*
X162909000Y-121780000D01*
X167880000Y-121821000D02*
X166440000Y-121821000D01*
X164360000Y-121821000D02*
X162920000Y-121821000D01*
X167868000Y-121861000D02*
X166440000Y-121861000D01*
X164360000Y-121861000D02*
X162932000Y-121861000D01*
X167855000Y-121901000D02*
X166440000Y-121901000D01*
X164360000Y-121901000D02*
X162945000Y-121901000D01*
X167842000Y-121941000D02*
X166440000Y-121941000D01*
X164360000Y-121941000D02*
X162958000Y-121941000D01*
X167828000Y-121981000D02*
X166440000Y-121981000D01*
X164360000Y-121981000D02*
X162972000Y-121981000D01*
X167814000Y-122021000D02*
X166440000Y-122021000D01*
X164360000Y-122021000D02*
X162986000Y-122021000D01*
X167798000Y-122061000D02*
X166440000Y-122061000D01*
X164360000Y-122061000D02*
X163002000Y-122061000D01*
X167782000Y-122101000D02*
X166440000Y-122101000D01*
X164360000Y-122101000D02*
X163018000Y-122101000D01*
X167765000Y-122141000D02*
X166440000Y-122141000D01*
X164360000Y-122141000D02*
X163035000Y-122141000D01*
X167748000Y-122181000D02*
X166440000Y-122181000D01*
X164360000Y-122181000D02*
X163052000Y-122181000D01*
X167729000Y-122221000D02*
X166440000Y-122221000D01*
X164360000Y-122221000D02*
X163071000Y-122221000D01*
X167710000Y-122261000D02*
X166440000Y-122261000D01*
X164360000Y-122261000D02*
X163090000Y-122261000D01*
X167690000Y-122301000D02*
X166440000Y-122301000D01*
X164360000Y-122301000D02*
X163110000Y-122301000D01*
X167668000Y-122341000D02*
X166440000Y-122341000D01*
X164360000Y-122341000D02*
X163132000Y-122341000D01*
X167647000Y-122381000D02*
X166440000Y-122381000D01*
X164360000Y-122381000D02*
X163153000Y-122381000D01*
X167624000Y-122421000D02*
X166440000Y-122421000D01*
X164360000Y-122421000D02*
X163176000Y-122421000D01*
X167600000Y-122461000D02*
X166440000Y-122461000D01*
X164360000Y-122461000D02*
X163200000Y-122461000D01*
X167575000Y-122501000D02*
X166440000Y-122501000D01*
X164360000Y-122501000D02*
X163225000Y-122501000D01*
X167549000Y-122541000D02*
X166440000Y-122541000D01*
X164360000Y-122541000D02*
X163251000Y-122541000D01*
X167522000Y-122581000D02*
X166440000Y-122581000D01*
X164360000Y-122581000D02*
X163278000Y-122581000D01*
X167495000Y-122621000D02*
X166440000Y-122621000D01*
X164360000Y-122621000D02*
X163305000Y-122621000D01*
X167465000Y-122661000D02*
X166440000Y-122661000D01*
X164360000Y-122661000D02*
X163335000Y-122661000D01*
X167435000Y-122701000D02*
X166440000Y-122701000D01*
X164360000Y-122701000D02*
X163365000Y-122701000D01*
X167404000Y-122741000D02*
X166440000Y-122741000D01*
X164360000Y-122741000D02*
X163396000Y-122741000D01*
X167371000Y-122781000D02*
X166440000Y-122781000D01*
X164360000Y-122781000D02*
X163429000Y-122781000D01*
X167337000Y-122821000D02*
X166440000Y-122821000D01*
X164360000Y-122821000D02*
X163463000Y-122821000D01*
X167301000Y-122861000D02*
X166440000Y-122861000D01*
X164360000Y-122861000D02*
X163499000Y-122861000D01*
X167264000Y-122901000D02*
X166440000Y-122901000D01*
X164360000Y-122901000D02*
X163536000Y-122901000D01*
X167226000Y-122941000D02*
X166440000Y-122941000D01*
X164360000Y-122941000D02*
X163574000Y-122941000D01*
X167185000Y-122981000D02*
X166440000Y-122981000D01*
X164360000Y-122981000D02*
X163615000Y-122981000D01*
X167143000Y-123021000D02*
X166440000Y-123021000D01*
X164360000Y-123021000D02*
X163657000Y-123021000D01*
X167099000Y-123061000D02*
X166440000Y-123061000D01*
X164360000Y-123061000D02*
X163701000Y-123061000D01*
X167053000Y-123101000D02*
X166440000Y-123101000D01*
X164360000Y-123101000D02*
X163747000Y-123101000D01*
X167005000Y-123141000D02*
X163795000Y-123141000D01*
X166954000Y-123181000D02*
X163846000Y-123181000D01*
X166900000Y-123221000D02*
X163900000Y-123221000D01*
X166843000Y-123261000D02*
X163957000Y-123261000D01*
X166783000Y-123301000D02*
X164017000Y-123301000D01*
X166719000Y-123341000D02*
X164081000Y-123341000D01*
X166651000Y-123381000D02*
X164149000Y-123381000D01*
X166578000Y-123421000D02*
X164222000Y-123421000D01*
X166498000Y-123461000D02*
X164302000Y-123461000D01*
X166411000Y-123501000D02*
X164389000Y-123501000D01*
X166315000Y-123541000D02*
X164485000Y-123541000D01*
X166205000Y-123581000D02*
X164595000Y-123581000D01*
X166077000Y-123621000D02*
X164723000Y-123621000D01*
X165918000Y-123661000D02*
X164882000Y-123661000D01*
X165684000Y-123701000D02*
X165116000Y-123701000D01*
X168020000Y-121100000D02*
G75*
G03*
X168020000Y-121100000I-2620000J0D01*
G01*
D11*
%TO.C,S1*%
X151500000Y-113000000D02*
X152000000Y-113000000D01*
X151500000Y-113000000D02*
X151500000Y-112500000D01*
X155700000Y-113000000D02*
X155200000Y-113000000D01*
X155700000Y-113000000D02*
X155700000Y-112500000D01*
X151500000Y-101100000D02*
X151500000Y-101600000D01*
X151500000Y-101100000D02*
X152000000Y-101100000D01*
X155700000Y-101100000D02*
X155700000Y-101600000D01*
X155700000Y-101100000D02*
X155200000Y-101100000D01*
D12*
%TO.C,R1*%
X160470000Y-103430000D02*
X160470000Y-109970000D01*
X160140000Y-103430000D02*
X160470000Y-103430000D01*
X158060000Y-103430000D02*
X157730000Y-103430000D01*
X157730000Y-103430000D02*
X157730000Y-109970000D01*
X160470000Y-109970000D02*
X160140000Y-109970000D01*
X157730000Y-109970000D02*
X158060000Y-109970000D01*
%TO.C,R5*%
X169740000Y-114730000D02*
X176280000Y-114730000D01*
X169740000Y-115060000D02*
X169740000Y-114730000D01*
X169740000Y-117140000D02*
X169740000Y-117470000D01*
X169740000Y-117470000D02*
X176280000Y-117470000D01*
X176280000Y-114730000D02*
X176280000Y-115060000D01*
X176280000Y-117470000D02*
X176280000Y-117140000D01*
%TO.C,D1*%
X145464000Y-73530000D02*
X145620000Y-73530000D01*
X147780000Y-73530000D02*
X147936000Y-73530000D01*
X145621392Y-70297666D02*
G75*
G03*
X145464485Y-73529999I1078608J-1672334D01*
G01*
X145620164Y-70928871D02*
G75*
G03*
X145620001Y-73010960I1079836J-1041129D01*
G01*
X147779999Y-73010960D02*
G75*
G03*
X147779836Y-70928871I-1079999J1040960D01*
G01*
X147935515Y-73529999D02*
G75*
G03*
X147778608Y-70297666I-1235515J1559999D01*
G01*
%TO.C,C2*%
X178539000Y-118549759D02*
X178539000Y-119179759D01*
X178854000Y-118864759D02*
X178224000Y-118864759D01*
X179930000Y-122050000D02*
X173470000Y-122050000D01*
X179930000Y-122090000D02*
X173470000Y-122090000D01*
X179930000Y-122130000D02*
X173470000Y-122130000D01*
X179928000Y-122170000D02*
X173472000Y-122170000D01*
X179927000Y-122210000D02*
X173473000Y-122210000D01*
X179924000Y-122250000D02*
X173476000Y-122250000D01*
X179922000Y-122290000D02*
X177740000Y-122290000D01*
X175660000Y-122290000D02*
X173478000Y-122290000D01*
X179918000Y-122330000D02*
X177740000Y-122330000D01*
X175660000Y-122330000D02*
X173482000Y-122330000D01*
X179915000Y-122370000D02*
X177740000Y-122370000D01*
X175660000Y-122370000D02*
X173485000Y-122370000D01*
X179911000Y-122410000D02*
X177740000Y-122410000D01*
X175660000Y-122410000D02*
X173489000Y-122410000D01*
X179906000Y-122450000D02*
X177740000Y-122450000D01*
X175660000Y-122450000D02*
X173494000Y-122450000D01*
X179901000Y-122490000D02*
X177740000Y-122490000D01*
X175660000Y-122490000D02*
X173499000Y-122490000D01*
X179895000Y-122530000D02*
X177740000Y-122530000D01*
X175660000Y-122530000D02*
X173505000Y-122530000D01*
X179889000Y-122570000D02*
X177740000Y-122570000D01*
X175660000Y-122570000D02*
X173511000Y-122570000D01*
X179882000Y-122610000D02*
X177740000Y-122610000D01*
X175660000Y-122610000D02*
X173518000Y-122610000D01*
X179875000Y-122650000D02*
X177740000Y-122650000D01*
X175660000Y-122650000D02*
X173525000Y-122650000D01*
X179867000Y-122690000D02*
X177740000Y-122690000D01*
X175660000Y-122690000D02*
X173533000Y-122690000D01*
X179859000Y-122730000D02*
X177740000Y-122730000D01*
X175660000Y-122730000D02*
X173541000Y-122730000D01*
X179850000Y-122771000D02*
X177740000Y-122771000D01*
X175660000Y-122771000D02*
X173550000Y-122771000D01*
X179841000Y-122811000D02*
X177740000Y-122811000D01*
X175660000Y-122811000D02*
X173559000Y-122811000D01*
X179831000Y-122851000D02*
X177740000Y-122851000D01*
X175660000Y-122851000D02*
X173569000Y-122851000D01*
X179821000Y-122891000D02*
X177740000Y-122891000D01*
X175660000Y-122891000D02*
X173579000Y-122891000D01*
X179810000Y-122931000D02*
X177740000Y-122931000D01*
X175660000Y-122931000D02*
X173590000Y-122931000D01*
X179798000Y-122971000D02*
X177740000Y-122971000D01*
X175660000Y-122971000D02*
X173602000Y-122971000D01*
X179786000Y-123011000D02*
X177740000Y-123011000D01*
X175660000Y-123011000D02*
X173614000Y-123011000D01*
X179774000Y-123051000D02*
X177740000Y-123051000D01*
X175660000Y-123051000D02*
X173626000Y-123051000D01*
X179761000Y-123091000D02*
X177740000Y-123091000D01*
X175660000Y-123091000D02*
X173639000Y-123091000D01*
X179747000Y-123131000D02*
X177740000Y-123131000D01*
X175660000Y-123131000D02*
X173653000Y-123131000D01*
X179733000Y-123171000D02*
X177740000Y-123171000D01*
X175660000Y-123171000D02*
X173667000Y-123171000D01*
X179718000Y-123211000D02*
X177740000Y-123211000D01*
X175660000Y-123211000D02*
X173682000Y-123211000D01*
X179702000Y-123251000D02*
X177740000Y-123251000D01*
X175660000Y-123251000D02*
X173698000Y-123251000D01*
X179686000Y-123291000D02*
X177740000Y-123291000D01*
X175660000Y-123291000D02*
X173714000Y-123291000D01*
X179670000Y-123331000D02*
X177740000Y-123331000D01*
X175660000Y-123331000D02*
X173730000Y-123331000D01*
X179652000Y-123371000D02*
X177740000Y-123371000D01*
X175660000Y-123371000D02*
X173748000Y-123371000D01*
X179634000Y-123411000D02*
X177740000Y-123411000D01*
X175660000Y-123411000D02*
X173766000Y-123411000D01*
X179616000Y-123451000D02*
X177740000Y-123451000D01*
X175660000Y-123451000D02*
X173784000Y-123451000D01*
X179596000Y-123491000D02*
X177740000Y-123491000D01*
X175660000Y-123491000D02*
X173804000Y-123491000D01*
X179576000Y-123531000D02*
X177740000Y-123531000D01*
X175660000Y-123531000D02*
X173824000Y-123531000D01*
X179556000Y-123571000D02*
X177740000Y-123571000D01*
X175660000Y-123571000D02*
X173844000Y-123571000D01*
X179534000Y-123611000D02*
X177740000Y-123611000D01*
X175660000Y-123611000D02*
X173866000Y-123611000D01*
X179512000Y-123651000D02*
X177740000Y-123651000D01*
X175660000Y-123651000D02*
X173888000Y-123651000D01*
X179490000Y-123691000D02*
X177740000Y-123691000D01*
X175660000Y-123691000D02*
X173910000Y-123691000D01*
X179466000Y-123731000D02*
X177740000Y-123731000D01*
X175660000Y-123731000D02*
X173934000Y-123731000D01*
X179442000Y-123771000D02*
X177740000Y-123771000D01*
X175660000Y-123771000D02*
X173958000Y-123771000D01*
X179416000Y-123811000D02*
X177740000Y-123811000D01*
X175660000Y-123811000D02*
X173984000Y-123811000D01*
X179390000Y-123851000D02*
X177740000Y-123851000D01*
X175660000Y-123851000D02*
X174010000Y-123851000D01*
X179364000Y-123891000D02*
X177740000Y-123891000D01*
X175660000Y-123891000D02*
X174036000Y-123891000D01*
X179336000Y-123931000D02*
X177740000Y-123931000D01*
X175660000Y-123931000D02*
X174064000Y-123931000D01*
X179307000Y-123971000D02*
X177740000Y-123971000D01*
X175660000Y-123971000D02*
X174093000Y-123971000D01*
X179278000Y-124011000D02*
X177740000Y-124011000D01*
X175660000Y-124011000D02*
X174122000Y-124011000D01*
X179248000Y-124051000D02*
X177740000Y-124051000D01*
X175660000Y-124051000D02*
X174152000Y-124051000D01*
X179216000Y-124091000D02*
X177740000Y-124091000D01*
X175660000Y-124091000D02*
X174184000Y-124091000D01*
X179184000Y-124131000D02*
X177740000Y-124131000D01*
X175660000Y-124131000D02*
X174216000Y-124131000D01*
X179150000Y-124171000D02*
X177740000Y-124171000D01*
X175660000Y-124171000D02*
X174250000Y-124171000D01*
X179116000Y-124211000D02*
X177740000Y-124211000D01*
X175660000Y-124211000D02*
X174284000Y-124211000D01*
X179080000Y-124251000D02*
X177740000Y-124251000D01*
X175660000Y-124251000D02*
X174320000Y-124251000D01*
X179043000Y-124291000D02*
X177740000Y-124291000D01*
X175660000Y-124291000D02*
X174357000Y-124291000D01*
X179005000Y-124331000D02*
X177740000Y-124331000D01*
X175660000Y-124331000D02*
X174395000Y-124331000D01*
X178965000Y-124371000D02*
X174435000Y-124371000D01*
X178924000Y-124411000D02*
X174476000Y-124411000D01*
X178882000Y-124451000D02*
X174518000Y-124451000D01*
X178837000Y-124491000D02*
X174563000Y-124491000D01*
X178792000Y-124531000D02*
X174608000Y-124531000D01*
X178744000Y-124571000D02*
X174656000Y-124571000D01*
X178695000Y-124611000D02*
X174705000Y-124611000D01*
X178644000Y-124651000D02*
X174756000Y-124651000D01*
X178590000Y-124691000D02*
X174810000Y-124691000D01*
X178534000Y-124731000D02*
X174866000Y-124731000D01*
X178476000Y-124771000D02*
X174924000Y-124771000D01*
X178414000Y-124811000D02*
X174986000Y-124811000D01*
X178350000Y-124851000D02*
X175050000Y-124851000D01*
X178281000Y-124891000D02*
X175119000Y-124891000D01*
X178209000Y-124931000D02*
X175191000Y-124931000D01*
X178132000Y-124971000D02*
X175268000Y-124971000D01*
X178050000Y-125011000D02*
X175350000Y-125011000D01*
X177962000Y-125051000D02*
X175438000Y-125051000D01*
X177865000Y-125091000D02*
X175535000Y-125091000D01*
X177759000Y-125131000D02*
X175641000Y-125131000D01*
X177640000Y-125171000D02*
X175760000Y-125171000D01*
X177502000Y-125211000D02*
X175898000Y-125211000D01*
X177333000Y-125251000D02*
X176067000Y-125251000D01*
X177102000Y-125291000D02*
X176298000Y-125291000D01*
X179970000Y-122050000D02*
G75*
G03*
X179970000Y-122050000I-3270000J0D01*
G01*
D11*
%TO.C,Q1*%
X174980000Y-99100000D02*
X174830000Y-98800000D01*
X175280000Y-99100000D02*
X174980000Y-99100000D01*
X179680000Y-99100000D02*
X179380000Y-99100000D01*
X179680000Y-99100000D02*
X179830000Y-98800000D01*
D10*
X179280000Y-95950000D02*
G75*
G03*
X175430000Y-95900000I-1950000J-1900000D01*
G01*
D12*
%TO.C,R6*%
X169670000Y-103440000D02*
X169670000Y-109980000D01*
X169340000Y-103440000D02*
X169670000Y-103440000D01*
X167260000Y-103440000D02*
X166930000Y-103440000D01*
X166930000Y-103440000D02*
X166930000Y-109980000D01*
X169670000Y-109980000D02*
X169340000Y-109980000D01*
X166930000Y-109980000D02*
X167260000Y-109980000D01*
%TD*%
G36*
X175942432Y-50120002D02*
G01*
X175988925Y-50173658D01*
X176000311Y-50225688D01*
X176099687Y-90373688D01*
X176079853Y-90441858D01*
X176026313Y-90488484D01*
X175973687Y-90500000D01*
X132126000Y-90500000D01*
X132057879Y-90479998D01*
X132011386Y-90426342D01*
X132000000Y-90374000D01*
X132000000Y-50226000D01*
X132020002Y-50157879D01*
X132073658Y-50111386D01*
X132126000Y-50100000D01*
X175874311Y-50100000D01*
X175942432Y-50120002D01*
G37*
M02*
